<?xml version="1.0" standalone="no"?>
<!DOCTYPE svg PUBLIC "-//W3C//DTD SVG 20010904//EN"
 "http://www.w3.org/TR/2001/REC-SVG-20010904/DTD/svg10.dtd">
<svg version="1.0" xmlns="http://www.w3.org/2000/svg"
 width="700.000000pt" height="700.000000pt" viewBox="0 0 700.000000 700.000000"
 preserveAspectRatio="xMidYMid meet">
<metadata>
Created by potrace 1.11, written by Peter Selinger 2001-2013
</metadata>
<g transform="translate(0.000000,700.000000) scale(0.100000,-0.100000)"
fill="#000000" stroke="none">
<path d="M1790 6045 l0 -435 1398 -2 c1331 -3 1399 -4 1434 -21 51 -26 107
-83 129 -131 12 -26 19 -64 19 -106 0 -57 -5 -73 -32 -120 -37 -61 -95 -107
-154 -120 -22 -6 -625 -10 -1416 -10 l-1378 0 0 -435 0 -436 1468 4 c1454 3
1468 3 1539 24 331 96 579 295 727 582 111 215 148 441 111 684 -35 231 -132
430 -295 601 -144 152 -329 265 -530 323 l-95 28 -1462 3 -1463 3 0 -436z"/>
<path d="M1855 4030 c-393 -67 -723 -237 -992 -511 -275 -279 -442 -613 -504
-1004 -17 -107 -17 -408 0 -515 61 -392 223 -718 495 -999 448 -462 1102 -645
1737 -485 94 23 270 89 360 134 150 76 314 196 451 330 l98 95 97 -95 c352
-344 782 -520 1270 -520 628 0 1198 323 1536 872 115 185 200 425 238 668 17
107 17 408 0 515 -93 591 -451 1085 -979 1349 -250 126 -511 186 -802 186
-482 0 -908 -174 -1258 -513 l-102 -100 -103 100 c-283 275 -602 434 -999 497
-132 22 -409 19 -543 -4z m504 -880 c329 -79 591 -343 677 -680 29 -113 27
-336 -4 -445 -74 -257 -229 -456 -454 -579 -139 -77 -274 -110 -448 -109 -411
1 -764 272 -881 675 -30 104 -37 306 -15 417 44 215 150 395 318 537 68 57
219 141 308 169 146 48 340 53 499 15z m2641 15 c386 -58 687 -348 766 -736
22 -111 15 -313 -15 -417 -117 -403 -470 -674 -881 -675 -174 -1 -309 32 -448
109 -225 123 -380 322 -454 579 -31 109 -33 332 -4 445 95 373 395 644 774
699 88 13 159 12 262 -4z"/>
</g>
</svg>
