<svg xmlns="http://www.w3.org/2000/svg" viewBox="0 0 416 36"><defs><style>.a{fill:none;stroke:#000;stroke-miterlimit:10;stroke-width:4.5px;}</style></defs><title>banner-black-bucket</title><circle class="a" cx="10.78" cy="25.27" r="7.97"/><circle class="a" cx="26.72" cy="25.27" r="7.97"/><path d="M53.46,5.58q9.65,0,9.65,12.71,0,6.48-2.6,10.06t-7.74,3.58q-9.65,0-9.64-12.67,0-6.48,2.59-10.08T53.46,5.58Zm-.69,4.61a2.58,2.58,0,0,0-2.66,2,23.83,23.83,0,0,0-.65,6.66,21,21,0,0,0,.72,6.61,2.89,2.89,0,0,0,3,1.9,2.75,2.75,0,0,0,2.93-1.94,25,25,0,0,0,.65-6.91q0-5.47-1-6.91A3.4,3.4,0,0,0,52.77,10.19Z"/><path d="M66.42,14.63a7.7,7.7,0,0,1,6.28-2.75c2.68,0,4.46.61,5.36,1.84s1.35,3.09,1.35,5.61l-5.22.22a7,7,0,0,0-.34-2.74c-.23-.43-.75-.65-1.56-.65a1.81,1.81,0,0,0-1.75,1.32A13.06,13.06,0,0,0,70,21.89a8.34,8.34,0,0,0,.88,4.43,3.18,3.18,0,0,0,2.84,1.33,14.07,14.07,0,0,0,4.81-1.08l1.15,3.27a12.41,12.41,0,0,1-7.27,2.09q-8.28,0-8.28-9.75A11.55,11.55,0,0,1,66.42,14.63Z"/><path d="M87.84,12.17H92.7l-.65,4H87.84v8.25a4.75,4.75,0,0,0,.5,2.55,2,2,0,0,0,1.73.72,11.53,11.53,0,0,0,2.05-.36l1,3.21a6.52,6.52,0,0,1-2.21,1,10.26,10.26,0,0,1-2.79.43c-2.38,0-3.93-.6-4.66-1.82s-1.1-3.19-1.1-5.95v-8H79.56l.5-3.6,2.38-.32.21-3.6,5.19-1.55Z"/><path d="M102.45,18.4a2.52,2.52,0,0,0-.5-1.75,2.6,2.6,0,0,0-1.94-.56,18.35,18.35,0,0,0-4.76,1.05l-1.54-3.39a16,16,0,0,1,3.4-1.28,16.46,16.46,0,0,1,4.28-.59,10.82,10.82,0,0,1,3.53.5,3.85,3.85,0,0,1,2,1.5,5.78,5.78,0,0,1,.83,2,12.71,12.71,0,0,1,.2,2.45v6.77a7.2,7.2,0,0,0,.27,2.16,5.16,5.16,0,0,0,1.17,1.8l-3.13,2.91a5.58,5.58,0,0,1-1.61-1.19,6.67,6.67,0,0,1-1.13-1.47h-.14a6.48,6.48,0,0,1-5.3,2.66Q93,31.93,93,26.57a5.27,5.27,0,0,1,1.64-4.25,9.71,9.71,0,0,1,4.73-1.94l3.13-.54ZM98.17,26c0,1.18.62,1.77,1.87,1.77a3.34,3.34,0,0,0,2.45-1V23.36a10.06,10.06,0,0,0-3.31.89A1.86,1.86,0,0,0,98.17,26Z"/><path d="M120,12l5,.58-4.75,18.9h-6.45l-5-18.94,5.33-.54L117,26.6h.22Z"/><path d="M134,11.88q3.6,0,5.3,2,1.4,1.62,1.73,5.4c.07,1,.1,2.27.1,3.78l-2.55.36h-7.42a5.3,5.3,0,0,0,.79,3.19,3.34,3.34,0,0,0,2.83,1.06,14.81,14.81,0,0,0,4.91-1L140.83,30a14.3,14.3,0,0,1-7.13,1.94q-8.38,0-8.39-9.93a11.52,11.52,0,0,1,2.18-7.4Q129.67,11.88,134,11.88ZM135.25,17a1.58,1.58,0,0,0-1.62-.81,1.93,1.93,0,0,0-1.8.92,5.93,5.93,0,0,0-.61,2.76h4.39A7.89,7.89,0,0,0,135.25,17Z"/><path d="M155.66,5.58q9.65,0,9.65,12.71,0,6.48-2.59,10.06T155,31.93q-9.64,0-9.65-12.67,0-6.48,2.59-10.08T155.66,5.58ZM155,10.19a2.59,2.59,0,0,0-2.67,2,23.93,23.93,0,0,0-.64,6.66,20.71,20.71,0,0,0,.72,6.61,2.87,2.87,0,0,0,3,1.9,2.75,2.75,0,0,0,2.93-1.94,24.62,24.62,0,0,0,.65-6.91q0-5.47-1-6.91A3.41,3.41,0,0,0,155,10.19Z"/><path d="M177,11.88a5.46,5.46,0,0,1,4.18,1.58,6.29,6.29,0,0,1,1.48,4.43V31.5h-5.55v-13c0-1.56-.74-2.34-2.23-2.34a3,3,0,0,0-2.27,1.05V31.5h-5.51V17.89l-.39-5.29,4.28-.54.51,2.16h.17A6.57,6.57,0,0,1,177,11.88Z"/><path d="M190.69,24.91a10.68,10.68,0,0,0,.23,2.59,5.94,5.94,0,0,0,1.17,2l-4,2.92a12.79,12.79,0,0,1-2.36-3.22,10.54,10.54,0,0,1-.63-4.16V4.93l5.55-.61Z"/><path d="M196.05,11q-3,0-3-3.35a3,3,0,0,1,.8-2.14,3.38,3.38,0,0,1,2.59-.85q3,0,3,3.38a2.94,2.94,0,0,1-.79,2.13A3.42,3.42,0,0,1,196.05,11ZM199,31.5h-5.5V12.64l5.5-.58Z"/><path d="M211.64,11.88a5.46,5.46,0,0,1,4.18,1.58,6.28,6.28,0,0,1,1.47,4.43V31.5h-5.54v-13c0-1.56-.75-2.34-2.23-2.34a3,3,0,0,0-2.27,1.05V31.5h-5.51V17.89l-.4-5.29,4.29-.54.5,2.16h.18A6.56,6.56,0,0,1,211.64,11.88Z"/><path d="M227.91,11.88c2.4,0,4.17.66,5.29,2q1.41,1.62,1.73,5.4c.07,1,.11,2.27.11,3.78l-2.56.36h-7.41a5.3,5.3,0,0,0,.79,3.19,3.34,3.34,0,0,0,2.83,1.06,14.81,14.81,0,0,0,4.91-1L234.72,30a14.33,14.33,0,0,1-7.13,1.94q-8.39,0-8.39-9.93a11.52,11.52,0,0,1,2.18-7.4Q223.56,11.88,227.91,11.88ZM229.14,17a1.58,1.58,0,0,0-1.62-.81,1.93,1.93,0,0,0-1.8.92,6,6,0,0,0-.62,2.76h4.4A7.89,7.89,0,0,0,229.14,17Z"/><path d="M325.54,6.3h8.64a5.94,5.94,0,0,1,4.59,1.62,5.65,5.65,0,0,1,1.5,4,6.28,6.28,0,0,1-1.17,3.9,5.33,5.33,0,0,1-3.19,2V18q5.68.54,5.69,6.41a6.57,6.57,0,0,1-2.29,5,8.3,8.3,0,0,1-5.88,2.11h-7.89ZM329,8.93v7.88h3.24a4.59,4.59,0,0,0,3.24-1,3.91,3.91,0,0,0,1.12-3,4.05,4.05,0,0,0-.92-2.9,4.41,4.41,0,0,0-3.22-1Zm0,10.76v9h3.82c2,0,3.34-.39,4.05-1.19a4.8,4.8,0,0,0,1.06-3.29,4.14,4.14,0,0,0-1.39-3.31,6.46,6.46,0,0,0-4.34-1.21Z"/><path d="M348.69,31.93a5.58,5.58,0,0,1-4-1.51,6.19,6.19,0,0,1-1.58-4.68v-13l3.24-.32V25.34c0,2.48,1.16,3.71,3.49,3.71a5.45,5.45,0,0,0,4-1.69V12.74l3.24-.32v13.9l.29,5-2.63.36-.39-2.2h-.15A6.76,6.76,0,0,1,348.69,31.93Z"/><path d="M361.45,14.92a6.74,6.74,0,0,1,5.62-2.75c2.34,0,3.9.54,4.68,1.64a8.15,8.15,0,0,1,1.17,4.77l-3.24.21a5.12,5.12,0,0,0-.61-2.9,3,3,0,0,0-2.49-.84q-3.78,0-3.78,7t4.83,7a10,10,0,0,0,4.5-1.19l1,2.16a7.36,7.36,0,0,1-2.56,1.35,10.84,10.84,0,0,1-3.56.56q-7.64,0-7.63-9.75A11.68,11.68,0,0,1,361.45,14.92Z"/><path d="M378,31.5h-3.24V4.68L378,4.32Zm11.08,0H385l-6.88-9.58,6.95-9.5,3.21,1L381.56,22Z"/><path d="M396.35,12.17A5.47,5.47,0,0,1,400.93,14a9.46,9.46,0,0,1,1.51,5.08c.07.93.11,2.1.11,3.49l-1.48.21h-9.32q0,4.55,2.41,5.73a6.35,6.35,0,0,0,2.77.5A9.3,9.3,0,0,0,401,27.9l1,2.23a11.58,11.58,0,0,1-6,1.8q-7.71,0-7.71-9.72a11.91,11.91,0,0,1,2-7.32A7,7,0,0,1,396.35,12.17Zm2.16,4q-.57-1.17-2.64-1.17a3.2,3.2,0,0,0-2.94,1.38,9,9,0,0,0-1.08,3.84h7.24A9.9,9.9,0,0,0,398.51,16.22Z"/><path d="M408.45,12.6h5.15l-.43,2.74h-4.72v8.78a10.69,10.69,0,0,0,.49,3.91c.32.73,1.06,1.09,2.21,1.09a4.94,4.94,0,0,0,1.91-.39l.94,2.05a4,4,0,0,1-1.59.79,7.06,7.06,0,0,1-2.09.36c-2.11,0-3.49-.59-4.14-1.76a13,13,0,0,1-1-5.83v-9h-3.09l.35-2.52,2.74-.22.18-4,3.06-.9Z"/><path d="M241.19,7.81a7.91,7.91,0,0,1,5.5-1.94,7.07,7.07,0,0,1,5.08,1.65,6.9,6.9,0,0,1,2,4.54l-3.67.36A3.67,3.67,0,0,0,249,9.86a3.86,3.86,0,0,0-2.7-.9,4,4,0,0,0-2.68.83,2.67,2.67,0,0,0-1,2.13,3.74,3.74,0,0,0,1.12,2.8,16.5,16.5,0,0,0,3.82,2.45c1.58.82,2.67,1.41,3.26,1.78a14,14,0,0,1,1.78,1.39,5.73,5.73,0,0,1,1.72,4.5,6.58,6.58,0,0,1-2.23,5,8.47,8.47,0,0,1-6,2.07,12.36,12.36,0,0,1-7.16-2.34l1.47-2.66a12.86,12.86,0,0,0,6.3,1.91,4.48,4.48,0,0,0,2.88-.89,3,3,0,0,0,1.12-2.55,3.32,3.32,0,0,0-1.13-2.65A12.41,12.41,0,0,0,246.71,21l-2.1-1c-.27-.13-.71-.37-1.34-.72a10.07,10.07,0,0,1-1.37-.88c-.28-.24-.65-.59-1.09-1a4.5,4.5,0,0,1-1-1.28,7.8,7.8,0,0,1-.82-3.45A6.21,6.21,0,0,1,241.19,7.81Z"/><path d="M263.07,12.17A5.44,5.44,0,0,1,267.64,14c.82,1,1.32,2.7,1.52,5.08.07.93.1,2.1.1,3.49l-1.47.21h-9.33q0,4.55,2.42,5.73a6.35,6.35,0,0,0,2.77.5,9.34,9.34,0,0,0,4.07-1.15l1,2.23a11.53,11.53,0,0,1-6,1.8q-7.69,0-7.7-9.72a12,12,0,0,1,2-7.32A7,7,0,0,1,263.07,12.17Zm2.16,4q-.57-1.17-2.64-1.17a3.2,3.2,0,0,0-2.94,1.38,9,9,0,0,0-1.08,3.84h7.24A9.9,9.9,0,0,0,265.23,16.22Z"/><path d="M279.45,12.17a4.64,4.64,0,0,1,1.42.16l.81.25a2.23,2.23,0,0,1,.4.13L281.5,16a8.13,8.13,0,0,0-2.57-.36,3.6,3.6,0,0,0-2.7,1.28A4.32,4.32,0,0,0,275,19.94V31.5h-3.24V17.78l-.28-5,2.62-.36.4,3.64h.14a6.38,6.38,0,0,1,1.86-2.83A4.35,4.35,0,0,1,279.45,12.17Z"/><path d="M292.48,12.38l3,.36L290.29,31.5h-4.18l-5.43-18.76,3.24-.36,4.24,15.95h.18Z"/><path d="M303.79,12.17A5.45,5.45,0,0,1,308.36,14q1.23,1.52,1.51,5.08c.07.93.11,2.1.11,3.49l-1.48.21h-9.32q0,4.55,2.41,5.73a6.38,6.38,0,0,0,2.77.5,9.27,9.27,0,0,0,4.07-1.15l1,2.23a11.56,11.56,0,0,1-6,1.8q-7.71,0-7.71-9.72a11.91,11.91,0,0,1,2-7.32A7,7,0,0,1,303.79,12.17Zm2.16,4c-.39-.78-1.27-1.17-2.65-1.17a3.17,3.17,0,0,0-2.93,1.38,8.67,8.67,0,0,0-1.08,3.84h7.23A10.12,10.12,0,0,0,306,16.22Z"/><path d="M320.17,12.17a4.68,4.68,0,0,1,1.42.16c.32.11.59.19.81.25a2.23,2.23,0,0,1,.4.13L322.22,16a8.17,8.17,0,0,0-2.57-.36,3.6,3.6,0,0,0-2.7,1.28,4.28,4.28,0,0,0-1.21,3.07V31.5H312.5V17.78l-.29-5,2.63-.36.4,3.64h.14a6.45,6.45,0,0,1,1.85-2.83A4.37,4.37,0,0,1,320.17,12.17Z"/><path class="a" d="M8.75,3.09h16a3.85,3.85,0,0,1,4,4,3.82,3.82,0,0,1-4,4h-16"/></svg>