<?xml version="1.0" encoding="utf-8"?>
<!-- Generator: Adobe Illustrator 15.1.0, SVG Export Plug-In . SVG Version: 6.00 Build 0)  -->
<!DOCTYPE svg PUBLIC "-//W3C//DTD SVG 1.1//EN" "http://www.w3.org/Graphics/SVG/1.1/DTD/svg11.dtd">
<svg version="1.1" id="Capa_1" xmlns="http://www.w3.org/2000/svg" xmlns:xlink="http://www.w3.org/1999/xlink" x="0px" y="0px"
	 width="40px" height="40px" viewBox="236 236 40 40" enable-background="new 236 236 40 40" xml:space="preserve">
<g>
	<path fill="#E6D2CC" d="M238.5,273.5H276v2.5h-40v-40h2.5v7.5h2.5v2.5h-2.5v5h2.5v2.5h-2.5v5h2.5v2.5h-2.5v5h2.5v2.5h-2.5V273.5z
		 M243.5,262.25c0-2.07,1.678-3.75,3.75-3.75c0.389,0,0.757,0.076,1.111,0.186l3.269-4.36c-0.397-0.593-0.63-1.309-0.63-2.075
		c0-2.07,1.68-3.75,3.75-3.75s3.75,1.68,3.75,3.75c0,0.391-0.076,0.757-0.187,1.111l4.358,3.269c0.596-0.396,1.309-0.63,2.078-0.63
		c0.156,0,0.303,0.027,0.454,0.046l4.351-8.699c-0.649-0.674-1.055-1.587-1.055-2.598c0-2.07,1.68-3.75,3.75-3.75
		s3.75,1.68,3.75,3.75s-1.68,3.75-3.75,3.75c-0.156,0-0.303-0.027-0.454-0.046l-4.349,8.699c0.65,0.674,1.053,1.587,1.053,2.598
		c0,2.07-1.68,3.75-3.75,3.75s-3.75-1.68-3.75-3.75c0-0.389,0.076-0.757,0.186-1.111l-4.359-3.269
		c-0.594,0.396-1.309,0.63-2.076,0.63c-0.389,0-0.757-0.076-1.109-0.186l-3.271,4.357c0.397,0.596,0.63,1.309,0.63,2.078
		c0,2.07-1.678,3.75-3.75,3.75S243.5,264.32,243.5,262.25z M271,244.75c0,0.691,0.559,1.25,1.25,1.25s1.25-0.559,1.25-1.25
		s-0.559-1.25-1.25-1.25S271,244.059,271,244.75z M263.5,259.75c0,0.691,0.559,1.25,1.25,1.25s1.25-0.559,1.25-1.25
		s-0.559-1.25-1.25-1.25S263.5,259.059,263.5,259.75z M253.5,252.25c0,0.691,0.559,1.25,1.25,1.25s1.25-0.559,1.25-1.25
		s-0.559-1.25-1.25-1.25S253.5,251.559,253.5,252.25z M246,262.25c0,0.691,0.559,1.25,1.25,1.25s1.25-0.559,1.25-1.25
		s-0.559-1.25-1.25-1.25S246,261.559,246,262.25z"/>
</g>
</svg>
