<?xml version="1.0" encoding="utf-8"?>
<!-- Generator: Adobe Illustrator 15.1.0, SVG Export Plug-In . SVG Version: 6.00 Build 0)  -->
<!DOCTYPE svg PUBLIC "-//W3C//DTD SVG 1.1//EN" "http://www.w3.org/Graphics/SVG/1.1/DTD/svg11.dtd">
<svg version="1.1" id="Capa_1" xmlns="http://www.w3.org/2000/svg" xmlns:xlink="http://www.w3.org/1999/xlink" x="0px" y="0px"
	 width="40px" height="40px" viewBox="0 0 40 40" enable-background="new 0 0 40 40" xml:space="preserve">
<g>
	<path fill="#E6D2CC" d="M20.001,17.25l10-10h-7.5v-6h-5v6h-7.5L20.001,17.25z M32.091,18.159l-2.802,2.802l7.158,2.789L20,29.884
		L3.552,23.75l6.25-2.789L7,18.159L0,21.25v10l20,7.5l20-7.5v-10L32.091,18.159z"/>
</g>
<g>
	<path fill="#E6D2CC" d="M15.602,21.256c0,0.827-0.061,1.139-0.731,1.666l-0.696,0.553c-0.239,0.191-0.611,0.516-0.923,0.516h-0.78
		c-0.516,0-0.756-0.336-1.127-0.684l-0.228-0.217v2.315c0,0.396-0.084,0.792-0.576,0.792s-0.576-0.396-0.576-0.792v-7.268
		c0-0.408,0.048-0.852,0.576-0.852c0.468,0,0.576,0.372,0.576,0.755v0.144l0.228-0.204c0.3-0.264,0.755-0.695,1.08-0.695h0.792
		c0.275,0,0.647,0.288,0.959,0.528l0.696,0.54c0.671,0.528,0.731,0.852,0.731,1.667V21.256z M14.45,19.864
		c0-0.216-0.061-0.348-0.24-0.504l-0.863-0.72c-0.108-0.096-0.24-0.204-0.396-0.204h-0.3c-0.168,0-0.372,0.216-0.492,0.336
		l-0.72,0.684c-0.24,0.228-0.324,0.36-0.324,0.611v1.127c0,0.168,0.048,0.384,0.168,0.492l0.875,0.827
		c0.168,0.168,0.348,0.323,0.492,0.323h0.3c0.156,0,0.288-0.107,0.396-0.203l0.863-0.72c0.18-0.155,0.24-0.288,0.24-0.504V19.864z"
		/>
	<path fill="#E6D2CC" d="M17.955,19.612v3.347c0,0.395-0.084,0.791-0.575,0.791c-0.492,0-0.576-0.396-0.576-0.791v-4.822
		c0-0.42,0.048-0.852,0.576-0.852c0.516,0,0.575,0.432,0.575,0.839v0.132v0.024l0.936-0.612c0.3-0.192,0.624-0.384,0.995-0.384
		h0.852c0.444,0,0.72,0.12,1.067,0.419c0.517,0.444,0.492,0.936,0.517,1.56l0.119,3.622c0.013,0.408-0.048,0.863-0.563,0.863
		c-0.468,0-0.563-0.396-0.575-0.779l-0.12-3.55c-0.024-0.708-0.084-0.983-0.779-0.983h-0.384c-0.12,0-0.24,0.036-0.36,0.108
		L17.955,19.612z"/>
	<path fill="#E6D2CC" d="M23.644,19.433c0-0.54,0.156-1.02,0.396-1.211l0.84-0.66c0.24-0.192,0.42-0.276,0.72-0.276h1.115
		c0.312,0,0.684,0.228,1.128,0.576l0.287,0.228v-0.132c0-0.36,0.192-0.671,0.588-0.671c0.504,0,0.563,0.419,0.563,0.803v5.625
		c0,1.044-0.084,1.259-0.563,1.667l-0.384,0.324c-0.504,0.42-0.791,0.492-1.439,0.492h-1.906c-0.336,0-0.792-0.072-0.792-0.576
		c0-0.492,0.408-0.576,0.792-0.576h2.11c0.24,0,0.396-0.107,0.576-0.264l0.287-0.264c0.097-0.096,0.168-0.264,0.168-0.479v-1.583
		l-0.239,0.239c-0.264,0.265-0.624,0.563-0.948,0.563h-1.354c-0.24,0-0.516-0.035-0.864-0.348l-0.719-0.647
		c-0.336-0.312-0.36-0.611-0.36-1.079V19.433z M24.795,21.016c0,0.24,0.012,0.492,0.145,0.6l0.479,0.384
		c0.084,0.071,0.191,0.108,0.336,0.108h0.839c0.145,0,0.312-0.121,0.528-0.301l0.888-0.73c0.084-0.072,0.119-0.229,0.119-0.385
		v-0.839c0-0.156-0.035-0.312-0.119-0.384l-0.888-0.731c-0.216-0.18-0.384-0.3-0.528-0.3h-0.839c-0.145,0-0.252,0.036-0.336,0.108
		l-0.479,0.384c-0.133,0.108-0.145,0.36-0.145,0.6V21.016z"/>
</g>
</svg>
