<svg xmlns="http://www.w3.org/2000/svg" viewBox="0 0 40 40"><defs><style>.a{fill:#e6d2cc;}</style></defs><title>i18n</title><path class="a" d="M36.3,8.5h0l-.2-.2L34.9,6.8l-.3-.4a8.6,8.6,0,0,0-1.4-1.3L33,4.8a22.6,22.6,0,0,0-3.8-2.5H29l-1.8-.8-.4-.2L25,.7h-.5L22.8.2h-.5a17.7,17.7,0,0,0-4.6,0h-.5L15.5.6H15l-1.7.5-.4.2L11,2.2h-.2A22.6,22.6,0,0,0,7,4.8l-.2.3L5.4,6.4l-.3.4L3.9,8.2l-.2.2h0a19.8,19.8,0,0,0,0,23h0l.2.2,1.2,1.4.3.4,1.4,1.3.2.3a22.6,22.6,0,0,0,3.8,2.5H11l1.8.8.5.2,1.7.5h.5l1.7.4h.5a17.7,17.7,0,0,0,4.6,0h.5l1.7-.4H25l1.7-.5.5-.2,1.8-.8h.2A22.6,22.6,0,0,0,33,35.2l.2-.3,1.4-1.3.3-.4,1.2-1.4.2-.2h0A19.8,19.8,0,0,0,36.3,8.5Zm-1.6,2.7a19,19,0,0,1,2.4,7.4H28.5a30,30,0,0,0-.8-5.1A25,25,0,0,0,34.7,11.2ZM23.6,3.3h.3l1.5.5h.2l1.5.6h.2l1.3.7.3.2,1.2.8.3.2a5.2,5.2,0,0,1,1.1,1l.3.2a5.2,5.2,0,0,1,1,1.1H33a23,23,0,0,1-6.1,2A34.1,34.1,0,0,0,23,3.2ZM14.3,18.6a34,34,0,0,1,.8-4.6l4.9.3a40.3,40.3,0,0,0,4.9-.3,23.3,23.3,0,0,1,.8,4.6Zm11.4,2.8a23.3,23.3,0,0,1-.8,4.6,40.2,40.2,0,0,0-9.8,0,34,34,0,0,1-.8-4.6ZM20,3.8a35.3,35.3,0,0,1,4,7.4,26.8,26.8,0,0,1-4,.2,27.5,27.5,0,0,1-4-.2A40.6,40.6,0,0,1,20,3.8ZM7.2,8.7l1-1.1.3-.3,1.1-.9.3-.2,1.2-.8.3-.2,1.3-.7H13l1.4-.6h.2l1.5-.5H17a34.1,34.1,0,0,0-3.9,7.6A23,23,0,0,1,7,8.8ZM5.4,11.2a23.4,23.4,0,0,0,6.9,2.3,30,30,0,0,0-.8,5.1H3A16.2,16.2,0,0,1,5.4,11.2Zm0,17.6A16.2,16.2,0,0,1,3,21.4h8.5a30,30,0,0,0,.8,5.1A23.4,23.4,0,0,0,5.4,28.8Zm11,7.9h-.3l-1.5-.5h-.2L13,35.6h-.3l-1.3-.7-.3-.2-1.2-.8-.3-.2a5.2,5.2,0,0,1-1.1-1l-.3-.2-1-1.1H7a23,23,0,0,1,6.1-2A34.1,34.1,0,0,0,17,36.8Zm3.6-.5a35.3,35.3,0,0,1-4-7.4,35.7,35.7,0,0,1,8,0h0A35.3,35.3,0,0,1,20,36.2Zm12.8-4.9a5.2,5.2,0,0,1-1,1.1l-.3.3-1.1.9-.3.2-1.2.8-.3.2-1.3.7h-.2l-1.5.6h-.2l-1.5.5H23a34.1,34.1,0,0,0,3.9-7.6,23,23,0,0,1,6.1,2Zm1.9-2.5a25,25,0,0,0-7-2.3,30,30,0,0,0,.8-5.1h8.6A19,19,0,0,1,34.7,28.8Z"/></svg>