<svg xmlns="http://www.w3.org/2000/svg" xmlns:xlink="http://www.w3.org/1999/xlink" id="Capa_1" width="40" height="40" x="0" y="0" enable-background="new -257.029 444.971 40 40" version="1.1" viewBox="-257.029 444.971 40 40" xml:space="preserve"><g><g><path fill="#E6D2CC" d="M-231.79,479.597h-20.549v-29.251h20.55c0.456,0,0.825-0.37,0.825-0.825v-3.039 c0-0.456-0.37-0.825-0.825-0.825h-24.414c-0.455,0-0.825,0.369-0.825,0.825v36.979c0,0.456,0.37,0.825,0.825,0.825h24.413 c0.456,0,0.825-0.369,0.825-0.825v-3.038C-230.965,479.967-231.334,479.597-231.79,479.597z"/><path fill="#E6D2CC" d="M-217.272,464.388l-11.108-11.107c-0.31-0.31-0.857-0.31-1.167,0l-2.636,2.636 c-0.322,0.322-0.322,0.845,0,1.167l5.018,5.018h-21.72c-0.456,0-0.825,0.37-0.825,0.825v4.09c0,0.456,0.37,0.825,0.825,0.825 h21.721l-5.017,5.019c-0.323,0.322-0.323,0.844,0,1.167l2.635,2.636c0.155,0.155,0.365,0.242,0.583,0.242 c0.219,0,0.429-0.087,0.583-0.242l11.108-11.107c0.155-0.154,0.242-0.365,0.242-0.583 C-217.029,464.753-217.117,464.543-217.272,464.388z"/></g></g></svg>