<?xml version="1.0" encoding="utf-8"?>
<!-- Generator: Adobe Illustrator 15.1.0, SVG Export Plug-In . SVG Version: 6.00 Build 0)  -->
<!DOCTYPE svg PUBLIC "-//W3C//DTD SVG 1.1//EN" "http://www.w3.org/Graphics/SVG/1.1/DTD/svg11.dtd">
<svg version="1.1" id="Capa_1" xmlns="http://www.w3.org/2000/svg" xmlns:xlink="http://www.w3.org/1999/xlink" x="0px" y="0px"
	 width="40px" height="40px" viewBox="-62.894 639.106 40 40" enable-background="new -62.894 639.106 40 40" xml:space="preserve">
<g>
	<g>
		<rect x="-50.394" y="669.106" fill="#E6D2CC" width="12.499" height="2.5"/>
		<path fill="#E6D2CC" d="M-52.894,641.607h19.999v5h2.5v-5c0-1.38-1.118-2.501-2.5-2.501h-19.999c-1.381,0-2.5,1.121-2.5,2.501v5
			h2.5V641.607z"/>
		<rect x="-50.394" y="664.106" fill="#E6D2CC" width="14.998" height="2.5"/>
		<path fill="#E6D2CC" d="M-25.396,649.106h-34.998c-1.38,0-2.5,1.12-2.5,2.5v15c0,1.382,1.12,2.5,2.5,2.5h5v7.499
			c0,1.383,1.119,2.501,2.5,2.501h19.999c1.382,0,2.5-1.118,2.5-2.501v-7.499h5c1.382,0,2.5-1.118,2.5-2.5v-15
			C-22.896,650.226-24.014,649.106-25.396,649.106z M-32.895,676.605h-19.999v-14.999h19.999V676.605L-32.895,676.605z
			 M-27.895,656.606c-1.382,0-2.5-1.118-2.5-2.5c0-1.379,1.118-2.5,2.5-2.5c1.381,0,2.5,1.12,2.5,2.5
			C-25.396,655.488-26.514,656.606-27.895,656.606z"/>
	</g>
</g>
</svg>
