<svg xmlns="http://www.w3.org/2000/svg" xmlns:xlink="http://www.w3.org/1999/xlink" id="Capa_1" width="40" height="40" x="0" y="0" enable-background="new .5 792.5 40 40" version="1.1" viewBox="0.5 792.5 40 40" xml:space="preserve"><g><path fill="#E6D2CC" d="M34.641,798.357l5.304-5.303H25.801v14.143l5.306-5.305c5.853,5.852,5.853,15.359,0,21.211 c-1.783,1.787-3.924,3.045-6.187,3.709v5.164c3.557-0.795,6.946-2.559,9.723-5.334C42.452,818.824,42.452,806.174,34.641,798.357z M9.896,823.104c-5.854-5.852-5.854-15.359,0-21.211c1.783-1.785,3.921-3.043,6.187-3.705v-5.164 c-3.557,0.795-6.947,2.559-9.724,5.334c-7.812,7.816-7.812,20.465,0,28.283l-5.303,5.303h14.143v-14.143L9.896,823.104z"/></g></svg>