<svg xmlns="http://www.w3.org/2000/svg" viewBox="0 0 512 512"><defs><style>.a{fill:#e6d2cc;}</style></defs><title>timemachine</title><path class="a" d="M413.81,462.9V411.82c0-60.18-46.49-96.16-91.18-131.27-6.17-4.84-14-14-14-28.06s7.08-27.7,14-33.55c43.48-36.58,91.18-71.1,91.18-131.27V49.1h35.07V0H63.12V49.1H98.19V87.67c0,60.17,47.7,94.69,91.18,131.27,6.95,5.85,14,19.53,14,33.55s-7.86,23.22-14,28.06c-44.68,35.11-91.18,71.1-91.18,131.27v51.09H63.12V512H448.88V462.9ZM167.44,133.26c-12.93-14.63-20.15-28.71-20.15-45.59V49.1H364.71V87.67c0,16.88-7.22,31-20.15,45.59Zm197.27,316L282.14,417c-14.38-5.61-37.89-5.61-52.27,0l-82.58,32.23v-37.4c0-34.05,27.06-57,71.22-91.73l1.17-.91A84.79,84.79,0,0,0,251,267.56a23.1,23.1,0,0,0,10,0,84.74,84.74,0,0,0,31.3,51.6l1.19.93c44.16,34.69,71.22,57.68,71.22,91.73v37.4Z"/></svg>