<svg xmlns="http://www.w3.org/2000/svg" xmlns:xlink="http://www.w3.org/1999/xlink" id="Capa_1" width="40" height="40" x="0" y="0" enable-background="new .5 792.5 40 40" version="1.1" viewBox="0.5 792.5 40 40" xml:space="preserve"><g><g><path fill="#E6D2CC" d="M20.5,795.5l-10.4,9.759h6.6V815.5h7.6v-10.241h6.6L20.5,795.5z M39.179,818.584l-6.367-4.284h-3.926 l6.801,5.218h-7.089c-0.203,0-0.387,0.103-0.479,0.266l-1.635,4.47H14.515l-1.634-4.47c-0.091-0.163-0.275-0.266-0.479-0.266 H5.313l6.801-5.218H8.188l-6.367,4.284c-0.948,0.566-1.514,1.871-1.26,2.898l1.123,6.148c0.254,1.027,1.381,1.869,2.503,1.869 h32.627c1.122,0,2.248-0.842,2.503-1.869l1.122-6.148C40.694,820.455,40.127,819.15,39.179,818.584z"/></g></g></svg>