<svg xmlns="http://www.w3.org/2000/svg" xmlns:xlink="http://www.w3.org/1999/xlink" id="Capa_1" width="49.654" height="49.654" x="0" y="0" enable-background="new 0 0 49.654 49.654" version="1.1" viewBox="0 0 49.654 49.654" xml:space="preserve"><g><g><path fill="#E6D2CC" d="M24.827,0C11.138,0,0.001,11.138,0.001,24.827c0,13.689,11.139,24.827,24.826,24.827 c13.688,0,24.826-11.138,24.826-24.827C49.653,11.138,38.517,0,24.827,0z M39.142,38.51c0-0.572,0-0.979,0-0.979 c0-3.386-3.912-4.621-6.006-5.517c-0.76-0.323-2.188-1.013-3.653-1.729c-0.495-0.242-0.941-0.887-0.997-1.438l-0.162-1.604 c1.122-1.045,2.133-2.5,2.304-4.122h0.253c0.398,0,0.773-0.298,0.832-0.663l0.397-2.453c0.053-0.522-0.442-0.842-0.843-0.842 c0.011-0.052,0.02-0.104,0.023-0.147c0.051-0.297,0.082-0.58,0.104-0.857c0.023-0.223,0.045-0.454,0.056-0.693 c0.042-1.156-0.154-2.171-0.479-2.736c-0.33-0.793-0.83-1.563-1.526-2.225c-1.939-1.836-4.188-2.551-6.106-1.073 c-1.306-0.228-2.856,0.369-3.979,1.684c-0.612,0.717-0.993,1.537-1.156,2.344c-0.146,0.503-0.243,1.112-0.267,1.771 c-0.026,0.731,0.046,1.402,0.181,1.945c-0.382,0.024-0.764,0.34-0.764,0.833l0.396,2.453c0.061,0.365,0.436,0.663,0.832,0.663 h0.229c0.358,1.754,1.292,3.194,2.321,4.198l-0.154,1.551c-0.058,0.55-0.502,1.193-0.998,1.438 c-1.418,0.69-2.815,1.356-3.651,1.703c-1.97,0.812-6.006,2.131-6.006,5.517v0.766c-3.288-3.541-5.316-8.266-5.316-13.467 c0-10.932,8.896-19.826,19.826-19.826c10.935,0,19.826,8.896,19.826,19.826C44.653,30.133,42.548,34.946,39.142,38.51z"/></g></g></svg>