<svg xmlns="http://www.w3.org/2000/svg" xmlns:xlink="http://www.w3.org/1999/xlink" width="108" height="108" x="0" y="0" enable-background="new 0 0 108 108" overflow="visible" version="1.1" viewBox="0 0 108 108" xml:space="preserve"><line x1="54" x2="97" y1="15" y2="15" fill="none" stroke="#E6D2CC" stroke-miterlimit="10" stroke-width="6"/><line x1="71" x2="97" y1="27" y2="27" fill="none" stroke="#E6D2CC" stroke-miterlimit="10" stroke-width="6"/><line x1="71" x2="97" y1="39" y2="39" fill="none" stroke="#E6D2CC" stroke-miterlimit="10" stroke-width="6"/><line x1="71" x2="97" y1="51" y2="51" fill="none" stroke="#E6D2CC" stroke-miterlimit="10" stroke-width="6"/><line x1="71" x2="97" y1="63" y2="63" fill="none" stroke="#E6D2CC" stroke-miterlimit="10" stroke-width="6"/><path fill="none" stroke="#E6D2CC" stroke-miterlimit="10" stroke-width="6" d="M101,3H49c-2.209,0-4,1.842-4,4.114V33h14	c2.209,0,4,1.842,4,4.114V75h38c2.209,0,4-1.842,4-4.115V7.114C105,4.842,103.209,3,101,3z"/><path fill="none" stroke="#E6D2CC" stroke-miterlimit="10" stroke-width="6" d="M45,33H7c-2.209,0-4,1.842-4,4.114v63.771	C3,103.158,4.791,105,7,105h52c2.209,0,4-1.842,4-4.115V75"/><path fill="none" stroke="#E6D2CC" stroke-miterlimit="10" stroke-width="6" d="M63,75V37.114C63,34.842,61.209,33,59,33H45"/><line x1="12" x2="47" y1="45" y2="45" fill="none" stroke="#E6D2CC" stroke-miterlimit="10" stroke-width="6"/><line x1="12" x2="40" y1="57" y2="57" fill="none" stroke="#E6D2CC" stroke-miterlimit="10" stroke-width="6"/><line x1="12" x2="53" y1="69" y2="69" fill="none" stroke="#E6D2CC" stroke-miterlimit="10" stroke-width="6"/><line x1="12" x2="26" y1="81" y2="81" fill="none" stroke="#E6D2CC" stroke-miterlimit="10" stroke-width="6"/><line x1="12" x2="47" y1="93" y2="93" fill="none" stroke="#E6D2CC" stroke-miterlimit="10" stroke-width="6"/><line x1="73" x2="91" y1="102" y2="84" fill="none" stroke="#E6D2CC" stroke-miterlimit="10" stroke-width="10"/><line x1="84" x2="102" y1="84" y2="102" fill="none" stroke="#E6D2CC" stroke-miterlimit="10" stroke-width="10"/><line x1="35" x2="17" y1="6" y2="24" fill="none" stroke="#E6D2CC" stroke-miterlimit="10" stroke-width="10"/><line x1="24" x2="6" y1="24" y2="6" fill="none" stroke="#E6D2CC" stroke-miterlimit="10" stroke-width="10"/></svg>