<?xml version="1.0" encoding="utf-8"?>
<!-- Generator: Adobe Illustrator 15.1.0, SVG Export Plug-In  -->
<!DOCTYPE svg PUBLIC "-//W3C//DTD SVG 1.1//EN" "http://www.w3.org/Graphics/SVG/1.1/DTD/svg11.dtd" [
	<!ENTITY ns_flows "http://ns.adobe.com/Flows/1.0/">
]>
<svg version="1.1"
	 xmlns="http://www.w3.org/2000/svg" xmlns:xlink="http://www.w3.org/1999/xlink" xmlns:a="http://ns.adobe.com/AdobeSVGViewerExtensions/3.0/"
	 x="0px" y="0px" width="108px" height="108px" viewBox="0 0 108 108" overflow="visible" enable-background="new 0 0 108 108"
	 xml:space="preserve">
<defs>
</defs>
<line fill="none" stroke="#E6D2CC" stroke-width="6" stroke-miterlimit="10" x1="54" y1="15" x2="97" y2="15"/>
<line fill="none" stroke="#E6D2CC" stroke-width="6" stroke-miterlimit="10" x1="71" y1="27" x2="97" y2="27"/>
<line fill="none" stroke="#E6D2CC" stroke-width="6" stroke-miterlimit="10" x1="71" y1="39" x2="97" y2="39"/>
<line fill="none" stroke="#E6D2CC" stroke-width="6" stroke-miterlimit="10" x1="71" y1="51" x2="97" y2="51"/>
<line fill="none" stroke="#E6D2CC" stroke-width="6" stroke-miterlimit="10" x1="71" y1="63" x2="97" y2="63"/>
<path fill="none" stroke="#E6D2CC" stroke-width="6" stroke-miterlimit="10" d="M101,3H49c-2.209,0-4,1.842-4,4.114V33h14
	c2.209,0,4,1.842,4,4.114V75h38c2.209,0,4-1.842,4-4.115V7.114C105,4.842,103.209,3,101,3z"/>
<path fill="none" stroke="#E6D2CC" stroke-width="6" stroke-miterlimit="10" d="M45,33H7c-2.209,0-4,1.842-4,4.114v63.771
	C3,103.158,4.791,105,7,105h52c2.209,0,4-1.842,4-4.115V75"/>
<path fill="none" stroke="#E6D2CC" stroke-width="6" stroke-miterlimit="10" d="M63,75V37.114C63,34.842,61.209,33,59,33H45"/>
<line fill="none" stroke="#E6D2CC" stroke-width="6" stroke-miterlimit="10" x1="12" y1="45" x2="47" y2="45"/>
<line fill="none" stroke="#E6D2CC" stroke-width="6" stroke-miterlimit="10" x1="12" y1="57" x2="40" y2="57"/>
<line fill="none" stroke="#E6D2CC" stroke-width="6" stroke-miterlimit="10" x1="12" y1="69" x2="53" y2="69"/>
<line fill="none" stroke="#E6D2CC" stroke-width="6" stroke-miterlimit="10" x1="12" y1="81" x2="26" y2="81"/>
<line fill="none" stroke="#E6D2CC" stroke-width="6" stroke-miterlimit="10" x1="12" y1="93" x2="47" y2="93"/>
<line fill="none" stroke="#E6D2CC" stroke-width="10" stroke-miterlimit="10" x1="73" y1="102" x2="91" y2="84"/>
<line fill="none" stroke="#E6D2CC" stroke-width="10" stroke-miterlimit="10" x1="84" y1="84" x2="102" y2="102"/>
<line fill="none" stroke="#E6D2CC" stroke-width="10" stroke-miterlimit="10" x1="35" y1="6" x2="17" y2="24"/>
<line fill="none" stroke="#E6D2CC" stroke-width="10" stroke-miterlimit="10" x1="24" y1="24" x2="6" y2="6"/>
</svg>
