<svg xmlns="http://www.w3.org/2000/svg" viewBox="0 0 237 36"><defs><style>.a{fill:none;stroke:#000;stroke-miterlimit:10;stroke-width:4.5px;}</style></defs><title>logo-black</title><circle class="a" cx="10.8" cy="25.3" r="8"/><circle class="a" cx="26.7" cy="25.3" r="8"/><polyline class="a" points="7.4 2.5 16.5 11.6 16.5 2.5 30.1 2.5"/><path d="M53.5,5.6c6.4,0,9.6,4.2,9.6,12.7,0,4.3-.9,7.7-2.6,10s-4.3,3.6-7.7,3.6c-6.5,0-9.7-4.2-9.7-12.6,0-4.4.9-7.7,2.6-10.1S50,5.6,53.5,5.6Zm-.7,4.6a2.5,2.5,0,0,0-2.7,1.9,26.6,26.6,0,0,0-.6,6.7,20.7,20.7,0,0,0,.7,6.6,2.9,2.9,0,0,0,3,1.9,2.7,2.7,0,0,0,2.9-1.9c.5-1.3.7-3.6.7-6.9s-.4-6-1-6.9A3.4,3.4,0,0,0,52.8,10.2Z"/><path d="M66.4,14.6a7.7,7.7,0,0,1,6.3-2.7q4,0,5.4,1.8c.9,1.2,1.3,3.1,1.3,5.6l-5.2.2a7.8,7.8,0,0,0-.3-2.7,1.8,1.8,0,0,0-1.6-.6,1.9,1.9,0,0,0-1.8,1.3,14.6,14.6,0,0,0-.5,4.4,8,8,0,0,0,.9,4.4,3.1,3.1,0,0,0,2.8,1.3,13.3,13.3,0,0,0,4.8-1l1.2,3.2a12.3,12.3,0,0,1-7.3,2.1c-5.5,0-8.3-3.2-8.3-9.7A11.9,11.9,0,0,1,66.4,14.6Z"/><path d="M87.8,12.2h4.9l-.7,4H87.8v8.2a5.4,5.4,0,0,0,.5,2.6,2.5,2.5,0,0,0,1.8.7,8.2,8.2,0,0,0,2-.4l1,3.2a6.5,6.5,0,0,1-2.2,1,9.9,9.9,0,0,1-2.8.4c-2.4,0-3.9-.6-4.7-1.8a12.3,12.3,0,0,1-1.1-5.9v-8H79.6l.5-3.6,2.3-.4.3-3.6,5.1-1.5Z"/><path d="M102.5,18.4a2.4,2.4,0,0,0-.6-1.8,2.7,2.7,0,0,0-1.9-.5,17,17,0,0,0-4.7,1l-1.6-3.3a14.2,14.2,0,0,1,3.4-1.3,16.5,16.5,0,0,1,4.3-.6,8.9,8.9,0,0,1,3.5.5,3.4,3.4,0,0,1,2.1,1.5,5.2,5.2,0,0,1,.8,1.9,16.9,16.9,0,0,1,.2,2.5v6.8a6.2,6.2,0,0,0,.3,2.1,3.5,3.5,0,0,0,1.1,1.8l-3.1,2.9a4.2,4.2,0,0,1-1.6-1.2,6,6,0,0,1-1.1-1.4h-.2a6.5,6.5,0,0,1-5.3,2.6c-3.4,0-5.2-1.8-5.2-5.3a5.5,5.5,0,0,1,1.7-4.3,9.7,9.7,0,0,1,4.7-1.9l3.2-.6ZM98.2,26a1.6,1.6,0,0,0,1.8,1.8,3.4,3.4,0,0,0,2.5-1.1V23.4a12.1,12.1,0,0,0-3.3.8A1.9,1.9,0,0,0,98.2,26Z"/><path d="M119.9,12l5.1.6-4.8,18.9h-6.4l-5-18.9,5.3-.6L117,26.6h.2Z"/><path d="M134,11.9c2.4,0,4.2.6,5.3,2s1.5,2.8,1.7,5.4a35.7,35.7,0,0,1,.2,3.7l-2.6.4h-7.4a4.9,4.9,0,0,0,.8,3.2c.5.7,1.4,1,2.8,1a14.2,14.2,0,0,0,4.9-1l1.1,3.4a14,14,0,0,1-7.1,1.9q-8.4,0-8.4-9.9c0-3.1.7-5.6,2.2-7.4S131.1,11.9,134,11.9Zm1.2,5.1c-.2-.6-.7-.8-1.6-.8a2,2,0,0,0-1.8.9,7.7,7.7,0,0,0-.6,2.7h4.4A6.3,6.3,0,0,0,135.2,17Z"/><path d="M155.7,5.6c6.4,0,9.6,4.2,9.6,12.7,0,4.3-.9,7.7-2.6,10s-4.3,3.6-7.7,3.6c-6.5,0-9.7-4.2-9.7-12.6,0-4.4.9-7.7,2.6-10.1S152.2,5.6,155.7,5.6Zm-.7,4.6a2.5,2.5,0,0,0-2.7,1.9,26.6,26.6,0,0,0-.6,6.7,20.7,20.7,0,0,0,.7,6.6,2.9,2.9,0,0,0,3,1.9,2.7,2.7,0,0,0,2.9-1.9c.5-1.3.7-3.6.7-6.9s-.4-6-1-6.9A3.4,3.4,0,0,0,155,10.2Z"/><path d="M177,11.9a5,5,0,0,1,4.1,1.6,6,6,0,0,1,1.5,4.4V31.5h-5.5v-13a2,2,0,0,0-2.3-2.3,2.8,2.8,0,0,0-2.2,1V31.5h-5.5V17.9l-.4-5.3,4.3-.5.5,2.1h.1A6.8,6.8,0,0,1,177,11.9Z"/><path d="M190.7,24.9a14.2,14.2,0,0,0,.2,2.6,7.5,7.5,0,0,0,1.2,2l-4,2.9a13,13,0,0,1-2.3-3.2,10.6,10.6,0,0,1-.7-4.2V4.9l5.6-.6Z"/><path d="M196.1,11q-3,0-3-3.3a2.9,2.9,0,0,1,.8-2.2,3.4,3.4,0,0,1,2.5-.8c2,0,3,1.1,3,3.4a3.2,3.2,0,0,1-.8,2.1A3.6,3.6,0,0,1,196.1,11ZM199,31.5h-5.5V12.6l5.5-.5Z"/><path d="M211.6,11.9a5.4,5.4,0,0,1,4.2,1.6,6,6,0,0,1,1.5,4.4V31.5h-5.6v-13c0-1.6-.7-2.3-2.2-2.3a3.2,3.2,0,0,0-2.3,1V31.5h-5.5V17.9l-.4-5.3,4.3-.5.5,2.1h.2A6.7,6.7,0,0,1,211.6,11.9Z"/><path d="M227.9,11.9c2.4,0,4.2.6,5.3,2s1.5,2.8,1.7,5.4c.1,1,.1,2.2.1,3.7l-2.5.4h-7.4a4.9,4.9,0,0,0,.8,3.2c.5.7,1.4,1,2.8,1a14.7,14.7,0,0,0,4.9-1l1.1,3.4a14,14,0,0,1-7.1,1.9q-8.4,0-8.4-9.9c0-3.1.7-5.6,2.2-7.4S225,11.9,227.9,11.9Zm1.2,5.1c-.2-.6-.7-.8-1.6-.8a2,2,0,0,0-1.8.9,7.7,7.7,0,0,0-.6,2.7h4.4A6.3,6.3,0,0,0,229.1,17Z"/></svg>