<?xml version="1.0" standalone="no"?>
<!DOCTYPE svg PUBLIC "-//W3C//DTD SVG 20010904//EN"
 "http://www.w3.org/TR/2001/REC-SVG-20010904/DTD/svg10.dtd">
<svg version="1.0" xmlns="http://www.w3.org/2000/svg"
 width="700.000000pt" height="700.000000pt" viewBox="0 0 700.000000 700.000000"
 preserveAspectRatio="xMidYMid meet">
<metadata>
Created by potrace 1.11, written by Peter Selinger 2001-2013
</metadata>
<g transform="translate(0.000000,700.000000) scale(0.100000,-0.100000)"
fill="#000000" stroke="none">
<path d="M2677 6583 c-4 -3 -7 -214 -7 -467 l0 -461 -403 403 -402 402 -310
-310 -310 -310 1153 -1153 1152 -1152 0 1088 0 1087 945 0 945 0 0 440 0 440
-1378 0 c-758 0 -1382 -3 -1385 -7z"/>
<path d="M2005 4054 c-16 -2 -70 -9 -120 -15 -362 -43 -735 -229 -1011 -504
-281 -280 -458 -631 -516 -1020 -18 -124 -15 -415 5 -536 89 -526 386 -970
835 -1248 201 -125 422 -207 667 -247 135 -22 416 -22 548 0 389 65 724 235
995 506 l92 93 93 -93 c270 -271 605 -441 994 -506 132 -22 413 -22 548 0 779
128 1370 716 1502 1495 20 121 23 412 5 536 -106 720 -635 1308 -1337 1488
-153 39 -264 52 -450 51 -182 0 -272 -11 -430 -50 -321 -80 -594 -235 -831
-470 l-94 -93 -94 93 c-271 269 -603 439 -978 501 -91 15 -364 28 -423 19z
m319 -889 c338 -72 600 -315 703 -652 24 -80 26 -103 27 -248 0 -188 -17 -264
-89 -410 -117 -237 -339 -418 -595 -487 -122 -33 -348 -33 -465 0 -313 88
-550 319 -650 632 -37 115 -46 315 -21 440 73 357 358 648 711 723 91 20 291
21 379 2z m2724 -1 c357 -73 644 -363 718 -724 25 -125 16 -325 -21 -440 -80
-252 -244 -448 -470 -560 -156 -77 -231 -94 -410 -95 -126 0 -164 4 -235 23
-256 69 -478 251 -595 487 -72 146 -89 222 -89 410 1 145 3 168 27 248 91 296
291 509 581 618 134 50 344 64 494 33z"/>
</g>
</svg>
