<svg xmlns="http://www.w3.org/2000/svg" viewBox="0 0 200 88"><defs><style>.a{fill:#bd0000;}.b{fill:#636;}.c{fill:#fff;fill-opacity:0;stroke:#663266;stroke-width:2.47px;}</style></defs><title>agpl-logo</title><path class="a" d="M115.06,51.4h0a1.48,1.48,0,0,0-1,.36,1.67,1.67,0,0,0-.5.67h0a1.87,1.87,0,0,1,.5-.67A1.47,1.47,0,0,1,115.06,51.4Z"/><path class="a" d="M115.07,51.4h0a.83.83,0,0,1,.78.4,1,1,0,0,1,.11.5s0,.09,0,.13h0s0-.09,0-.13a.91.91,0,0,0-.11-.5A.82.82,0,0,0,115.07,51.4Z"/><path class="b" d="M4,82.89H6.84l1.28-5.33h4.62l.59-2.29H8.69l.77-3.43H14.4L15,69.17H7.2Z"/><path class="b" d="M16.75,82.89l.85-3.58c.45-1.94,1.4-3.66,3.2-3.66a2.27,2.27,0,0,1,.43.1l.7-2.75-.54,0a3.81,3.81,0,0,0-3.17,2.27h-.08c.12-.65.21-1.27.28-1.88H16c-.14.79-.36,2.34-.69,3.74l-1.39,5.78Z"/><path class="b" d="M29.39,80.32a6.23,6.23,0,0,1-2.73.29,3,3,0,0,1-1.82-.43,2.2,2.2,0,0,1-.24-1.1c3.86.1,6.29-.79,6.41-3.23C31.1,74,29.76,73,27.8,73c-3.49,0-5.77,3.08-5.92,6-.13,2.59,1.21,3.86,4,3.86a13.41,13.41,0,0,0,3.63-.47Zm-1-4.47c-.05.91-1.17,1-3.37,1a2.32,2.32,0,0,1,2.37-1.53C28,75.27,28.37,75.52,28.35,75.85Z"/><path class="b" d="M39.5,80.32a6.3,6.3,0,0,1-2.74.29A3,3,0,0,1,35,80.18a2.11,2.11,0,0,1-.25-1.1c3.86.1,6.29-.79,6.42-3.23C41.21,74,39.87,73,37.91,73c-3.49,0-5.78,3.08-5.93,6-.12,2.59,1.22,3.86,4,3.86a13.31,13.31,0,0,0,3.63-.47Zm-1-4.47c-.05.91-1.17,1-3.38,1a2.32,2.32,0,0,1,2.37-1.53C38.1,75.27,38.48,75.52,38.46,75.85Z"/><path class="b" d="M54.2,82.89a24.64,24.64,0,0,1,.62-4.35L56,73.37A10.66,10.66,0,0,0,52.89,73a7,7,0,0,0-7.25,6.79c-.1,2.07,1,3.12,2.75,3.12a3.9,3.9,0,0,0,3.38-2.18h0c-.08.79-.17,1.55-.22,2.18Zm-2-5.44c-.56,2.42-1.69,3.16-2.54,3.16s-1.13-.56-1.08-1.38c.09-1.84,1.54-4,3.38-4a2.7,2.7,0,0,0,.75-.11Z"/><path class="b" d="M56.07,82.44a5.66,5.66,0,0,0,2.9.45c2.56,0,4.5-1.1,4.61-3.16.07-1.37-1-2.18-2-2.73-.75-.36-1.12-.7-1.1-1.11s.53-.62,1.28-.62a9.83,9.83,0,0,1,1.92.18l.77-2.07A5.43,5.43,0,0,0,62,73c-2.49,0-4.31,1.32-4.42,3.32a2.93,2.93,0,0,0,1.91,2.63c.86.44,1.16.78,1.14,1.27s-.46.41-1.25.41a18.28,18.28,0,0,1-2.49-.21Z"/><path class="b" d="M71.27,82.89l2.31-9.52H70.75l-2.32,9.52Zm1.32-10.67a2,2,0,0,0,1.89-2.17c0-.93-.56-1.26-1.45-1.26a1.72,1.72,0,0,0-1.82,1.5C71.17,71.2,71.77,72.22,72.59,72.22Z"/><path class="b" d="M76.72,82.89l1-4.29c.52-2.18,1.64-2.95,2.57-2.95.73,0,.94.31.91.77a7.73,7.73,0,0,1-.15,1.09l-1.28,5.38h2.84L84,77.25a13,13,0,0,0,.24-1.66c.08-1.72-.77-2.34-2.35-2.34a4.29,4.29,0,0,0-3.47,1.86h0l.26-1.74H76.1c-.16.81-.37,1.8-.67,2.95l-1.55,6.57Z"/><path class="b" d="M89,82.89H91.8l1.28-5.33h4.61l.6-2.29H93.65l.77-3.43h4.93l.6-2.67h-7.8Z"/><path class="b" d="M101.7,82.89l.86-3.58c.45-1.94,1.4-3.66,3.19-3.66a2.39,2.39,0,0,1,.44.1l.69-2.75-.53,0a3.78,3.78,0,0,0-3.17,2.27h-.08c.11-.65.2-1.27.28-1.88h-2.45c-.14.79-.36,2.34-.69,3.74l-1.4,5.78Z"/><path class="b" d="M114.35,80.32a6.3,6.3,0,0,1-2.74.29,3,3,0,0,1-1.82-.43,2.31,2.31,0,0,1-.24-1.1c3.86.1,6.3-.79,6.42-3.23.09-1.84-1.26-2.87-3.21-2.87-3.49,0-5.78,3.08-5.93,6-.13,2.59,1.22,3.86,4,3.86a13.36,13.36,0,0,0,3.63-.47Zm-1-4.47c0,.91-1.16,1-3.37,1a2.32,2.32,0,0,1,2.37-1.53C113,75.27,113.33,75.52,113.3,75.85Z"/><path class="b" d="M124.45,80.32a6.27,6.27,0,0,1-2.73.29,3,3,0,0,1-1.82-.43,2.32,2.32,0,0,1-.25-1.1c3.87.1,6.3-.79,6.42-3.23.09-1.84-1.25-2.87-3.21-2.87-3.49,0-5.78,3.08-5.92,6-.13,2.59,1.21,3.86,4,3.86a13.31,13.31,0,0,0,3.63-.47Zm-1-4.47c0,.91-1.17,1-3.38,1a2.33,2.33,0,0,1,2.37-1.53C123.06,75.27,123.43,75.52,123.41,75.85Z"/><path class="b" d="M135.74,68.79l-1.07,4.33a3.53,3.53,0,0,0-1.29-.14,6.64,6.64,0,0,0-6.4,6.51c-.12,2.39,1.15,3.4,2.79,3.4A3.89,3.89,0,0,0,133,81.07h0l-.22,1.82h2.59a34.08,34.08,0,0,1,.64-3.74l2.47-10.36Zm-2.22,9.31c-.45,1.88-1.5,2.51-2.33,2.51S129.9,80,130,79c.1-1.9,1.4-3.74,3.09-3.74a2.76,2.76,0,0,1,1.11.18Z"/><path class="b" d="M142.23,82.89A6,6,0,0,0,148.28,77a3.6,3.6,0,0,0-3.9-4,6.2,6.2,0,0,0-6.08,6.15C138.18,81.57,139.76,82.89,142.23,82.89Zm.44-2.28a1.33,1.33,0,0,1-1.44-1.54c.07-1.54,1-3.8,2.66-3.8,1.13,0,1.47.87,1.43,1.72C145.23,78.66,144.21,80.61,142.67,80.61Z"/><path class="b" d="M151.81,82.89l1-4.35c.43-1.94,1.5-3.27,2.47-3.27.69,0,.88.51.85,1.17a8,8,0,0,1-.18,1.11l-1.27,5.34h2.74l1-4.37c.47-2,1.49-3.25,2.43-3.25.66,0,.93.47.9,1.13a6.17,6.17,0,0,1-.2,1.19l-1.24,5.3h2.77l1.33-5.64a15.36,15.36,0,0,0,.24-1.7c.08-1.68-.74-2.57-2.22-2.57a4.32,4.32,0,0,0-3.43,1.78c0-.87-.65-1.78-2.19-1.78a4.16,4.16,0,0,0-3.39,1.84h0l.26-1.45h-2.45c-.16.81-.35,1.8-.65,2.95l-1.53,6.57Z"/><path class="c" d="M124.79,57.32c.15.4.31.8.47,1.19a8.67,8.67,0,0,0,.88,1.5c1.86,2.53,5,3.92,8.94,4.27h4.26a39.53,39.53,0,0,0,4.22-.59,53.16,53.16,0,0,0,8-2.27A68,68,0,0,0,158,58.69a90.83,90.83,0,0,0,14.56-8.81c1.6-1.17,3.13-2.38,4.6-3.6S179.8,44,181,42.87a37.16,37.16,0,0,0,7.52-9.65c1.53-3.09,1.84-5.72.58-7.38a4.92,4.92,0,0,0-3.72-1.7c7.48-5.61,11.84-12.41,10.27-16.7a5,5,0,0,0-3.15-3A9.16,9.16,0,0,0,190.2,4h-2.31a35,35,0,0,0-11.84,3.32"/><path class="b" d="M20.64,5.49,7.39,63.32H135.47c-3.8-.33-6.8-1.67-8.59-4.1a8.6,8.6,0,0,1-.84-1.44c-.16-.37-.3-.75-.44-1.13a11.23,11.23,0,0,1-.47-4c.19-4,2.07-8.74,5.31-13.72a73.89,73.89,0,0,1,14.64-16c1.38-1.15,2.82-2.29,4.32-3.39,1.86-1.37,3.73-2.62,5.6-3.8a71.09,71.09,0,0,1,19.86-8.92A77,77,0,0,0,156,16.37l-.69.48a85.08,85.08,0,0,0-9.67,7.79c-9.12,8.58-13.94,17.46-11.75,22.67a6.85,6.85,0,0,0,.56,1c2.35,3.46,8.19,4.06,15.59,2.2l1.52-.42a59.72,59.72,0,0,0,7.46-2.74c.62-.27,1.24-.55,1.88-.85l.19-.1c8.15-4,14.42-8.71,15.78-11.51a1.78,1.78,0,0,0,.16-1.54c-1-2-7.74-.64-15.94,2.92-.66.28-1.33.58-2,.89.55-.51,1.12-1,1.7-1.52.93-.81,1.89-1.59,2.92-2.36A57.29,57.29,0,0,1,168.56,30c7.48-5.64,11.26-11,10.47-12.95a1.4,1.4,0,0,0-1-.79c-1.55-.5-4.4.1-7.85,1.51a58.74,58.74,0,0,0-9.45,5.06l-.45.3-.08.05-1.6,1.06.92-1.68a28.72,28.72,0,0,1,6.33-7.5,45.33,45.33,0,0,1,6.83-4.89c.94-.55,1.88-1.06,2.82-1.52s1.93-.89,2.87-1.26c2.73-1.08,5.74-2.45,8-2.63-.2,0-6.79.71-6.79.71h-159Zm103.24.08c-.37,5.7.73,14.05,3.24,23.32.45,1.65.93,3.33,1.46,5,.34,1,.68,2.08,1,3.09-.21.3-.41.6-.61.91-3.13,4.79-5,9.32-5.42,13.26a82.52,82.52,0,0,1-2.88-14.42c-.16-1.47-.28-2.93-.37-4.37C119.71,21.93,121.08,12.45,123.88,5.57ZM61.45,13h14.3a5,5,0,0,1,2.8.68,1.6,1.6,0,0,1,.75,1.76L77.62,23h-5l1.63-7.38H61.85L57.36,35.93l-1.62,7.35H68.16v-.05L70.66,32H64.83l.56-2.54h10.8l-3.1,14a1.9,1.9,0,0,1-.21.56,3.16,3.16,0,0,1-1.32,1.19,6.63,6.63,0,0,1-3.1.68H54.38a4.92,4.92,0,0,1-2.79-.68,1.57,1.57,0,0,1-.75-1.75l6.2-28a2.71,2.71,0,0,1,1.52-1.76l.1,0A6.52,6.52,0,0,1,61.45,13Zm22.07,0h17.74a4.92,4.92,0,0,1,2.78.68,1.58,1.58,0,0,1,.76,1.76l-3.31,15A2.66,2.66,0,0,1,100,32.14a6.5,6.5,0,0,1-3.09.69H84L81.5,44.06l-.41,1.85H76.24l.37-1.67ZM108,13h4.86l-5.5,24.86-1.21,5.43H117.8c.12.89.26,1.76.41,2.63H100.73l1.38-6.24ZM87.8,15.64,84.57,30.19H96.68L99.9,15.64ZM62,50h.15a3.38,3.38,0,0,1,1.45.29,1.7,1.7,0,0,1,.89.88,2.08,2.08,0,0,1,.12,1.27l0,.18h-1.4l0-.17a1.11,1.11,0,0,0-.14-.76L63,51.6l-.12-.09a1.67,1.67,0,0,0-.9-.2,2.12,2.12,0,0,0-1.18.28,1,1,0,0,0-.47.62.45.45,0,0,0,.09.44h0a3.27,3.27,0,0,0,1.18.42,7.12,7.12,0,0,1,1.54.49,1.76,1.76,0,0,1,.88.84,1.87,1.87,0,0,1,.1,1.18,2.78,2.78,0,0,1-.63,1.18,3.37,3.37,0,0,1-1.21.86,4.2,4.2,0,0,1-1.55.31,3.93,3.93,0,0,1-1.66-.31,2,2,0,0,1-1-1A2.47,2.47,0,0,1,58,55.2L58,55h1.37v.17a1.48,1.48,0,0,0,.08.76.92.92,0,0,0,.48.45,2.12,2.12,0,0,0,1,.19,2.57,2.57,0,0,0,.9-.15,1.73,1.73,0,0,0,.64-.38,1.13,1.13,0,0,0,.27-.52.51.51,0,0,0,0-.41.84.84,0,0,0-.44-.32l-1.16-.35A4.93,4.93,0,0,1,59.7,54a1.65,1.65,0,0,1-.73-.78,1.73,1.73,0,0,1-.06-1A2.57,2.57,0,0,1,59.5,51a2.91,2.91,0,0,1,1.16-.8A4.48,4.48,0,0,1,62,50Zm12.51,0h.22l.86.1.29,0-.42,1.06-.08.17-.66-.06a.74.74,0,0,0-.43.1l0,0,0,.05a1.37,1.37,0,0,0-.18.45l0,.19h1l-.26,1.18h-1c-.08.34-1,4.54-1,4.54H71.33s.9-4,1-4.54h-.8l.26-1.18h.79c0-.16.09-.37.09-.37a2.87,2.87,0,0,1,.29-.84,1.69,1.69,0,0,1,.65-.65A2.12,2.12,0,0,1,74.48,50Zm3.3.06s-.36,1.63-.46,2h.9L78,53.28h-.9c-.07.33-.64,2.87-.64,2.87s0,.3,0,.39h0v0h.16l.65,0-.07,1.06v.19l-.94.11a1.49,1.49,0,0,1-.84-.19.86.86,0,0,1-.39-.55s0-.1,0-.19a4.94,4.94,0,0,1,.14-1s.5-2.24.61-2.71H75l.26-1.18h.65c.06-.27.28-1.21.28-1.21l1.1-.59Zm-43.88,0h5.35L39,51.45H35c-.06.27-.31,1.36-.39,1.76H38l-.3,1.33H34.35c-.07.33-.73,3.28-.73,3.28H32.18ZM41.08,52h.16a1.62,1.62,0,0,1,1,.33l.19.13-.74,1.21-.2-.14a.85.85,0,0,0-.48-.15.8.8,0,0,0-.42.15,1,1,0,0,0-.35.39,3.68,3.68,0,0,0-.36,1l-.64,2.93H37.83L39.1,52.1h1.29s0,.17-.06.24a1.77,1.77,0,0,1,.17-.14A1.63,1.63,0,0,1,41.08,52Zm4.09,0h.25a2,2,0,0,1,1.75.81,2.23,2.23,0,0,1,.37,1.29,4,4,0,0,1-.11.92l-.1.41H43.45a2.12,2.12,0,0,0,0,.24,1.12,1.12,0,0,0,.19.7,1.14,1.14,0,0,0,.22.22,1,1,0,0,0,.58.15,1.35,1.35,0,0,0,.76-.22,1.88,1.88,0,0,0,.62-.68h1.48l-.13.28A3.26,3.26,0,0,1,46,57.45a3.2,3.2,0,0,1-1.72.49,2.16,2.16,0,0,1-1.86-.81A2.58,2.58,0,0,1,42.14,55a3.9,3.9,0,0,1,1.21-2.19A3.07,3.07,0,0,1,45.17,52Zm6.21,0h.25a2.05,2.05,0,0,1,1.75.81,2.23,2.23,0,0,1,.37,1.29,4.25,4.25,0,0,1-.11.9l-.11.43H49.65c0,.06,0,.1,0,.16v.07h0c0,.06,0,.11,0,.17a1,1,0,0,0,.18.53l.06.09a1,1,0,0,0,.74.28,1.35,1.35,0,0,0,.76-.22,2.08,2.08,0,0,0,.62-.68H53.5l-.15.28a3.11,3.11,0,0,1-2.89,1.83,2,2,0,0,1-2.23-2.11c0-.08,0-.17,0-.25a5,5,0,0,1,.1-.62,4,4,0,0,1,1.2-2.19A3.1,3.1,0,0,1,51.38,52Zm16.89,0h.25a2.1,2.1,0,0,1,1.8.8,2.55,2.55,0,0,1,.29,2.14,4.36,4.36,0,0,1-.69,1.68,3.17,3.17,0,0,1-1.17,1,3.22,3.22,0,0,1-1.44.35,2.1,2.1,0,0,1-1.8-.81,2.15,2.15,0,0,1-.38-1.3,4,4,0,0,1,.11-.92,3.74,3.74,0,0,1,1.38-2.3A3.28,3.28,0,0,1,68.27,52ZM89.2,52h.29a3.07,3.07,0,0,1,1.15.17,1.24,1.24,0,0,1,.64.5,1.34,1.34,0,0,1,.18.73l-.14.87-.27,1.17A13.16,13.16,0,0,0,90.77,57a1.44,1.44,0,0,0,.06.55l.09.31h-1.4l-.06-.18a1.37,1.37,0,0,1,0-.29,4.45,4.45,0,0,1-.78.4,3.38,3.38,0,0,1-1.09.19,1.81,1.81,0,0,1-1.42-.5,1.3,1.3,0,0,1-.32-.89,1.87,1.87,0,0,1,0-.4,2.17,2.17,0,0,1,.37-.8,2.34,2.34,0,0,1,.65-.57,2.89,2.89,0,0,1,.77-.31l.85-.14A8.7,8.7,0,0,0,90,54.05L90,54a.79.79,0,0,0,0-.52l0,0,0-.05a1.24,1.24,0,0,0-.72-.16,1.55,1.55,0,0,0-.83.18,1.44,1.44,0,0,0-.51.64H86.43l.14-.29a3,3,0,0,1,.63-1,2.65,2.65,0,0,1,1-.59A4.33,4.33,0,0,1,89.2,52Zm6,0h.17a1.65,1.65,0,0,1,1,.33l.18.13-.74,1.21-.2-.14a.84.84,0,0,0-.47-.15.83.83,0,0,0-.43.15,1,1,0,0,0-.34.39,3.68,3.68,0,0,0-.36,1l-.66,2.93H92l1.28-5.72h1.28l0,.24a1.77,1.77,0,0,1,.17-.14A1.6,1.6,0,0,1,95.23,52Zm4.09,0h.25a2,2,0,0,1,1.75.81,2.23,2.23,0,0,1,.37,1.29,4.65,4.65,0,0,1-.12.92l-.1.41H97.59a2.12,2.12,0,0,0,0,.24,1.12,1.12,0,0,0,.19.7l.07.09,0,0a1,1,0,0,0,.69.24,1.35,1.35,0,0,0,.76-.22,2.08,2.08,0,0,0,.62-.68h1.49l-.14.28a3.34,3.34,0,0,1-1.17,1.34,3.24,3.24,0,0,1-1.73.49,2.12,2.12,0,0,1-1.84-.81A2.61,2.61,0,0,1,96.28,55a4,4,0,0,1,1.2-2.19A3.1,3.1,0,0,1,99.32,52Zm-20.85.11h1.41s.18,3.39.18,3.44c.06-.12.1-.22.11-.24l1.56-3.2H83s.12,3.35.12,3.37l1.77-3.37h1.41l-3.1,5.72H82s-.13-3.1-.13-3.28l-1.6,3.28H78.92ZM45.2,53.18a1.6,1.6,0,0,0-.91.36,1.85,1.85,0,0,0-.49.68h2.35s0-.09,0-.13a1,1,0,0,0-.11-.5.81.81,0,0,0-.78-.41Zm6.2,0a1.54,1.54,0,0,0-.9.36,1.75,1.75,0,0,0-.49.68h2.34a.57.57,0,0,0,0-.13,1,1,0,0,0-.1-.5l-.12-.16a.91.91,0,0,0-.67-.25Zm48,0a1.55,1.55,0,0,0-.94.36,1.85,1.85,0,0,0-.49.68h2.34s0-.09,0-.13a1,1,0,0,0-.11-.5.87.87,0,0,0-.79-.41Zm-31.2,0a1.59,1.59,0,0,0-.88.43,2.47,2.47,0,0,0-.7,1.38,3,3,0,0,0-.09.68,1.19,1.19,0,0,0,.16.64l.09.12a.93.93,0,0,0,.71.27,1.47,1.47,0,0,0,1-.44,2.61,2.61,0,0,0,.71-1.4,1.73,1.73,0,0,0-.07-1.29.87.87,0,0,0-.79-.39Zm21.52,2.08a9.31,9.31,0,0,1-1.17.23,3.51,3.51,0,0,0-.76.17.8.8,0,0,0-.32.22.74.74,0,0,0-.17.31.62.62,0,0,0,0,.13h0v0s0,0,0,.06v0s0,0,0,0,0,0,0,0l0,.05a.75.75,0,0,0,.56.16,1.9,1.9,0,0,0,.86-.19,1.69,1.69,0,0,0,.63-.55A2.12,2.12,0,0,0,89.71,55.29ZM17,45.74l32-33h5.22l-7.72,33H42.14l2.19-9.49H30.93l-9.1,9.49H17M34.19,32.85h11l2-8.29c.82-3.28,1.6-6,2.36-8.21q-2.27,2.83-6,6.73l-9.35,9.77"/></svg>