<?xml version="1.0" encoding="utf-8"?>
<!-- Generator: Adobe Illustrator 15.1.0, SVG Export Plug-In  -->
<!DOCTYPE svg PUBLIC "-//W3C//DTD SVG 1.1//EN" "http://www.w3.org/Graphics/SVG/1.1/DTD/svg11.dtd" [
	<!ENTITY ns_flows "http://ns.adobe.com/Flows/1.0/">
]>
<svg version="1.1"
	 xmlns="http://www.w3.org/2000/svg" xmlns:xlink="http://www.w3.org/1999/xlink" xmlns:a="http://ns.adobe.com/AdobeSVGViewerExtensions/3.0/"
	 x="0px" y="0px" width="200px" height="40px" viewBox="0 0 200 40" overflow="visible" enable-background="new 0 0 200 40"
	 xml:space="preserve">
<defs>
</defs>
<g>
	<defs>
		<polygon id="SVGID_2_" points="200,0 34,0 54,20 34,40 200,40 		"/>
	</defs>
	<clipPath id="SVGID_3_">
		<use xlink:href="#SVGID_2_"  overflow="visible"/>
	</clipPath>
	<linearGradient id="SVGID_4_" gradientUnits="userSpaceOnUse" x1="99.9995" y1="0" x2="99.9995" y2="40.0005">
		<stop  offset="0" style="stop-color:#D94021"/>
		<stop  offset="1" style="stop-color:#BF381D"/>
	</linearGradient>
	<path clip-path="url(#SVGID_3_)" fill="url(#SVGID_4_)" d="M200,36c0,2.209-1.791,4-4,4H4c-2.209,0-4-1.791-4-4V4
		c0-2.209,1.791-4,4-4h192c2.209,0,4,1.791,4,4V36z"/>
</g>
<g>
	<defs>
		<polygon id="SVGID_1_" points="0,0 35,0 55,20 35,40 0,40 		"/>
	</defs>
	<clipPath id="SVGID_5_">
		<use xlink:href="#SVGID_1_"  overflow="visible"/>
	</clipPath>
	<linearGradient id="SVGID_6_" gradientUnits="userSpaceOnUse" x1="99.9995" y1="0" x2="99.9995" y2="40.0005">
		<stop  offset="0" style="stop-color:#BF381D"/>
		<stop  offset="1" style="stop-color:#A63019"/>
	</linearGradient>
	<path clip-path="url(#SVGID_5_)" fill="url(#SVGID_6_)" d="M200,36c0,2.209-1.791,4-4,4H4c-2.209,0-4-1.791-4-4V4
		c0-2.209,1.791-4,4-4h192c2.209,0,4,1.791,4,4V36z"/>
</g>
<path d="M65.922,22.066c0-0.426-0.126-0.79-0.38-1.09c-0.253-0.3-0.57-0.583-0.95-0.85c-0.38-0.267-0.793-0.54-1.24-0.82
	c-0.447-0.28-0.86-0.607-1.24-0.98c-0.38-0.373-0.697-0.813-0.95-1.32c-0.253-0.506-0.38-1.126-0.38-1.86
	c0-0.68,0.103-1.256,0.31-1.73c0.207-0.473,0.49-0.86,0.85-1.16c0.36-0.3,0.787-0.52,1.28-0.66c0.493-0.14,1.02-0.21,1.58-0.21
	c0.68,0,1.313,0.067,1.9,0.2c0.586,0.133,1.073,0.313,1.46,0.54l-0.78,2.22c-0.227-0.16-0.563-0.307-1.01-0.44s-0.93-0.2-1.45-0.2
	s-0.92,0.107-1.2,0.32c-0.28,0.213-0.42,0.527-0.42,0.94c0,0.374,0.126,0.704,0.38,0.99c0.253,0.287,0.57,0.563,0.95,0.83
	c0.38,0.267,0.793,0.543,1.24,0.83s0.86,0.62,1.24,1c0.38,0.38,0.696,0.827,0.95,1.34s0.38,1.124,0.38,1.831
	c0,0.706-0.103,1.319-0.31,1.84c-0.207,0.52-0.5,0.949-0.88,1.289s-0.837,0.598-1.37,0.771s-1.126,0.26-1.78,0.26
	c-0.827,0-1.55-0.079-2.17-0.239s-1.097-0.34-1.43-0.541l0.82-2.26c0.267,0.16,0.633,0.32,1.1,0.48s0.967,0.24,1.5,0.24
	C65.256,23.627,65.922,23.106,65.922,22.066z"/>
<path d="M69.542,12.847c0-0.4,0.127-0.73,0.38-0.99c0.253-0.26,0.613-0.39,1.08-0.39s0.84,0.127,1.12,0.38
	c0.28,0.253,0.42,0.587,0.42,1s-0.14,0.74-0.42,0.98c-0.28,0.24-0.653,0.36-1.12,0.36s-0.827-0.123-1.08-0.37
	C69.669,13.57,69.542,13.247,69.542,12.847z M69.802,15.667h2.38v10h-2.38V15.667z"/>
<path d="M81.103,25.666c0,1.453-0.333,2.523-1,3.211c-0.667,0.686-1.593,1.029-2.78,1.029c-0.827,0-1.474-0.062-1.94-0.189
	s-0.827-0.264-1.08-0.41l0.5-2.02c0.293,0.119,0.61,0.232,0.95,0.34c0.34,0.105,0.743,0.16,1.21,0.16c0.68,0,1.15-0.184,1.41-0.551
	c0.26-0.367,0.39-0.924,0.39-1.67v-0.54h-0.06c-0.187,0.267-0.437,0.467-0.75,0.601c-0.313,0.133-0.717,0.199-1.21,0.199
	c-1.054,0-1.844-0.396-2.37-1.189c-0.527-0.793-0.79-2.051-0.79-3.77c0-1.854,0.363-3.22,1.09-4.1s1.763-1.32,3.11-1.32
	c0.72,0,1.366,0.057,1.94,0.17c0.573,0.113,1.033,0.25,1.38,0.41V25.666z M77.402,23.787c0.36,0,0.643-0.088,0.85-0.261
	c0.207-0.173,0.363-0.42,0.47-0.739v-5c-0.147-0.067-0.31-0.12-0.49-0.16c-0.18-0.04-0.39-0.06-0.63-0.06
	c-0.494,0-0.877,0.24-1.15,0.72c-0.273,0.48-0.41,1.307-0.41,2.48C76.042,22.779,76.496,23.787,77.402,23.787z"/>
<path d="M87.602,25.666v-6.08c0-0.733-0.087-1.247-0.26-1.54c-0.173-0.293-0.467-0.44-0.88-0.44c-0.347,0-0.647,0.107-0.9,0.32
	c-0.253,0.214-0.433,0.48-0.54,0.8v6.939h-2.38v-10h1.9l0.28,1.16h0.06c0.24-0.387,0.566-0.717,0.98-0.99
	c0.413-0.273,0.953-0.41,1.62-0.41c0.4,0,0.756,0.06,1.07,0.18c0.313,0.12,0.577,0.317,0.79,0.59c0.213,0.273,0.373,0.64,0.48,1.1
	c0.106,0.46,0.16,1.03,0.16,1.71v6.66H87.602z"/>
<path d="M95.342,12.847c0-0.4,0.127-0.73,0.38-0.99c0.253-0.26,0.613-0.39,1.08-0.39s0.84,0.127,1.12,0.38
	c0.28,0.253,0.42,0.587,0.42,1s-0.14,0.74-0.42,0.98c-0.28,0.24-0.653,0.36-1.12,0.36s-0.827-0.123-1.08-0.37
	C95.469,13.57,95.342,13.247,95.342,12.847z M95.602,15.667h2.38v10h-2.38V15.667z"/>
<path d="M104.701,25.666v-6.08c0-0.733-0.086-1.247-0.26-1.54c-0.173-0.293-0.467-0.44-0.879-0.44c-0.348,0-0.647,0.107-0.9,0.32
	c-0.254,0.214-0.434,0.48-0.54,0.8v6.939h-2.38v-10h1.9l0.28,1.16h0.061c0.239-0.387,0.566-0.717,0.979-0.99
	c0.413-0.273,0.953-0.41,1.62-0.41c0.4,0,0.756,0.06,1.07,0.18c0.312,0.12,0.576,0.317,0.789,0.59c0.213,0.273,0.373,0.64,0.48,1.1
	c0.106,0.46,0.16,1.03,0.16,1.71v6.66H104.701z"/>
<path d="M118.441,15.667l1.4,5.12l0.24,1.66h0.08l0.199-1.68l0.94-5.1h2.16l-2.46,10.1h-1.88l-1.5-5.58l-0.16-1.28h-0.12
	l-0.141,1.32l-1.439,5.54h-1.939l-2.561-10.1h2.58l1.08,5.02l0.18,1.78h0.08l0.26-1.8l1.221-5H118.441z"/>
<path d="M123.961,12.847c0-0.4,0.127-0.73,0.381-0.99c0.253-0.26,0.613-0.39,1.08-0.39s0.84,0.127,1.119,0.38
	c0.281,0.253,0.42,0.587,0.42,1s-0.139,0.74-0.42,0.98c-0.279,0.24-0.652,0.36-1.119,0.36s-0.827-0.123-1.08-0.37
	C124.088,13.57,123.961,13.247,123.961,12.847z M124.222,15.667h2.38v10h-2.38V15.667z"/>
<path d="M127.582,15.667h1.1v-1.88l2.38-0.74v2.62h1.94v2.12h-1.94v4.36c0,0.573,0.057,0.98,0.17,1.221
	c0.113,0.239,0.316,0.359,0.61,0.359c0.199,0,0.38-0.02,0.539-0.061c0.16-0.039,0.334-0.1,0.521-0.18l0.3,1.9
	c-0.293,0.146-0.633,0.27-1.02,0.369c-0.387,0.101-0.793,0.15-1.221,0.15c-0.76,0-1.33-0.22-1.709-0.66
	c-0.381-0.439-0.57-1.18-0.57-2.22v-5.24h-1.1V15.667z"/>
<path d="M138.981,25.666v-6.04c0-0.72-0.083-1.24-0.25-1.56c-0.167-0.32-0.47-0.48-0.909-0.48c-0.32,0-0.614,0.113-0.881,0.34
	c-0.267,0.227-0.447,0.514-0.539,0.86v6.879h-2.381v-14h2.381v4.9h0.059c0.268-0.347,0.591-0.626,0.971-0.84s0.856-0.32,1.43-0.32
	c0.414,0,0.773,0.06,1.08,0.18s0.566,0.32,0.78,0.6c0.213,0.28,0.373,0.657,0.479,1.13c0.107,0.474,0.16,1.07,0.16,1.79v6.56
	H138.981z"/>
<path d="M150.821,18.426h4.319v6.201c-0.492,0.467-1.069,0.803-1.729,1.01s-1.317,0.31-1.97,0.31c-0.787,0-1.5-0.14-2.141-0.42
	c-0.64-0.28-1.184-0.716-1.629-1.31c-0.447-0.594-0.794-1.347-1.041-2.26c-0.246-0.914-0.369-2.011-0.369-3.291
	c0-1.333,0.146-2.46,0.439-3.38s0.684-1.67,1.17-2.25s1.053-1,1.7-1.26c0.646-0.26,1.33-0.39,2.05-0.39
	c0.641,0,1.223,0.057,1.75,0.17s0.963,0.243,1.311,0.39l-0.521,2.18c-0.267-0.12-0.577-0.22-0.931-0.3
	c-0.353-0.08-0.783-0.12-1.289-0.12c-0.467,0-0.891,0.093-1.27,0.28c-0.381,0.187-0.701,0.48-0.961,0.88
	c-0.26,0.4-0.46,0.917-0.6,1.55c-0.141,0.633-0.21,1.39-0.21,2.27c0,1.693,0.257,2.94,0.771,3.739
	c0.512,0.801,1.189,1.201,2.029,1.201c0.267,0,0.523-0.041,0.77-0.121c0.247-0.082,0.463-0.209,0.65-0.385v-2.895l-2.3-0.313V18.426
	z"/>
<path d="M156.061,20.667c0-1.773,0.348-3.093,1.041-3.96c0.692-0.867,1.66-1.3,2.899-1.3c1.333,0,2.327,0.44,2.979,1.32
	c0.654,0.88,0.98,2.193,0.98,3.94c0,1.787-0.347,3.11-1.04,3.97c-0.693,0.859-1.667,1.289-2.92,1.289
	C157.374,25.926,156.061,24.174,156.061,20.667z M158.521,20.667c0,1,0.113,1.773,0.34,2.32s0.606,0.82,1.14,0.82
	c0.507,0,0.884-0.236,1.13-0.71s0.37-1.283,0.37-2.43c0-1.026-0.113-1.807-0.34-2.34c-0.228-0.533-0.614-0.8-1.16-0.8
	c-0.467,0-0.83,0.237-1.09,0.71C158.65,18.71,158.521,19.52,158.521,20.667z"/>
<path d="M164.801,20.667c0-1.773,0.347-3.093,1.04-3.96c0.692-0.867,1.66-1.3,2.899-1.3c1.334,0,2.327,0.44,2.98,1.32
	s0.98,2.193,0.98,3.94c0,1.787-0.348,3.11-1.041,3.97c-0.693,0.859-1.666,1.289-2.92,1.289
	C166.113,25.926,164.801,24.174,164.801,20.667z M167.261,20.667c0,1,0.113,1.773,0.34,2.32s0.606,0.82,1.14,0.82
	c0.508,0,0.884-0.236,1.131-0.71c0.246-0.474,0.369-1.283,0.369-2.43c0-1.026-0.113-1.807-0.34-2.34s-0.613-0.8-1.16-0.8
	c-0.467,0-0.83,0.237-1.09,0.71C167.391,18.71,167.261,19.52,167.261,20.667z"/>
<path d="M181.061,25.666c0,1.453-0.333,2.523-1,3.211c-0.666,0.686-1.593,1.029-2.779,1.029c-0.827,0-1.474-0.062-1.94-0.189
	s-0.827-0.264-1.079-0.41l0.5-2.02c0.293,0.119,0.609,0.232,0.949,0.34c0.34,0.105,0.743,0.16,1.21,0.16
	c0.681,0,1.149-0.184,1.41-0.551c0.26-0.367,0.39-0.924,0.39-1.67v-0.54h-0.06c-0.187,0.267-0.437,0.467-0.75,0.601
	c-0.313,0.133-0.717,0.199-1.21,0.199c-1.054,0-1.844-0.396-2.37-1.189s-0.79-2.051-0.79-3.77c0-1.854,0.363-3.22,1.09-4.1
	s1.764-1.32,3.11-1.32c0.72,0,1.366,0.057,1.94,0.17c0.572,0.113,1.033,0.25,1.379,0.41V25.666z M177.361,23.787
	c0.359,0,0.643-0.088,0.85-0.261s0.363-0.42,0.471-0.739v-5c-0.147-0.067-0.311-0.12-0.49-0.16s-0.391-0.06-0.631-0.06
	c-0.493,0-0.877,0.24-1.149,0.72c-0.273,0.48-0.41,1.307-0.41,2.48C176.001,22.779,176.454,23.787,177.361,23.787z"/>
<path d="M185.02,22.426c0,0.468,0.047,0.801,0.141,1c0.094,0.201,0.246,0.301,0.46,0.301c0.12,0,0.243-0.014,0.37-0.04
	s0.27-0.073,0.43-0.14l0.221,1.92c-0.16,0.106-0.434,0.206-0.82,0.3c-0.387,0.093-0.78,0.14-1.18,0.14c-0.668,0-1.168-0.166-1.5-0.5
	c-0.334-0.333-0.5-0.9-0.5-1.699V11.667h2.379V22.426z"/>
<path d="M194.061,24.926c-0.333,0.294-0.787,0.534-1.359,0.721c-0.574,0.187-1.174,0.279-1.801,0.279
	c-0.693,0-1.289-0.119-1.789-0.359s-0.91-0.586-1.23-1.04c-0.32-0.453-0.557-1.003-0.71-1.649s-0.229-1.384-0.229-2.21
	c0-1.8,0.355-3.13,1.069-3.99c0.714-0.86,1.703-1.29,2.97-1.29c0.428,0,0.84,0.063,1.24,0.19s0.757,0.34,1.07,0.64
	c0.312,0.3,0.566,0.7,0.76,1.2s0.29,1.13,0.29,1.89c0,0.293-0.017,0.607-0.05,0.94c-0.033,0.333-0.084,0.693-0.15,1.08h-4.859
	c0.026,0.827,0.199,1.461,0.52,1.9s0.834,0.66,1.54,0.66c0.427,0,0.817-0.066,1.17-0.2c0.354-0.134,0.624-0.272,0.81-0.42
	L194.061,24.926z M190.941,17.426c-0.508,0-0.887,0.204-1.141,0.61s-0.4,0.977-0.439,1.71h2.76c0.04-0.76-0.04-1.336-0.24-1.73
	C191.682,17.624,191.367,17.426,190.941,17.426z"/>
<path id="Google_1_" fill="#231F20" d="M28.053,4.665h-8.3c-2.175,0-4.916,0.321-7.211,2.211c-1.734,1.49-2.579,3.542-2.579,5.394
	c0,3.14,2.417,6.321,6.688,6.321c0.403,0,0.844-0.041,1.291-0.081c-0.201,0.481-0.405,0.884-0.405,1.57
	c0,1.248,0.645,2.011,1.208,2.736c-1.811,0.12-5.197,0.321-7.695,1.85c-2.377,1.412-3.104,3.463-3.104,4.912
	c0,2.979,2.822,5.758,8.665,5.758c6.93,0,10.597-3.824,10.597-7.609c0-2.774-1.611-4.146-3.384-5.635l-1.451-1.126
	c-0.442-0.362-1.045-0.844-1.045-1.731c0-0.885,0.604-1.449,1.127-1.973c1.691-1.328,3.384-2.737,3.384-5.714
	c0-3.06-1.936-4.671-2.862-5.436h2.5L28.053,4.665z M24.51,29.297c0,2.496-2.056,4.347-5.925,4.347
	c-4.311,0-7.091-2.054-7.091-4.909c0-2.859,2.579-3.823,3.465-4.146c1.692-0.564,3.868-0.645,4.23-0.645
	c0.403,0,0.604,0,0.928,0.039C23.181,26.156,24.51,27.244,24.51,29.297z M21.286,16.337c-0.646,0.643-1.734,1.126-2.742,1.126
	c-3.464,0-5.035-4.469-5.035-7.165c0-1.047,0.202-2.133,0.886-2.978c0.644-0.805,1.772-1.33,2.82-1.33
	c3.344,0,5.078,4.509,5.078,7.406C22.293,14.123,22.211,15.41,21.286,16.337z"/>
<path d="M30,18.982h4.981v-5.095h2.038v5.095H42v2.037h-4.981v5.095h-2.038v-5.095H30V18.982z"/>
</svg>
