<?xml version="1.0" encoding="utf-8"?>
<!-- Generator: Adobe Illustrator 15.1.0, SVG Export Plug-In  -->
<!DOCTYPE svg PUBLIC "-//W3C//DTD SVG 1.1//EN" "http://www.w3.org/Graphics/SVG/1.1/DTD/svg11.dtd" [
	<!ENTITY ns_flows "http://ns.adobe.com/Flows/1.0/">
]>
<svg version="1.1"
	 xmlns="http://www.w3.org/2000/svg" xmlns:xlink="http://www.w3.org/1999/xlink" xmlns:a="http://ns.adobe.com/AdobeSVGViewerExtensions/3.0/"
	 x="0px" y="0px" width="200px" height="40px" viewBox="0 0 200 40" overflow="visible" enable-background="new 0 0 200 40"
	 xml:space="preserve">
<defs>
</defs>
<g>
	<defs>
		<polygon id="SVGID_2_" points="200,0 39,0 59,20 39,40 200,40 		"/>
	</defs>
	<clipPath id="SVGID_3_">
		<use xlink:href="#SVGID_2_"  overflow="visible"/>
	</clipPath>
	<linearGradient id="SVGID_4_" gradientUnits="userSpaceOnUse" x1="99.9995" y1="0" x2="99.9995" y2="40.0005">
		<stop  offset="0" style="stop-color:#33BBFF"/>
		<stop  offset="1" style="stop-color:#0088CC"/>
	</linearGradient>
	<path clip-path="url(#SVGID_3_)" fill="url(#SVGID_4_)" d="M200,36c0,2.209-1.791,4-4,4H4c-2.209,0-4-1.791-4-4V4
		c0-2.209,1.791-4,4-4h192c2.209,0,4,1.791,4,4V36z"/>
</g>
<g>
	<defs>
		<polygon id="SVGID_1_" points="0,0 40,0 60,20 40,40 0,40 		"/>
	</defs>
	<clipPath id="SVGID_5_">
		<use xlink:href="#SVGID_1_"  overflow="visible"/>
	</clipPath>
	<linearGradient id="SVGID_6_" gradientUnits="userSpaceOnUse" x1="99.9995" y1="0" x2="99.9995" y2="40.0005">
		<stop  offset="0" style="stop-color:#2995CC"/>
		<stop  offset="1" style="stop-color:#006699"/>
	</linearGradient>
	<path clip-path="url(#SVGID_5_)" fill="url(#SVGID_6_)" d="M200,36c0,2.209-1.791,4-4,4H4c-2.209,0-4-1.791-4-4V4
		c0-2.209,1.791-4,4-4h192c2.209,0,4,1.791,4,4V36z"/>
</g>
<path d="M139.421,33.303l0.21,0.811h0.16l0.15-0.83l0.979-2.7h1.511l-2.4,5.3h-0.801l-2.5-5.3h1.631L139.421,33.303z"/>
<path d="M142.991,29.453c0-0.214,0.076-0.392,0.229-0.535c0.154-0.144,0.37-0.215,0.65-0.215c0.287,0,0.514,0.073,0.68,0.22
	c0.167,0.146,0.25,0.323,0.25,0.53c0,0.193-0.083,0.36-0.25,0.5c-0.166,0.14-0.393,0.21-0.68,0.21c-0.28,0-0.496-0.07-0.65-0.21
	C143.067,29.813,142.991,29.646,142.991,29.453z M143.201,30.583h1.4v5.25h-1.4V30.583z"/>
<path d="M146.15,30.943c0.301-0.134,0.669-0.243,1.105-0.33s0.889-0.13,1.355-0.13c0.366,0,0.675,0.043,0.925,0.13
	s0.448,0.212,0.595,0.375s0.252,0.359,0.314,0.59c0.064,0.229,0.096,0.485,0.096,0.765c0,0.34-0.014,0.677-0.04,1.01
	c-0.026,0.334-0.04,0.688-0.04,1.061c0,0.253,0.017,0.5,0.05,0.74c0.034,0.239,0.087,0.47,0.16,0.689h-1.14l-0.23-0.779h-0.119
	c-0.174,0.233-0.395,0.433-0.66,0.6c-0.268,0.167-0.61,0.25-1.031,0.25c-0.253,0-0.484-0.037-0.694-0.11s-0.39-0.178-0.54-0.314
	s-0.267-0.299-0.35-0.485c-0.084-0.187-0.125-0.39-0.125-0.61c0-0.593,0.197-1.041,0.595-1.345c0.396-0.303,0.998-0.455,1.806-0.455
	c0.186,0,0.373,0.016,0.559,0.045c0.188,0.03,0.317,0.052,0.391,0.065c0.02-0.14,0.03-0.26,0.03-0.36c0-0.253-0.063-0.439-0.19-0.56
	s-0.363-0.181-0.71-0.181c-0.319,0-0.632,0.039-0.935,0.115c-0.304,0.077-0.572,0.172-0.805,0.285L146.15,30.943z M147.98,34.793
	c0.314,0,0.564-0.073,0.75-0.22c0.188-0.146,0.324-0.3,0.41-0.46v-0.601c-0.033-0.013-0.084-0.026-0.154-0.04
	c-0.07-0.013-0.146-0.026-0.23-0.04c-0.084-0.013-0.166-0.022-0.25-0.029s-0.158-0.011-0.225-0.011c-0.36,0-0.627,0.065-0.801,0.195
	c-0.173,0.13-0.26,0.292-0.26,0.485c0,0.24,0.068,0.42,0.205,0.54S147.748,34.793,147.98,34.793z"/>
<path d="M154.681,28.903c0.3-0.054,0.634-0.096,1-0.125c0.366-0.03,0.733-0.045,1.101-0.045c0.373,0,0.75,0.028,1.129,0.085
	c0.381,0.057,0.723,0.17,1.025,0.34c0.304,0.17,0.552,0.406,0.745,0.71s0.29,0.705,0.29,1.205c0,0.439-0.084,0.814-0.25,1.125
	c-0.166,0.31-0.389,0.562-0.665,0.755s-0.592,0.335-0.944,0.425c-0.354,0.09-0.717,0.135-1.09,0.135c-0.034,0-0.091,0-0.171,0
	c-0.079,0-0.165-0.001-0.255-0.005c-0.09-0.003-0.175-0.008-0.255-0.015s-0.14-0.014-0.181-0.021v2.36h-1.479V28.903z
	 M156.881,30.033c-0.141,0-0.275,0.003-0.405,0.01s-0.235,0.021-0.315,0.04v2.08c0.027,0.007,0.07,0.014,0.131,0.02
	c0.06,0.007,0.123,0.012,0.189,0.016c0.066,0.003,0.129,0.007,0.186,0.01c0.057,0.004,0.102,0.005,0.135,0.005
	c0.193,0,0.387-0.013,0.58-0.04c0.193-0.026,0.365-0.083,0.516-0.17c0.149-0.087,0.271-0.205,0.364-0.354
	c0.093-0.15,0.14-0.352,0.14-0.605c0-0.213-0.043-0.385-0.129-0.515c-0.088-0.13-0.203-0.231-0.346-0.306
	c-0.144-0.073-0.307-0.123-0.49-0.149S157.067,30.033,156.881,30.033z"/>
<path d="M165.051,35.353c-0.227,0.174-0.535,0.322-0.925,0.445s-0.809,0.186-1.255,0.186c-0.9,0-1.561-0.247-1.98-0.74
	s-0.63-1.17-0.63-2.03c0-0.913,0.237-1.604,0.71-2.075c0.474-0.47,1.141-0.705,2-0.705c0.28,0,0.557,0.035,0.83,0.105
	s0.517,0.187,0.73,0.35c0.213,0.164,0.385,0.384,0.515,0.66c0.13,0.277,0.194,0.618,0.194,1.025c0,0.14-0.008,0.293-0.024,0.46
	s-0.045,0.34-0.085,0.52h-3.5c0.033,0.454,0.165,0.789,0.395,1.005c0.23,0.217,0.605,0.325,1.125,0.325
	c0.313,0,0.596-0.045,0.846-0.135s0.441-0.182,0.574-0.275L165.051,35.353z M162.951,31.533c-0.414,0-0.721,0.111-0.92,0.335
	c-0.2,0.224-0.317,0.508-0.351,0.854h2.261c0.025-0.366-0.041-0.656-0.201-0.87C163.581,31.64,163.317,31.533,162.951,31.533z"/>
<path d="M169.601,31.863c-0.2-0.066-0.399-0.101-0.6-0.101c-0.294,0-0.535,0.07-0.726,0.21c-0.189,0.141-0.314,0.317-0.375,0.53
	v3.33h-1.399v-5.25h1.1l0.15,0.73h0.13c0.133-0.273,0.312-0.483,0.535-0.631c0.223-0.146,0.479-0.22,0.765-0.22
	c0.181,0,0.387,0.037,0.62,0.11L169.601,31.863z"/>
<path d="M170.551,34.473c0.094,0.047,0.201,0.094,0.325,0.141c0.123,0.047,0.257,0.09,0.399,0.13c0.144,0.04,0.291,0.073,0.44,0.1
	c0.149,0.027,0.302,0.04,0.455,0.04c0.233,0,0.415-0.036,0.545-0.109s0.194-0.21,0.194-0.41c0-0.16-0.086-0.278-0.26-0.355
	c-0.173-0.076-0.387-0.151-0.64-0.225c-0.187-0.054-0.382-0.117-0.585-0.19s-0.391-0.171-0.561-0.295
	c-0.17-0.123-0.31-0.285-0.42-0.484c-0.109-0.2-0.164-0.454-0.164-0.761c0-0.526,0.163-0.928,0.49-1.205
	c0.326-0.276,0.796-0.415,1.409-0.415c0.4,0,0.775,0.035,1.125,0.105c0.351,0.07,0.632,0.151,0.845,0.245l-0.289,1.06
	c-0.174-0.066-0.396-0.135-0.666-0.205c-0.27-0.069-0.545-0.104-0.824-0.104c-0.234,0-0.407,0.035-0.521,0.104
	c-0.113,0.07-0.17,0.192-0.17,0.365c0,0.153,0.089,0.269,0.265,0.345c0.178,0.077,0.393,0.152,0.646,0.226
	c0.187,0.053,0.382,0.115,0.585,0.185c0.203,0.07,0.389,0.165,0.555,0.285c0.167,0.12,0.305,0.275,0.416,0.465
	c0.109,0.19,0.164,0.429,0.164,0.715c0,0.561-0.182,0.994-0.545,1.301s-0.908,0.46-1.635,0.46c-0.394,0-0.76-0.035-1.1-0.105
	s-0.617-0.172-0.83-0.305L170.551,34.473z"/>
<path d="M175.091,33.213c0-0.866,0.229-1.547,0.69-2.04c0.459-0.493,1.116-0.74,1.97-0.74c0.446,0,0.837,0.07,1.17,0.21
	c0.333,0.141,0.61,0.335,0.83,0.585s0.385,0.544,0.495,0.881c0.109,0.336,0.165,0.705,0.165,1.104c0,0.427-0.06,0.812-0.181,1.155
	c-0.119,0.344-0.293,0.635-0.52,0.875s-0.505,0.423-0.835,0.55s-0.705,0.19-1.125,0.19c-0.454,0-0.847-0.07-1.181-0.21
	c-0.333-0.141-0.609-0.335-0.83-0.585c-0.219-0.25-0.383-0.544-0.489-0.881C175.145,33.972,175.091,33.606,175.091,33.213z
	 M176.531,33.213c0,0.22,0.023,0.427,0.07,0.62c0.046,0.193,0.117,0.361,0.215,0.505c0.096,0.144,0.221,0.259,0.375,0.345
	c0.152,0.087,0.34,0.131,0.56,0.131c0.813,0,1.22-0.534,1.22-1.601c0-0.233-0.021-0.448-0.064-0.645
	c-0.044-0.197-0.113-0.367-0.211-0.511c-0.096-0.143-0.223-0.255-0.379-0.335c-0.157-0.08-0.346-0.12-0.565-0.12
	c-0.38,0-0.679,0.127-0.896,0.381C176.639,32.236,176.531,32.646,176.531,33.213z"/>
<path d="M185.091,35.833v-2.88c0-0.453-0.069-0.78-0.21-0.98c-0.14-0.199-0.387-0.3-0.74-0.3c-0.3,0-0.555,0.082-0.765,0.245
	s-0.354,0.372-0.435,0.625c0,0.547,0.001,1.095,0.005,1.646c0.003,0.55,0.005,1.098,0.005,1.645h-1.4v-5.25h1.1l0.15,0.75h0.15
	c0.174-0.246,0.403-0.458,0.689-0.635c0.287-0.177,0.66-0.266,1.121-0.266c0.279,0,0.527,0.035,0.744,0.105s0.396,0.189,0.54,0.36
	c0.144,0.17,0.253,0.398,0.33,0.685c0.077,0.287,0.115,0.646,0.115,1.08v3.17H185.091z"/>
<path d="M187.881,30.943c0.301-0.134,0.668-0.243,1.105-0.33c0.436-0.087,0.888-0.13,1.354-0.13c0.366,0,0.675,0.043,0.925,0.13
	s0.449,0.212,0.596,0.375s0.251,0.359,0.314,0.59c0.063,0.229,0.096,0.485,0.096,0.765c0,0.34-0.014,0.677-0.041,1.01
	c-0.026,0.334-0.039,0.688-0.039,1.061c0,0.253,0.016,0.5,0.049,0.74c0.034,0.239,0.088,0.47,0.16,0.689h-1.14l-0.229-0.779h-0.12
	c-0.174,0.233-0.394,0.433-0.66,0.6s-0.61,0.25-1.03,0.25c-0.254,0-0.484-0.037-0.695-0.11c-0.209-0.073-0.39-0.178-0.539-0.314
	c-0.15-0.137-0.268-0.299-0.351-0.485s-0.125-0.39-0.125-0.61c0-0.593,0.198-1.041,0.595-1.345c0.396-0.303,0.998-0.455,1.806-0.455
	c0.187,0,0.373,0.016,0.56,0.045c0.188,0.03,0.316,0.052,0.391,0.065c0.02-0.14,0.029-0.26,0.029-0.36
	c0-0.253-0.062-0.439-0.189-0.56s-0.363-0.181-0.711-0.181c-0.319,0-0.631,0.039-0.934,0.115c-0.305,0.077-0.572,0.172-0.806,0.285
	L187.881,30.943z M189.711,34.793c0.313,0,0.563-0.073,0.75-0.22s0.323-0.3,0.41-0.46v-0.601c-0.033-0.013-0.085-0.026-0.155-0.04
	c-0.069-0.013-0.146-0.026-0.229-0.04c-0.084-0.013-0.167-0.022-0.25-0.029c-0.084-0.007-0.158-0.011-0.226-0.011
	c-0.36,0-0.626,0.065-0.8,0.195s-0.26,0.292-0.26,0.485c0,0.24,0.068,0.42,0.205,0.54S189.478,34.793,189.711,34.793z"/>
<path id="vCard_1_" fill="#231F20" d="M35.376,29.057c-0.005-1.289-0.91-1.32-1.99-1.752l-5.043-2.021
	c-0.088-0.032-0.174-0.069-0.26-0.108v-0.001c-0.896-0.407-1.688-0.969-1.978-1.367l-0.011-0.014l-0.003-0.007
	c-0.017-0.024-0.034-0.052-0.05-0.075l-0.012-0.021l-0.002-0.007l-0.01-0.012V23.67c-0.134-0.201-0.27-0.292-0.385-0.253
	l-0.007,0.004h-0.003H25.62l-0.006,0.004l-0.003,0.002l-0.006,0.004c-0.138,0.07-0.109-0.006-0.166-0.157
	c-0.136-0.368-0.361-1.071-0.395-1.174c-0.053-0.192-0.193,0.305-0.161-0.23l0.058-0.968c0.093-0.101,0.167-0.182,0.219-0.238
	c0.329-0.376,0.352-1.368,0.516-1.611c0.165-0.242,0.495-0.294,0.824-1.421c0.331-1.126,0.731-2.738,0.308-2.763
	c-0.104-0.007-0.222,0.061-0.344,0.167c0.074-0.414,0.232-1.354,0.267-2.046c0.047-0.913-0.105-3.254-0.624-4.112
	c-0.324-0.536-0.979-1.067-1.632-1.482c-0.391-0.249-0.781-0.455-1.1-0.595c-0.951-0.421-3.948-0.227-4.963,0
	c-1.156,0.259-1.966,0.984-2.484,1.843c-0.516,0.859-0.747,3.434-0.701,4.347c0.021,0.409,0.267,1.101,0.329,1.522
	c0.036,0.22,0.069,0.222,0.096,0.379c-0.044-0.017-0.085-0.026-0.125-0.023c-0.424,0.025-0.023,1.637,0.306,2.763
	c0.33,1.127,0.658,1.18,0.823,1.421c0.165,0.243,0.188,1.235,0.519,1.611c0.052,0.06,0.131,0.145,0.23,0.251l0.062,0.789
	l0.111,0.439c-0.051-0.125-0.151-0.207-0.198-0.043c-0.141,0.433-0.284,0.863-0.425,1.293c-0.016-0.021-0.038-0.034-0.065-0.035
	c-0.137-0.123-0.322-0.017-0.49,0.263c-0.25,0.415-1.075,1.013-2.03,1.446l-0.015,0.052l-0.013,0.051l-0.005,0.02
	c-0.076,0.033-0.15,0.066-0.229,0.095l-5.042,2.021c-1.08,0.432-1.985,0.463-1.991,1.752L6.24,33.449H36.5L35.376,29.057z"/>
<path d="M71.442,22.066c0-0.426-0.126-0.79-0.38-1.09c-0.253-0.3-0.57-0.583-0.95-0.85c-0.38-0.267-0.793-0.54-1.24-0.82
	c-0.447-0.28-0.86-0.607-1.24-0.98c-0.38-0.373-0.697-0.813-0.95-1.32c-0.253-0.506-0.38-1.126-0.38-1.86
	c0-0.68,0.103-1.256,0.31-1.73c0.207-0.473,0.49-0.86,0.85-1.16c0.36-0.3,0.787-0.52,1.28-0.66c0.493-0.14,1.02-0.21,1.58-0.21
	c0.68,0,1.313,0.067,1.9,0.2c0.586,0.133,1.073,0.313,1.46,0.54l-0.78,2.22c-0.227-0.16-0.563-0.307-1.01-0.44s-0.93-0.2-1.45-0.2
	s-0.92,0.107-1.2,0.32c-0.28,0.213-0.42,0.527-0.42,0.94c0,0.374,0.126,0.704,0.38,0.99c0.253,0.287,0.57,0.563,0.95,0.83
	c0.38,0.267,0.793,0.543,1.24,0.83s0.86,0.62,1.24,1c0.38,0.38,0.696,0.827,0.95,1.34s0.38,1.124,0.38,1.831
	c0,0.706-0.103,1.319-0.31,1.84c-0.207,0.52-0.5,0.949-0.88,1.289s-0.837,0.598-1.37,0.771s-1.126,0.26-1.78,0.26
	c-0.827,0-1.55-0.079-2.17-0.239s-1.097-0.34-1.43-0.541l0.82-2.26c0.267,0.16,0.633,0.32,1.1,0.48s0.967,0.24,1.5,0.24
	C70.776,23.627,71.442,23.106,71.442,22.066z"/>
<path d="M75.222,12.847c0-0.4,0.127-0.73,0.38-0.99c0.253-0.26,0.613-0.39,1.08-0.39s0.84,0.127,1.12,0.38
	c0.28,0.253,0.42,0.587,0.42,1s-0.14,0.74-0.42,0.98c-0.28,0.24-0.653,0.36-1.12,0.36s-0.827-0.123-1.08-0.37
	C75.349,13.57,75.222,13.247,75.222,12.847z M75.482,15.667h2.38v10h-2.38V15.667z"/>
<path d="M86.942,25.666c0,1.453-0.333,2.523-1,3.211c-0.667,0.686-1.593,1.029-2.78,1.029c-0.827,0-1.474-0.062-1.94-0.189
	s-0.827-0.264-1.08-0.41l0.5-2.02c0.293,0.119,0.61,0.232,0.95,0.34c0.34,0.105,0.743,0.16,1.21,0.16c0.68,0,1.15-0.184,1.41-0.551
	c0.26-0.367,0.39-0.924,0.39-1.67v-0.54h-0.06c-0.187,0.267-0.437,0.467-0.75,0.601c-0.313,0.133-0.717,0.199-1.21,0.199
	c-1.054,0-1.844-0.396-2.37-1.189c-0.527-0.793-0.79-2.051-0.79-3.77c0-1.854,0.363-3.22,1.09-4.1s1.763-1.32,3.11-1.32
	c0.72,0,1.366,0.057,1.94,0.17c0.573,0.113,1.033,0.25,1.38,0.41V25.666z M83.242,23.787c0.36,0,0.643-0.088,0.85-0.261
	c0.207-0.173,0.363-0.42,0.47-0.739v-5c-0.147-0.067-0.31-0.12-0.49-0.16c-0.18-0.04-0.39-0.06-0.63-0.06
	c-0.494,0-0.877,0.24-1.15,0.72c-0.273,0.48-0.41,1.307-0.41,2.48C81.882,22.779,82.335,23.787,83.242,23.787z"/>
<path d="M93.602,25.666v-6.08c0-0.733-0.087-1.247-0.26-1.54c-0.173-0.293-0.467-0.44-0.88-0.44c-0.347,0-0.647,0.107-0.9,0.32
	c-0.253,0.214-0.433,0.48-0.54,0.8v6.939h-2.38v-10h1.9l0.28,1.16h0.06c0.24-0.387,0.566-0.717,0.98-0.99
	c0.413-0.273,0.953-0.41,1.62-0.41c0.4,0,0.756,0.06,1.07,0.18c0.313,0.12,0.577,0.317,0.79,0.59c0.213,0.273,0.373,0.64,0.48,1.1
	c0.106,0.46,0.16,1.03,0.16,1.71v6.66H93.602z"/>
<path d="M101.662,12.847c0-0.4,0.127-0.73,0.38-0.99c0.253-0.26,0.612-0.39,1.079-0.39s0.841,0.127,1.121,0.38
	c0.279,0.253,0.42,0.587,0.42,1s-0.141,0.74-0.42,0.98c-0.28,0.24-0.654,0.36-1.121,0.36s-0.826-0.123-1.079-0.37
	C101.789,13.57,101.662,13.247,101.662,12.847z M101.922,15.667h2.38v10h-2.38V15.667z"/>
<path d="M111.182,25.666v-6.08c0-0.733-0.087-1.247-0.26-1.54c-0.174-0.293-0.467-0.44-0.88-0.44c-0.347,0-0.647,0.107-0.9,0.32
	c-0.253,0.214-0.433,0.48-0.54,0.8v6.939h-2.38v-10h1.899l0.281,1.16h0.06c0.239-0.387,0.566-0.717,0.979-0.99
	c0.414-0.273,0.953-0.41,1.621-0.41c0.399,0,0.756,0.06,1.069,0.18s0.577,0.317,0.79,0.59c0.213,0.273,0.373,0.64,0.48,1.1
	c0.105,0.46,0.16,1.03,0.16,1.71v6.66H111.182z"/>
<path d="M125.242,15.667l1.399,5.12l0.24,1.66h0.079l0.201-1.68l0.939-5.1h2.16l-2.46,10.1h-1.88l-1.5-5.58l-0.16-1.28h-0.12
	l-0.14,1.32l-1.44,5.54h-1.94l-2.56-10.1h2.58l1.08,5.02l0.181,1.78h0.079l0.261-1.8l1.219-5H125.242z"/>
<path d="M130.922,12.847c0-0.4,0.127-0.73,0.38-0.99c0.253-0.26,0.612-0.39,1.079-0.39s0.841,0.127,1.121,0.38
	c0.279,0.253,0.42,0.587,0.42,1s-0.141,0.74-0.42,0.98c-0.28,0.24-0.654,0.36-1.121,0.36s-0.826-0.123-1.079-0.37
	C131.049,13.57,130.922,13.247,130.922,12.847z M131.182,15.667h2.38v10h-2.38V15.667z"/>
<path d="M134.701,15.667h1.101v-1.88l2.38-0.74v2.62h1.939v2.12h-1.939v4.36c0,0.573,0.057,0.98,0.17,1.221
	c0.113,0.239,0.316,0.359,0.609,0.359c0.201,0,0.381-0.02,0.541-0.061c0.16-0.039,0.332-0.1,0.52-0.18l0.301,1.9
	c-0.294,0.146-0.635,0.27-1.021,0.369c-0.388,0.101-0.794,0.15-1.22,0.15c-0.76,0-1.33-0.22-1.711-0.66
	c-0.379-0.439-0.569-1.18-0.569-2.22v-5.24h-1.101V15.667z"/>
<path d="M146.262,25.666v-6.04c0-0.72-0.084-1.24-0.25-1.56c-0.167-0.32-0.471-0.48-0.91-0.48c-0.32,0-0.613,0.113-0.881,0.34
	c-0.266,0.227-0.446,0.514-0.539,0.86v6.879h-2.381v-14h2.381v4.9h0.06c0.267-0.347,0.591-0.626,0.97-0.84
	c0.381-0.213,0.857-0.32,1.431-0.32c0.413,0,0.772,0.06,1.079,0.18s0.567,0.32,0.781,0.6c0.213,0.28,0.373,0.657,0.479,1.13
	c0.106,0.474,0.16,1.07,0.16,1.79v6.56H146.262z"/>
<path d="M154.421,11.667h7v2.32h-4.479v3.44h4.06v2.32h-4.06v3.6h4.56v2.319h-7.08V11.667z"/>
<path d="M167.602,25.666v-5.819c0-0.84-0.067-1.423-0.201-1.75c-0.133-0.327-0.393-0.49-0.779-0.49c-0.32,0-0.584,0.104-0.79,0.31
	c-0.207,0.207-0.363,0.457-0.47,0.75v7h-2.381v-10h1.841l0.3,1.2h0.061c0.252-0.413,0.569-0.757,0.949-1.03
	c0.381-0.273,0.883-0.41,1.51-0.41c0.521,0,0.943,0.114,1.271,0.34s0.583,0.627,0.771,1.2c0.252-0.48,0.586-0.856,1-1.13
	c0.412-0.273,0.899-0.41,1.459-0.41c0.44,0,0.816,0.057,1.131,0.17c0.312,0.113,0.566,0.31,0.76,0.59s0.336,0.664,0.43,1.15
	c0.094,0.487,0.141,1.104,0.141,1.85v6.479h-2.381v-6.08c0-0.68-0.06-1.18-0.18-1.5c-0.12-0.32-0.387-0.48-0.8-0.48
	c-0.333,0-0.604,0.097-0.81,0.29c-0.207,0.193-0.357,0.457-0.451,0.79v6.979H167.602z"/>
<path d="M176.261,16.267c0.399-0.24,0.899-0.433,1.5-0.58c0.601-0.146,1.28-0.22,2.04-0.22c1.133,0,1.924,0.293,2.37,0.88
	s0.67,1.42,0.67,2.5c0,0.626-0.017,1.243-0.05,1.85s-0.057,1.2-0.07,1.78s-0.004,1.141,0.03,1.68c0.033,0.54,0.123,1.051,0.271,1.53
	h-1.94l-0.38-1.22h-0.08c-0.214,0.387-0.514,0.707-0.9,0.959c-0.387,0.254-0.873,0.381-1.46,0.381c-0.786,0-1.407-0.264-1.86-0.79
	s-0.68-1.229-0.68-2.11c0-1.199,0.427-2.053,1.28-2.56c0.853-0.507,2.007-0.72,3.46-0.64c0.066-0.773,0.017-1.333-0.15-1.68
	c-0.166-0.346-0.523-0.52-1.07-0.52c-0.399,0-0.812,0.047-1.239,0.14s-0.808,0.227-1.14,0.4L176.261,16.267z M179.121,23.767
	c0.359,0,0.652-0.091,0.88-0.271c0.227-0.18,0.394-0.376,0.5-0.59v-1.66c-0.308-0.039-0.601-0.047-0.88-0.02
	c-0.28,0.027-0.527,0.087-0.74,0.18c-0.213,0.094-0.383,0.23-0.51,0.41s-0.19,0.41-0.19,0.689c0,0.414,0.083,0.728,0.25,0.94
	C178.598,23.66,178.828,23.767,179.121,23.767z"/>
<path d="M184.44,12.847c0-0.4,0.127-0.73,0.38-0.99c0.254-0.26,0.613-0.39,1.08-0.39s0.84,0.127,1.12,0.38s0.42,0.587,0.42,1
	s-0.14,0.74-0.42,0.98c-0.28,0.24-0.653,0.36-1.12,0.36s-0.826-0.123-1.08-0.37C184.567,13.57,184.44,13.247,184.44,12.847z
	 M184.701,15.667h2.379v10h-2.379V15.667z"/>
<path d="M191.42,22.426c0,0.468,0.047,0.801,0.141,1c0.094,0.201,0.246,0.301,0.46,0.301c0.12,0,0.243-0.014,0.37-0.04
	s0.27-0.073,0.43-0.14l0.221,1.92c-0.16,0.106-0.434,0.206-0.82,0.3c-0.387,0.093-0.78,0.14-1.18,0.14c-0.668,0-1.168-0.166-1.5-0.5
	c-0.334-0.333-0.5-0.9-0.5-1.699V11.667h2.379V22.426z"/>
</svg>
