<svg xmlns="http://www.w3.org/2000/svg" xmlns:xlink="http://www.w3.org/1999/xlink" viewBox="0 0 200 40"><defs><style>.cls-1{fill:url(#linear-gradient);}.cls-2{fill:url(#linear-gradient-2);}.cls-3{clip-path:url(#clip-path);}.cls-4{fill:url(#linear-gradient-4);}.cls-5{clip-path:url(#clip-path-2);}.cls-6{fill:url(#linear-gradient-6);}</style><linearGradient id="linear-gradient" x1="117.5" y1="40" x2="117.5" gradientUnits="userSpaceOnUse"><stop offset="0" stop-color="#ffe100"/><stop offset="1" stop-color="#fff6ab"/></linearGradient><linearGradient id="linear-gradient-2" x1="27.5" x2="27.5" y2="40" gradientUnits="userSpaceOnUse"><stop offset="0" stop-color="#ffe100"/><stop offset="1" stop-color="#d4ba00"/></linearGradient><clipPath id="clip-path"><path id="SVGID" class="cls-1" d="M55,20,35,40H196a4,4,0,0,0,4-4V4a4,4,0,0,0-4-4H35"/></clipPath><linearGradient id="linear-gradient-4" x1="100" x2="100" y2="0" xlink:href="#linear-gradient"/><clipPath id="clip-path-2"><path id="SVGID-2" data-name="SVGID" class="cls-2" d="M4,40a4,4,0,0,1-4-4V4A4,4,0,0,1,4,0H35L55,20,35,40"/></clipPath><linearGradient id="linear-gradient-6" x1="100" x2="100" y2="40" xlink:href="#linear-gradient-2"/></defs><title>sign-in-with-password</title><g id="Background"><path id="SVGID-3" data-name="SVGID" class="cls-1" d="M55,20,35,40H196a4,4,0,0,0,4-4V4a4,4,0,0,0-4-4H35"/><g class="cls-3"><rect class="cls-4" width="200" height="40" rx="4" ry="4"/></g><path id="SVGID-4" data-name="SVGID" class="cls-2" d="M4,40a4,4,0,0,1-4-4V4A4,4,0,0,1,4,0H35L55,20,35,40"/><g class="cls-5"><rect class="cls-6" width="200" height="40" rx="4" ry="4"/></g><path d="M132.05,33.3l.21.81h.16l.15-.83,1-2.7h1.51l-2.4,5.3h-.8l-2.5-5.3H131Z"/><path d="M135.62,29.45a.7.7,0,0,1,.23-.54.91.91,0,0,1,.65-.21,1,1,0,0,1,.68.22.68.68,0,0,1,.25.53.64.64,0,0,1-.25.5,1,1,0,0,1-.68.21.93.93,0,0,1-.65-.21A.65.65,0,0,1,135.62,29.45Zm.21,1.13h1.4v5.25h-1.4Z"/><path d="M138.78,30.94a5.25,5.25,0,0,1,1.1-.33,6.92,6.92,0,0,1,1.35-.13,2.85,2.85,0,0,1,.93.13,1.4,1.4,0,0,1,.59.38,1.45,1.45,0,0,1,.32.59,2.91,2.91,0,0,1,.09.76q0,.51,0,1c0,.33,0,.69,0,1.06a5.41,5.41,0,0,0,0,.74,3.85,3.85,0,0,0,.16.69h-1.14l-.23-.78h-.12a2.38,2.38,0,0,1-.66.6,1.91,1.91,0,0,1-1,.25,2.1,2.1,0,0,1-.7-.11,1.54,1.54,0,0,1-.54-.31,1.47,1.47,0,0,1-.35-.49,1.5,1.5,0,0,1-.12-.61A1.59,1.59,0,0,1,139,33a3,3,0,0,1,1.8-.46,3.61,3.61,0,0,1,.56,0l.39.07a2.52,2.52,0,0,0,0-.36.74.74,0,0,0-.19-.56,1,1,0,0,0-.71-.18,3.82,3.82,0,0,0-.93.12,4.26,4.26,0,0,0-.81.29Zm1.83,3.85a1.19,1.19,0,0,0,.75-.22,1.55,1.55,0,0,0,.41-.46v-.6l-.16,0-.23,0-.25,0h-.23a1.33,1.33,0,0,0-.8.2.59.59,0,0,0-.26.49.68.68,0,0,0,.2.54A.81.81,0,0,0,140.61,34.79Z"/><path d="M147.38,30.58h1l.17.65h.12a2.06,2.06,0,0,1,.72-.6,2.17,2.17,0,0,1,1-.2,2,2,0,0,1,1.59.64,3.12,3.12,0,0,1,.53,2,3.94,3.94,0,0,1-.17,1.2,2.61,2.61,0,0,1-.5.92,2.18,2.18,0,0,1-.81.59,2.85,2.85,0,0,1-1.12.21,2.33,2.33,0,0,1-.59-.07,3.21,3.21,0,0,1-.5-.17v2.07h-1.4Zm2.54,1a1.13,1.13,0,0,0-.74.22,1.36,1.36,0,0,0-.4.67v2a1.37,1.37,0,0,0,.38.22,1.5,1.5,0,0,0,.53.08,1.2,1.2,0,0,0,1-.42A2.23,2.23,0,0,0,151,33a1.89,1.89,0,0,0-.26-1.05A1,1,0,0,0,149.92,31.6Z"/><path d="M153.56,30.94a5.26,5.26,0,0,1,1.11-.33,6.91,6.91,0,0,1,1.35-.13,2.84,2.84,0,0,1,.92.13,1.4,1.4,0,0,1,.6.38,1.44,1.44,0,0,1,.31.59,2.87,2.87,0,0,1,.1.76q0,.51,0,1t0,1.06a5.41,5.41,0,0,0,0,.74,4,4,0,0,0,.16.69h-1.14l-.23-.78h-.12a2.4,2.4,0,0,1-.66.6,1.91,1.91,0,0,1-1,.25,2.1,2.1,0,0,1-.7-.11,1.55,1.55,0,0,1-.54-.31,1.44,1.44,0,0,1-.35-.49,1.48,1.48,0,0,1-.12-.61,1.59,1.59,0,0,1,.59-1.34,3,3,0,0,1,1.81-.46,3.6,3.6,0,0,1,.56,0l.39.07a2.66,2.66,0,0,0,0-.36.74.74,0,0,0-.19-.56,1,1,0,0,0-.71-.18,3.81,3.81,0,0,0-.93.12,4.21,4.21,0,0,0-.81.29Zm1.83,3.85a1.18,1.18,0,0,0,.75-.22,1.53,1.53,0,0,0,.41-.46v-.6l-.16,0-.23,0-.25,0h-.23a1.33,1.33,0,0,0-.8.2.59.59,0,0,0-.26.49.68.68,0,0,0,.21.54A.81.81,0,0,0,155.39,34.79Z"/><path d="M159.39,34.47l.32.14.4.13.44.1a2.54,2.54,0,0,0,.46,0,1.11,1.11,0,0,0,.54-.11.43.43,0,0,0,.2-.41.38.38,0,0,0-.26-.36,5.22,5.22,0,0,0-.64-.22l-.58-.19a2.21,2.21,0,0,1-.56-.29,1.45,1.45,0,0,1-.42-.48,1.58,1.58,0,0,1-.17-.76,1.49,1.49,0,0,1,.49-1.21,2.12,2.12,0,0,1,1.41-.42,5.7,5.7,0,0,1,1.13.11,4.21,4.21,0,0,1,.85.25l-.29,1.06a6.46,6.46,0,0,0-.67-.21,3.3,3.3,0,0,0-.83-.1,1,1,0,0,0-.52.1.4.4,0,0,0-.17.37.37.37,0,0,0,.27.34,5.36,5.36,0,0,0,.64.23l.59.18a2.14,2.14,0,0,1,.55.29,1.49,1.49,0,0,1,.42.46,1.41,1.41,0,0,1,.17.71,1.61,1.61,0,0,1-.54,1.3A2.48,2.48,0,0,1,161,36a5.43,5.43,0,0,1-1.1-.11,2.56,2.56,0,0,1-.83-.3Z"/><path d="M164.22,34.47l.32.14.4.13.44.1a2.54,2.54,0,0,0,.46,0,1.11,1.11,0,0,0,.54-.11.43.43,0,0,0,.2-.41.38.38,0,0,0-.26-.36,5.22,5.22,0,0,0-.64-.22l-.58-.19a2.21,2.21,0,0,1-.56-.29,1.45,1.45,0,0,1-.42-.48,1.58,1.58,0,0,1-.17-.76,1.49,1.49,0,0,1,.49-1.21,2.12,2.12,0,0,1,1.41-.42,5.7,5.7,0,0,1,1.13.11,4.21,4.21,0,0,1,.85.25l-.29,1.06a6.46,6.46,0,0,0-.67-.21,3.3,3.3,0,0,0-.83-.1,1,1,0,0,0-.52.1.4.4,0,0,0-.17.37.37.37,0,0,0,.27.34,5.36,5.36,0,0,0,.64.23l.59.18a2.14,2.14,0,0,1,.55.29,1.49,1.49,0,0,1,.42.46,1.41,1.41,0,0,1,.17.71,1.61,1.61,0,0,1-.54,1.3,2.48,2.48,0,0,1-1.63.46,5.43,5.43,0,0,1-1.1-.11,2.56,2.56,0,0,1-.83-.3Z"/><path d="M173.11,30.58q.27.66.53,1.33t.53,1.33l.2.88h.15l.15-.89q.18-.67.37-1.33t.37-1.33h1.28l-1.79,5.3h-1q-.27-.69-.58-1.44T172.73,33l-.14-.68h-.18c0,.11,0,.23-.07.34s0,.23-.07.34l-1.09,2.88h-1.06l-1.84-5.3h1.52l.84,2.59.14,1h.15l.2-1,1-2.58Z"/><path d="M176.92,33.21a2.88,2.88,0,0,1,.69-2,2.56,2.56,0,0,1,2-.74,3,3,0,0,1,1.17.21,2.25,2.25,0,0,1,.83.58,2.49,2.49,0,0,1,.5.88,3.79,3.79,0,0,1,0,2.26,2.43,2.43,0,0,1-.52.88,2.23,2.23,0,0,1-.83.55,3.12,3.12,0,0,1-1.12.19,3,3,0,0,1-1.18-.21,2.24,2.24,0,0,1-.83-.58,2.41,2.41,0,0,1-.49-.88A3.58,3.58,0,0,1,176.92,33.21Zm1.44,0a2.63,2.63,0,0,0,.07.62,1.57,1.57,0,0,0,.21.5,1.1,1.1,0,0,0,.38.34,1.12,1.12,0,0,0,.56.13q1.22,0,1.22-1.6a3,3,0,0,0-.07-.64,1.48,1.48,0,0,0-.21-.51,1,1,0,0,0-.38-.33,1.23,1.23,0,0,0-.56-.12,1.11,1.11,0,0,0-.89.38A1.88,1.88,0,0,0,178.36,33.21Z"/><path d="M186.48,31.86a1.9,1.9,0,0,0-.6-.1,1.19,1.19,0,0,0-.73.21,1,1,0,0,0-.37.53v3.33h-1.4V30.58h1.1l.15.73h.13a1.55,1.55,0,0,1,.54-.63,1.37,1.37,0,0,1,.77-.22,2.1,2.1,0,0,1,.62.11Z"/><path d="M192.22,34q0,.42,0,.87a7.54,7.54,0,0,0,.09,1h-1l-.2-.73H191a1.66,1.66,0,0,1-.65.63,2.34,2.34,0,0,1-2.64-.42,3,3,0,0,1-.58-2,4,4,0,0,1,.16-1.19,2.45,2.45,0,0,1,.49-.9,2.18,2.18,0,0,1,.8-.57,2.88,2.88,0,0,1,1.11-.2,3,3,0,0,1,.6.05l.5.13v-1.8h1.4Zm-2.51.82a1.11,1.11,0,0,0,.73-.22,1.23,1.23,0,0,0,.38-.61v-2.1a1.25,1.25,0,0,0-.38-.21,1.83,1.83,0,0,0-.54-.06,1.22,1.22,0,0,0-1,.39,2.12,2.12,0,0,0-.33,1.34,1.86,1.86,0,0,0,.28,1.07A1,1,0,0,0,189.71,34.81Z"/></g><g id="Layer_1" data-name="Layer 1"><path d="M71.44,22.07A1.63,1.63,0,0,0,71.06,21a5,5,0,0,0-.95-.85q-.57-.4-1.24-.82a7.31,7.31,0,0,1-1.24-1,4.89,4.89,0,0,1-1-1.32,4.13,4.13,0,0,1-.38-1.86,4.31,4.31,0,0,1,.31-1.73,3.09,3.09,0,0,1,.85-1.16,3.44,3.44,0,0,1,1.28-.66,5.76,5.76,0,0,1,1.58-.21,8.6,8.6,0,0,1,1.9.2,5.15,5.15,0,0,1,1.46.54l-.78,2.22a3.55,3.55,0,0,0-1-.44,5.05,5.05,0,0,0-1.45-.2,2,2,0,0,0-1.2.32,1.11,1.11,0,0,0-.42.94,1.45,1.45,0,0,0,.38,1,5.38,5.38,0,0,0,.95.83q.57.4,1.24.83a7.4,7.4,0,0,1,1.24,1A5,5,0,0,1,73.58,20,4.09,4.09,0,0,1,74,21.79a5,5,0,0,1-.31,1.84,3.36,3.36,0,0,1-.88,1.29,3.79,3.79,0,0,1-1.37.77,5.75,5.75,0,0,1-1.78.26,8.73,8.73,0,0,1-2.17-.24A5.55,5.55,0,0,1,66,25.17l.82-2.26a5.92,5.92,0,0,0,1.1.48,4.62,4.62,0,0,0,1.5.24Q71.44,23.63,71.44,22.07Z"/><path d="M75.22,12.85a1.36,1.36,0,0,1,.38-1,1.44,1.44,0,0,1,1.08-.39,1.61,1.61,0,0,1,1.12.38,1.28,1.28,0,0,1,.42,1,1.22,1.22,0,0,1-.42,1,1.66,1.66,0,0,1-1.12.36,1.48,1.48,0,0,1-1.08-.37A1.29,1.29,0,0,1,75.22,12.85Zm.26,2.82h2.38v10H75.48Z"/><path d="M86.94,25.67a4.46,4.46,0,0,1-1,3.21,3.7,3.7,0,0,1-2.78,1,7.74,7.74,0,0,1-1.94-.19,4.62,4.62,0,0,1-1.08-.41l.5-2q.44.18.95.34a4.07,4.07,0,0,0,1.21.16,1.62,1.62,0,0,0,1.41-.55,2.9,2.9,0,0,0,.39-1.67V25h-.06a1.71,1.71,0,0,1-.75.6,3.11,3.11,0,0,1-1.21.2,2.65,2.65,0,0,1-2.37-1.19,7,7,0,0,1-.79-3.77,6.37,6.37,0,0,1,1.09-4.1,3.81,3.81,0,0,1,3.11-1.32,10.06,10.06,0,0,1,1.94.17,6.3,6.3,0,0,1,1.38.41Zm-3.7-1.88a1.29,1.29,0,0,0,.85-.26,1.6,1.6,0,0,0,.47-.74v-5a2.48,2.48,0,0,0-.49-.16,2.92,2.92,0,0,0-.63-.06,1.27,1.27,0,0,0-1.15.72,5.38,5.38,0,0,0-.41,2.48Q81.88,23.79,83.24,23.79Z"/><path d="M93.6,25.67V19.59A3.26,3.26,0,0,0,93.34,18a.94.94,0,0,0-.88-.44,1.36,1.36,0,0,0-.9.32,1.75,1.75,0,0,0-.54.8v6.94H88.64v-10h1.9l.28,1.16h.06a3.22,3.22,0,0,1,1-1,2.89,2.89,0,0,1,1.62-.41,3,3,0,0,1,1.07.18,1.81,1.81,0,0,1,.79.59,2.81,2.81,0,0,1,.48,1.1A7.73,7.73,0,0,1,96,19v6.66Z"/><path d="M101.66,12.85a1.36,1.36,0,0,1,.38-1,1.44,1.44,0,0,1,1.08-.39,1.61,1.61,0,0,1,1.12.38,1.29,1.29,0,0,1,.42,1,1.23,1.23,0,0,1-.42,1,1.67,1.67,0,0,1-1.12.36,1.48,1.48,0,0,1-1.08-.37A1.29,1.29,0,0,1,101.66,12.85Zm.26,2.82h2.38v10h-2.38Z"/><path d="M111.18,25.67V19.59a3.27,3.27,0,0,0-.26-1.54.94.94,0,0,0-.88-.44,1.36,1.36,0,0,0-.9.32,1.75,1.75,0,0,0-.54.8v6.94h-2.38v-10h1.9l.28,1.16h.06a3.22,3.22,0,0,1,1-1,2.89,2.89,0,0,1,1.62-.41,3,3,0,0,1,1.07.18,1.82,1.82,0,0,1,.79.59,2.8,2.8,0,0,1,.48,1.1,7.73,7.73,0,0,1,.16,1.71v6.66Z"/><path d="M125.24,15.67l1.4,5.12.24,1.66H127l.2-1.68.94-5.1h2.16l-2.46,10.1h-1.88l-1.5-5.58-.16-1.28h-.12L124,20.23l-1.44,5.54h-1.94l-2.56-10.1h2.58l1.08,5,.18,1.78H122l.26-1.8,1.22-5Z"/><path d="M130.92,12.85a1.36,1.36,0,0,1,.38-1,1.44,1.44,0,0,1,1.08-.39,1.61,1.61,0,0,1,1.12.38,1.28,1.28,0,0,1,.42,1,1.22,1.22,0,0,1-.42,1,1.66,1.66,0,0,1-1.12.36,1.48,1.48,0,0,1-1.08-.37A1.29,1.29,0,0,1,130.92,12.85Zm.26,2.82h2.38v10h-2.38Z"/><path d="M134.7,15.67h1.1V13.79l2.38-.74v2.62h1.94v2.12h-1.94v4.36a3.11,3.11,0,0,0,.17,1.22.62.62,0,0,0,.61.36,2.22,2.22,0,0,0,.54-.06,3.45,3.45,0,0,0,.52-.18l.3,1.9a5.16,5.16,0,0,1-1,.37,4.83,4.83,0,0,1-1.22.15,2.13,2.13,0,0,1-1.71-.66A3.39,3.39,0,0,1,135.8,23V17.79h-1.1Z"/><path d="M146.26,25.67v-6a3.58,3.58,0,0,0-.25-1.56.93.93,0,0,0-.91-.48,1.33,1.33,0,0,0-.88.34,1.66,1.66,0,0,0-.54.86v6.88H141.3v-14h2.38v4.9h.06a3.16,3.16,0,0,1,1-.84,2.88,2.88,0,0,1,1.43-.32,3,3,0,0,1,1.08.18,1.79,1.79,0,0,1,.78.6,2.92,2.92,0,0,1,.48,1.13,8.36,8.36,0,0,1,.16,1.79v6.56Z"/><path d="M154.42,11.67h7V14h-4.48v3.44H161v2.32h-4.06v3.6h4.56v2.32h-7.08Z"/><path d="M167.6,25.67V19.85a5.24,5.24,0,0,0-.2-1.75.76.76,0,0,0-.78-.49,1.07,1.07,0,0,0-.79.31,2,2,0,0,0-.47.75v7H163v-10h1.84l.3,1.2h.06a3.53,3.53,0,0,1,1-1,2.54,2.54,0,0,1,1.51-.41,2.18,2.18,0,0,1,1.27.34,2.25,2.25,0,0,1,.77,1.2,3,3,0,0,1,1-1.13,2.59,2.59,0,0,1,1.46-.41,3.33,3.33,0,0,1,1.13.17,1.54,1.54,0,0,1,.76.59,3,3,0,0,1,.43,1.15,10.15,10.15,0,0,1,.14,1.85v6.48h-2.38V19.59a4.59,4.59,0,0,0-.18-1.5.76.76,0,0,0-.8-.48,1.14,1.14,0,0,0-.81.29,1.66,1.66,0,0,0-.45.79v7Z"/><path d="M176.26,16.27a5.43,5.43,0,0,1,1.5-.58,8.63,8.63,0,0,1,2-.22,2.81,2.81,0,0,1,2.37.88,4.06,4.06,0,0,1,.67,2.5q0,.94,0,1.85t-.07,1.78q0,.87,0,1.68a6.62,6.62,0,0,0,.27,1.53h-1.94l-.38-1.22h-.08a2.69,2.69,0,0,1-.9,1,2.61,2.61,0,0,1-1.46.38A2.32,2.32,0,0,1,176.4,25a3.12,3.12,0,0,1-.68-2.11A2.74,2.74,0,0,1,177,20.35a6.08,6.08,0,0,1,3.46-.64,3.46,3.46,0,0,0-.15-1.68,1.07,1.07,0,0,0-1.07-.52,5.8,5.8,0,0,0-1.24.14,4.62,4.62,0,0,0-1.14.4Zm2.86,7.5a1.37,1.37,0,0,0,.88-.27,1.78,1.78,0,0,0,.5-.59V21.25a3.88,3.88,0,0,0-.88,0,2.41,2.41,0,0,0-.74.18,1.19,1.19,0,0,0-.51.41,1.17,1.17,0,0,0-.19.69,1.51,1.51,0,0,0,.25.94A.83.83,0,0,0,179.12,23.77Z"/><path d="M184.44,12.85a1.36,1.36,0,0,1,.38-1,1.44,1.44,0,0,1,1.08-.39,1.6,1.6,0,0,1,1.12.38,1.28,1.28,0,0,1,.42,1,1.22,1.22,0,0,1-.42,1,1.66,1.66,0,0,1-1.12.36,1.48,1.48,0,0,1-1.08-.37A1.29,1.29,0,0,1,184.44,12.85Zm.26,2.82h2.38v10H184.7Z"/><path d="M191.42,22.43a2.57,2.57,0,0,0,.14,1,.48.48,0,0,0,.46.3,1.82,1.82,0,0,0,.37,0,2.4,2.4,0,0,0,.43-.14l.22,1.92a2.71,2.71,0,0,1-.82.3,5,5,0,0,1-1.18.14,2,2,0,0,1-1.5-.5,2.36,2.36,0,0,1-.5-1.7v-12h2.38Z"/><path d="M16.37,8.13l2.24,3.76,1.61,5,1.88-5.11,2.15-3.58,4.3,2.33L26.23,14.4l-4.12,4.3,6.09-1.08h4.3v5H28.38l-5.73-1.07,4.12,4.3,2.06,3.5-4.21,2.51-2.33-3.76-2.06-5.47-1.7,5.2L16.28,31.6l-4.48-2.51,2.42-3.76L18,21.57l-5.19,1.07H8.31v-5h4.48l5.56,1.08-4-3.94L12,10.64Z"/></g></svg>