<svg xmlns="http://www.w3.org/2000/svg" xmlns:xlink="http://www.w3.org/1999/xlink" viewBox="0 0 200 40"><defs><style>.cls-1{fill:url(#linear-gradient)}.cls-2{fill:url(#linear-gradient-2)}.cls-3{clip-path:url(#clip-path)}.cls-4{fill:url(#linear-gradient-4)}.cls-5{clip-path:url(#clip-path-2)}.cls-6{fill:url(#linear-gradient-6)}</style><linearGradient id="linear-gradient" x1="117.5" x2="117.5" y1="40" gradientUnits="userSpaceOnUse"><stop offset="0" stop-color="#00a7bf"/><stop offset="1" stop-color="#72cddf"/></linearGradient><linearGradient id="linear-gradient-2" x1="27.5" x2="27.5" y2="40" gradientUnits="userSpaceOnUse"><stop offset="0" stop-color="#00a7bf"/><stop offset="1" stop-color="#048baa"/></linearGradient><clipPath id="clip-path"><path id="SVGID" d="M55,20,35,40H196a4,4,0,0,0,4-4V4a4,4,0,0,0-4-4H35" class="cls-1"/></clipPath><linearGradient id="linear-gradient-4" x1="100" x2="100" y2="0" xlink:href="#linear-gradient"/><clipPath id="clip-path-2"><path id="SVGID-2" d="M4,40a4,4,0,0,1-4-4V4A4,4,0,0,1,4,0H35L55,20,35,40" class="cls-2" data-name="SVGID"/></clipPath><linearGradient id="linear-gradient-6" x1="100" x2="100" y2="40" xlink:href="#linear-gradient-2"/></defs><title>sign-in-with-email</title><g id="Background"><path id="SVGID-3" d="M55,20,35,40H196a4,4,0,0,0,4-4V4a4,4,0,0,0-4-4H35" class="cls-1" data-name="SVGID"/><g class="cls-3"><rect width="200" height="40" class="cls-4" rx="4" ry="4"/></g><path id="SVGID-4" d="M4,40a4,4,0,0,1-4-4V4A4,4,0,0,1,4,0H35L55,20,35,40" class="cls-2" data-name="SVGID"/><g class="cls-5"><rect width="200" height="40" class="cls-6" rx="4" ry="4"/></g><path d="M120,33.3l.21.81h.16l.15-.83,1-2.7H123l-2.4,5.3h-.8l-2.5-5.3h1.63Z"/><path d="M123.57,29.45a.7.7,0,0,1,.23-.54.92.92,0,0,1,.65-.21,1,1,0,0,1,.68.22.68.68,0,0,1,.25.53.63.63,0,0,1-.25.5,1,1,0,0,1-.68.21.93.93,0,0,1-.65-.21A.65.65,0,0,1,123.57,29.45Zm.21,1.13h1.4v5.25h-1.4Z"/><path d="M126.73,30.94a5.28,5.28,0,0,1,1.11-.33,6.93,6.93,0,0,1,1.36-.13,2.84,2.84,0,0,1,.92.13,1.4,1.4,0,0,1,.59.38,1.43,1.43,0,0,1,.31.59,2.83,2.83,0,0,1,.1.76q0,.51,0,1t0,1.06a5.41,5.41,0,0,0,0,.74,3.94,3.94,0,0,0,.16.69h-1.14l-.23-.78h-.12a2.41,2.41,0,0,1-.66.6,1.92,1.92,0,0,1-1,.25,2.1,2.1,0,0,1-.69-.11,1.55,1.55,0,0,1-.54-.31,1.44,1.44,0,0,1-.35-.49,1.47,1.47,0,0,1-.12-.61A1.59,1.59,0,0,1,127,33a3,3,0,0,1,1.81-.46,3.59,3.59,0,0,1,.56,0l.39.07a2.68,2.68,0,0,0,0-.36.74.74,0,0,0-.19-.56,1,1,0,0,0-.71-.18,3.82,3.82,0,0,0-.93.12,4.2,4.2,0,0,0-.8.29Zm1.83,3.85a1.18,1.18,0,0,0,.75-.22,1.5,1.5,0,0,0,.41-.46v-.6l-.15,0-.23,0-.25,0h-.22a1.34,1.34,0,0,0-.8.2.59.59,0,0,0-.26.49.68.68,0,0,0,.21.54A.81.81,0,0,0,128.56,34.79Z"/><path d="M139.82,35.35a3,3,0,0,1-.92.45,4.15,4.15,0,0,1-1.26.19,2.46,2.46,0,0,1-2-.74,3,3,0,0,1-.63-2,2.81,2.81,0,0,1,.71-2.08,2.72,2.72,0,0,1,2-.71,3.31,3.31,0,0,1,.83.11,2,2,0,0,1,.73.35,1.77,1.77,0,0,1,.52.66,2.42,2.42,0,0,1,.19,1c0,.14,0,.29,0,.46a4.39,4.39,0,0,1-.09.52h-3.5a1.48,1.48,0,0,0,.4,1,1.61,1.61,0,0,0,1.13.33,2.6,2.6,0,0,0,1.42-.41Zm-2.1-3.82a1.17,1.17,0,0,0-.92.33,1.45,1.45,0,0,0-.35.85h2.26a1.26,1.26,0,0,0-.2-.87A.92.92,0,0,0,137.72,31.53Z"/><path d="M144.55,35.83V33.09a2.67,2.67,0,0,0-.16-1.09.66.66,0,0,0-.66-.33,1,1,0,0,0-.67.21,1.37,1.37,0,0,0-.39.54v3.42h-1.4V30.58h1.08l.16.73h.13a2.68,2.68,0,0,1,.3-.33,2,2,0,0,1,.38-.28,2,2,0,0,1,.46-.2,2,2,0,0,1,.58-.08,1.4,1.4,0,0,1,1.45,1,2.27,2.27,0,0,1,.71-.75,1.73,1.73,0,0,1,1-.27,2.63,2.63,0,0,1,.81.11,1.1,1.1,0,0,1,.54.38,1.75,1.75,0,0,1,.31.73,5.81,5.81,0,0,1,.09,1.15v3h-1.4V33a5,5,0,0,0,0-.58,1.26,1.26,0,0,0-.12-.43.59.59,0,0,0-.25-.26,1,1,0,0,0-.44-.08,1,1,0,0,0-.67.21,1.18,1.18,0,0,0-.37.6v3.35Z"/><path d="M150.62,30.94a5.25,5.25,0,0,1,1.1-.33,6.92,6.92,0,0,1,1.35-.13,2.85,2.85,0,0,1,.93.13,1.4,1.4,0,0,1,.59.38,1.45,1.45,0,0,1,.32.59,2.91,2.91,0,0,1,.09.76q0,.51,0,1c0,.33,0,.69,0,1.06a5.41,5.41,0,0,0,0,.74,3.85,3.85,0,0,0,.16.69H154l-.23-.78h-.12a2.38,2.38,0,0,1-.66.6,1.91,1.91,0,0,1-1,.25,2.1,2.1,0,0,1-.7-.11,1.54,1.54,0,0,1-.54-.31,1.47,1.47,0,0,1-.35-.49,1.5,1.5,0,0,1-.12-.61,1.59,1.59,0,0,1,.6-1.34,3,3,0,0,1,1.8-.46,3.61,3.61,0,0,1,.56,0l.39.07a2.52,2.52,0,0,0,0-.36.74.74,0,0,0-.19-.56,1,1,0,0,0-.71-.18,3.82,3.82,0,0,0-.93.12A4.26,4.26,0,0,0,151,32Zm1.83,3.85a1.19,1.19,0,0,0,.75-.22,1.55,1.55,0,0,0,.41-.46v-.6l-.16,0-.23,0-.25,0h-.23a1.33,1.33,0,0,0-.8.2.59.59,0,0,0-.26.49.68.68,0,0,0,.2.54A.81.81,0,0,0,152.45,34.79Z"/><path d="M156.42,29.45a.7.7,0,0,1,.23-.54.91.91,0,0,1,.65-.21,1,1,0,0,1,.68.22.68.68,0,0,1,.25.53.64.64,0,0,1-.25.5,1,1,0,0,1-.68.21.93.93,0,0,1-.65-.21A.65.65,0,0,1,156.42,29.45Zm.21,1.13H158v5.25h-1.4Z"/><path d="M161.06,34q0,.76.49.76l.26,0,.3-.08.17,1.09a3.25,3.25,0,0,1-.57.17A3.31,3.31,0,0,1,161,36a1.47,1.47,0,0,1-1-.28,1.13,1.13,0,0,1-.33-.92v-6h1.4Z"/><path d="M165.12,30.58h.8v-.72l1.4-.37v1.09h1.41v1.17h-1.41v1.82a2.34,2.34,0,0,0,.13.9.49.49,0,0,0,.49.28,1.85,1.85,0,0,0,.39,0,1.77,1.77,0,0,0,.34-.12l.29,1.05a4.45,4.45,0,0,1-.74.24,3.39,3.39,0,0,1-.8.1,1.5,1.5,0,0,1-1.14-.38,1.77,1.77,0,0,1-.36-1.24V31.75h-.8Z"/><path d="M169.44,33.21a2.88,2.88,0,0,1,.69-2,2.56,2.56,0,0,1,2-.74,3,3,0,0,1,1.17.21,2.24,2.24,0,0,1,.83.58,2.49,2.49,0,0,1,.5.88,3.56,3.56,0,0,1,.16,1.1,3.49,3.49,0,0,1-.18,1.16,2.42,2.42,0,0,1-.52.88,2.23,2.23,0,0,1-.84.55,3.12,3.12,0,0,1-1.12.19,3,3,0,0,1-1.18-.21,2.25,2.25,0,0,1-.83-.58,2.44,2.44,0,0,1-.49-.88A3.61,3.61,0,0,1,169.44,33.21Zm1.44,0a2.63,2.63,0,0,0,.07.62,1.53,1.53,0,0,0,.21.5,1.09,1.09,0,0,0,.38.34,1.12,1.12,0,0,0,.56.13q1.22,0,1.22-1.6a3,3,0,0,0-.07-.64,1.48,1.48,0,0,0-.21-.51,1,1,0,0,0-.38-.33,1.23,1.23,0,0,0-.57-.12,1.11,1.11,0,0,0-.89.38A1.88,1.88,0,0,0,170.88,33.21Z"/><path d="M177.78,33.65h-.48v2.18h-1.4v-7h1.4v4l.44-.19,1.31-2.08h1.54l-1.34,1.91h0l-.64.46.67.44h0l1.54,2.44H179.2Z"/><path d="M185.89,35.35a3,3,0,0,1-.93.45,4.15,4.15,0,0,1-1.25.19,2.46,2.46,0,0,1-2-.74,3,3,0,0,1-.63-2,2.8,2.8,0,0,1,.71-2.08,2.72,2.72,0,0,1,2-.71,3.32,3.32,0,0,1,.83.11,2,2,0,0,1,.73.35,1.74,1.74,0,0,1,.51.66,2.39,2.39,0,0,1,.2,1,4.7,4.7,0,0,1-.11,1h-3.5a1.47,1.47,0,0,0,.39,1,1.61,1.61,0,0,0,1.13.33,2.6,2.6,0,0,0,1.42-.41Zm-2.1-3.82a1.17,1.17,0,0,0-.92.33,1.45,1.45,0,0,0-.35.85h2.26a1.26,1.26,0,0,0-.2-.87A.93.93,0,0,0,183.79,31.53Z"/><path d="M190.88,35.83V33a1.75,1.75,0,0,0-.21-1,.84.84,0,0,0-.74-.3,1.21,1.21,0,0,0-.76.25,1.25,1.25,0,0,0-.43.63q0,.82,0,1.65t0,1.64h-1.4V30.58h1.1l.15.75h.15a2.33,2.33,0,0,1,.69-.63,2.11,2.11,0,0,1,1.12-.27,2.41,2.41,0,0,1,.74.11,1.15,1.15,0,0,1,.54.36,1.76,1.76,0,0,1,.33.68,4.24,4.24,0,0,1,.12,1.08v3.17Z"/></g><g id="Layer_1" data-name="Layer 1"><path d="M71.44,22.07A1.63,1.63,0,0,0,71.06,21a5,5,0,0,0-.95-.85q-.57-.4-1.24-.82a7.31,7.31,0,0,1-1.24-1,4.89,4.89,0,0,1-1-1.32,4.13,4.13,0,0,1-.38-1.86,4.31,4.31,0,0,1,.31-1.73,3.09,3.09,0,0,1,.85-1.16,3.44,3.44,0,0,1,1.28-.66,5.76,5.76,0,0,1,1.58-.21,8.6,8.6,0,0,1,1.9.2,5.15,5.15,0,0,1,1.46.54l-.78,2.22a3.55,3.55,0,0,0-1-.44,5.05,5.05,0,0,0-1.45-.2,2,2,0,0,0-1.2.32,1.11,1.11,0,0,0-.42.94,1.45,1.45,0,0,0,.38,1,5.38,5.38,0,0,0,.95.83q.57.4,1.24.83a7.4,7.4,0,0,1,1.24,1A5,5,0,0,1,73.58,20,4.09,4.09,0,0,1,74,21.79a5,5,0,0,1-.31,1.84,3.36,3.36,0,0,1-.88,1.29,3.79,3.79,0,0,1-1.37.77,5.75,5.75,0,0,1-1.78.26,8.73,8.73,0,0,1-2.17-.24A5.55,5.55,0,0,1,66,25.17l.82-2.26a5.92,5.92,0,0,0,1.1.48,4.62,4.62,0,0,0,1.5.24Q71.44,23.63,71.44,22.07Z"/><path d="M75.22,12.85a1.36,1.36,0,0,1,.38-1,1.44,1.44,0,0,1,1.08-.39,1.61,1.61,0,0,1,1.12.38,1.28,1.28,0,0,1,.42,1,1.22,1.22,0,0,1-.42,1,1.66,1.66,0,0,1-1.12.36,1.48,1.48,0,0,1-1.08-.37A1.29,1.29,0,0,1,75.22,12.85Zm.26,2.82h2.38v10H75.48Z"/><path d="M86.94,25.67a4.46,4.46,0,0,1-1,3.21,3.7,3.7,0,0,1-2.78,1,7.74,7.74,0,0,1-1.94-.19,4.62,4.62,0,0,1-1.08-.41l.5-2q.44.18.95.34a4.07,4.07,0,0,0,1.21.16,1.62,1.62,0,0,0,1.41-.55,2.9,2.9,0,0,0,.39-1.67V25h-.06a1.71,1.71,0,0,1-.75.6,3.11,3.11,0,0,1-1.21.2,2.65,2.65,0,0,1-2.37-1.19,7,7,0,0,1-.79-3.77,6.37,6.37,0,0,1,1.09-4.1,3.81,3.81,0,0,1,3.11-1.32,10.06,10.06,0,0,1,1.94.17,6.3,6.3,0,0,1,1.38.41Zm-3.7-1.88a1.29,1.29,0,0,0,.85-.26,1.6,1.6,0,0,0,.47-.74v-5a2.48,2.48,0,0,0-.49-.16,2.92,2.92,0,0,0-.63-.06,1.27,1.27,0,0,0-1.15.72,5.38,5.38,0,0,0-.41,2.48Q81.88,23.79,83.24,23.79Z"/><path d="M93.6,25.67V19.59A3.26,3.26,0,0,0,93.34,18a.94.94,0,0,0-.88-.44,1.36,1.36,0,0,0-.9.32,1.75,1.75,0,0,0-.54.8v6.94H88.64v-10h1.9l.28,1.16h.06a3.22,3.22,0,0,1,1-1,2.89,2.89,0,0,1,1.62-.41,3,3,0,0,1,1.07.18,1.81,1.81,0,0,1,.79.59,2.81,2.81,0,0,1,.48,1.1A7.73,7.73,0,0,1,96,19v6.66Z"/><path d="M101.66,12.85a1.36,1.36,0,0,1,.38-1,1.44,1.44,0,0,1,1.08-.39,1.61,1.61,0,0,1,1.12.38,1.29,1.29,0,0,1,.42,1,1.23,1.23,0,0,1-.42,1,1.67,1.67,0,0,1-1.12.36,1.48,1.48,0,0,1-1.08-.37A1.29,1.29,0,0,1,101.66,12.85Zm.26,2.82h2.38v10h-2.38Z"/><path d="M111.18,25.67V19.59a3.27,3.27,0,0,0-.26-1.54.94.94,0,0,0-.88-.44,1.36,1.36,0,0,0-.9.32,1.75,1.75,0,0,0-.54.8v6.94h-2.38v-10h1.9l.28,1.16h.06a3.22,3.22,0,0,1,1-1,2.89,2.89,0,0,1,1.62-.41,3,3,0,0,1,1.07.18,1.82,1.82,0,0,1,.79.59,2.8,2.8,0,0,1,.48,1.1,7.73,7.73,0,0,1,.16,1.71v6.66Z"/><path d="M125.24,15.67l1.4,5.12.24,1.66H127l.2-1.68.94-5.1h2.16l-2.46,10.1h-1.88l-1.5-5.58-.16-1.28h-.12L124,20.23l-1.44,5.54h-1.94l-2.56-10.1h2.58l1.08,5,.18,1.78H122l.26-1.8,1.22-5Z"/><path d="M130.92,12.85a1.36,1.36,0,0,1,.38-1,1.44,1.44,0,0,1,1.08-.39,1.61,1.61,0,0,1,1.12.38,1.28,1.28,0,0,1,.42,1,1.22,1.22,0,0,1-.42,1,1.66,1.66,0,0,1-1.12.36,1.48,1.48,0,0,1-1.08-.37A1.29,1.29,0,0,1,130.92,12.85Zm.26,2.82h2.38v10h-2.38Z"/><path d="M134.7,15.67h1.1V13.79l2.38-.74v2.62h1.94v2.12h-1.94v4.36a3.11,3.11,0,0,0,.17,1.22.62.62,0,0,0,.61.36,2.22,2.22,0,0,0,.54-.06,3.45,3.45,0,0,0,.52-.18l.3,1.9a5.16,5.16,0,0,1-1,.37,4.83,4.83,0,0,1-1.22.15,2.13,2.13,0,0,1-1.71-.66A3.39,3.39,0,0,1,135.8,23V17.79h-1.1Z"/><path d="M146.26,25.67v-6a3.58,3.58,0,0,0-.25-1.56.93.93,0,0,0-.91-.48,1.33,1.33,0,0,0-.88.34,1.66,1.66,0,0,0-.54.86v6.88H141.3v-14h2.38v4.9h.06a3.16,3.16,0,0,1,1-.84,2.88,2.88,0,0,1,1.43-.32,3,3,0,0,1,1.08.18,1.79,1.79,0,0,1,.78.6,2.92,2.92,0,0,1,.48,1.13,8.36,8.36,0,0,1,.16,1.79v6.56Z"/><path d="M154.42,11.67h7V14h-4.48v3.44H161v2.32h-4.06v3.6h4.56v2.32h-7.08Z"/><path d="M167.6,25.67V19.85a5.24,5.24,0,0,0-.2-1.75.76.76,0,0,0-.78-.49,1.07,1.07,0,0,0-.79.31,2,2,0,0,0-.47.75v7H163v-10h1.84l.3,1.2h.06a3.53,3.53,0,0,1,1-1,2.54,2.54,0,0,1,1.51-.41,2.18,2.18,0,0,1,1.27.34,2.25,2.25,0,0,1,.77,1.2,3,3,0,0,1,1-1.13,2.59,2.59,0,0,1,1.46-.41,3.33,3.33,0,0,1,1.13.17,1.54,1.54,0,0,1,.76.59,3,3,0,0,1,.43,1.15,10.15,10.15,0,0,1,.14,1.85v6.48h-2.38V19.59a4.59,4.59,0,0,0-.18-1.5.76.76,0,0,0-.8-.48,1.14,1.14,0,0,0-.81.29,1.66,1.66,0,0,0-.45.79v7Z"/><path d="M176.26,16.27a5.43,5.43,0,0,1,1.5-.58,8.63,8.63,0,0,1,2-.22,2.81,2.81,0,0,1,2.37.88,4.06,4.06,0,0,1,.67,2.5q0,.94,0,1.85t-.07,1.78q0,.87,0,1.68a6.62,6.62,0,0,0,.27,1.53h-1.94l-.38-1.22h-.08a2.69,2.69,0,0,1-.9,1,2.61,2.61,0,0,1-1.46.38A2.32,2.32,0,0,1,176.4,25a3.12,3.12,0,0,1-.68-2.11A2.74,2.74,0,0,1,177,20.35a6.08,6.08,0,0,1,3.46-.64,3.46,3.46,0,0,0-.15-1.68,1.07,1.07,0,0,0-1.07-.52,5.8,5.8,0,0,0-1.24.14,4.62,4.62,0,0,0-1.14.4Zm2.86,7.5a1.37,1.37,0,0,0,.88-.27,1.78,1.78,0,0,0,.5-.59V21.25a3.88,3.88,0,0,0-.88,0,2.41,2.41,0,0,0-.74.18,1.19,1.19,0,0,0-.51.41,1.17,1.17,0,0,0-.19.69,1.51,1.51,0,0,0,.25.94A.83.83,0,0,0,179.12,23.77Z"/><path d="M184.44,12.85a1.36,1.36,0,0,1,.38-1,1.44,1.44,0,0,1,1.08-.39,1.6,1.6,0,0,1,1.12.38,1.28,1.28,0,0,1,.42,1,1.22,1.22,0,0,1-.42,1,1.66,1.66,0,0,1-1.12.36,1.48,1.48,0,0,1-1.08-.37A1.29,1.29,0,0,1,184.44,12.85Zm.26,2.82h2.38v10H184.7Z"/><path d="M191.42,22.43a2.57,2.57,0,0,0,.14,1,.48.48,0,0,0,.46.3,1.82,1.82,0,0,0,.37,0,2.4,2.4,0,0,0,.43-.14l.22,1.92a2.71,2.71,0,0,1-.82.3,5,5,0,0,1-1.18.14,2,2,0,0,1-1.5-.5,2.36,2.36,0,0,1-.5-1.7v-12h2.38Z"/><path d="M25.31,14.59h1.9l-1.32,6.7q-.05.28-.09.51a2.78,2.78,0,0,0,0,.44,1.19,1.19,0,0,0,.26.86,1,1,0,0,0,.76.26,3.48,3.48,0,0,0,2.59-1.16,4.36,4.36,0,0,0,.86-1.5,6.55,6.55,0,0,0,.32-2.19,7.23,7.23,0,0,0-.69-3.29A6.21,6.21,0,0,0,28,13a7.86,7.86,0,0,0-2.77-1.28,13.85,13.85,0,0,0-3.39-.4,10.43,10.43,0,0,0-3.91.73,10,10,0,0,0-3.15,2,8.95,8.95,0,0,0-2.84,6.63,9.48,9.48,0,0,0,.63,3.52,7.31,7.31,0,0,0,1.84,2.7,8.26,8.26,0,0,0,3,1.74,13.07,13.07,0,0,0,4.19.61A9.46,9.46,0,0,0,23.35,29a8.86,8.86,0,0,0,1.81-.54L26,31.12a10.17,10.17,0,0,1-2.26.71,14.51,14.51,0,0,1-2.64.21,15.37,15.37,0,0,1-4.91-.75,10.81,10.81,0,0,1-3.85-2.2,10,10,0,0,1-2.51-3.54,12,12,0,0,1-.9-4.79,11.94,11.94,0,0,1,1-5,11.75,11.75,0,0,1,2.82-3.87,12.72,12.72,0,0,1,4.15-2.49,14.24,14.24,0,0,1,5-.87,14.72,14.72,0,0,1,4.63.7,11,11,0,0,1,3.69,2,9.27,9.27,0,0,1,3.34,7.31,7.25,7.25,0,0,1-.61,3,7.66,7.66,0,0,1-1.66,2.41,7.88,7.88,0,0,1-2.48,1.63,7.79,7.79,0,0,1-3,.6A5.47,5.47,0,0,1,24.49,26a2.31,2.31,0,0,1-1-.47,2,2,0,0,1-.59-.9,3.2,3.2,0,0,1-.09-1.39h-.1q-.43.58-.9,1.1a6.39,6.39,0,0,1-1,.92,4.91,4.91,0,0,1-1.25.64,4.61,4.61,0,0,1-1.51.24,3,3,0,0,1-1.24-.26,2.89,2.89,0,0,1-1-.75,3.69,3.69,0,0,1-.67-1.16,4.29,4.29,0,0,1-.25-1.5,8.26,8.26,0,0,1,.54-2.91A8.91,8.91,0,0,1,16.86,17,7.73,7.73,0,0,1,19,15.14a5.21,5.21,0,0,1,2.63-.7,4.28,4.28,0,0,1,1.6.26,5.05,5.05,0,0,1,1.22.71Zm-1.73,3.18a2.33,2.33,0,0,0-.74-.44,2.92,2.92,0,0,0-1-.14,2.89,2.89,0,0,0-1.51.41,4.33,4.33,0,0,0-1.19,1,5,5,0,0,0-.77,1.4,4.3,4.3,0,0,0-.27,1.46,2.28,2.28,0,0,0,.36,1.32,1.45,1.45,0,0,0,1.29.53,1.83,1.83,0,0,0,.83-.21,3.93,3.93,0,0,0,.84-.57,6,6,0,0,0,.79-.85,8.94,8.94,0,0,0,.67-1Z"/></g></svg>