<svg id="Background" xmlns="http://www.w3.org/2000/svg" xmlns:xlink="http://www.w3.org/1999/xlink" viewBox="0 0 200 40"><defs><style>.cls-1{fill:url(#linear-gradient);}.cls-2{fill:url(#linear-gradient-2);}.cls-3{clip-path:url(#clip-path);}.cls-4{fill:url(#linear-gradient-4);}.cls-5{clip-path:url(#clip-path-2);}.cls-6{fill:url(#linear-gradient-6);}.cls-7{font-size:10px;}.cls-7,.cls-9{font-family:PT Sans Caption;}.cls-7,.cls-8,.cls-9{font-weight:700;}.cls-8{font-size:20px;font-family:PT Sans Narrow;}.cls-9{font-size:25px;}</style><linearGradient id="linear-gradient" x1="117.5" y1="40" x2="117.5" gradientUnits="userSpaceOnUse"><stop offset="0" stop-color="#00a7bf"/><stop offset="1" stop-color="#72cddf"/></linearGradient><linearGradient id="linear-gradient-2" x1="27.5" x2="27.5" y2="40" gradientUnits="userSpaceOnUse"><stop offset="0" stop-color="#00a7bf"/><stop offset="1" stop-color="#048baa"/></linearGradient><clipPath id="clip-path"><path id="SVGID" class="cls-1" d="M55,20L35,40H196a4,4,0,0,0,4-4V4a4,4,0,0,0-4-4H35"/></clipPath><linearGradient id="linear-gradient-4" x1="100" y1="40" x2="100" y2="0" xlink:href="#linear-gradient"/><clipPath id="clip-path-2"><path id="SVGID-2" data-name="SVGID" class="cls-2" d="M4,40a4,4,0,0,1-4-4V4A4,4,0,0,1,4,0H35L55,20,35,40"/></clipPath><linearGradient id="linear-gradient-6" x1="100" y1="0" x2="100" y2="40" xlink:href="#linear-gradient-2"/></defs><title>sign-in-with-email</title><path id="SVGID-3" data-name="SVGID" class="cls-1" d="M55,20L35,40H196a4,4,0,0,0,4-4V4a4,4,0,0,0-4-4H35"/><g class="cls-3"><rect class="cls-4" width="200" height="40" rx="4" ry="4"/></g><path id="SVGID-4" data-name="SVGID" class="cls-2" d="M4,40a4,4,0,0,1-4-4V4A4,4,0,0,1,4,0H35L55,20,35,40"/><g class="cls-5"><rect class="cls-6" width="200" height="40" rx="4" ry="4"/></g><text class="cls-7" transform="translate(117.43 35.83)">via email <tspan x="47.61" y="0">t</tspan><tspan x="51.59" y="0">o</tspan><tspan x="57.75" y="0">k</tspan><tspan x="63.25" y="0">en</tspan></text><text class="cls-8" transform="translate(65.64 25.67)">Sign in<tspan x="48.7" y="0"> </tspan><tspan x="52.56" y="0">with Email</tspan></text><text class="cls-9" transform="translate(6.91 26.67)">@</text></svg>