<svg xmlns="http://www.w3.org/2000/svg" xmlns:xlink="http://www.w3.org/1999/xlink" viewBox="0 0 200 40"><defs><style>.cls-1{fill:none;}.cls-2{fill:url(#linear-gradient);}.cls-3{clip-path:url(#clip-path);}.cls-4{clip-path:url(#clip-path-2);}.cls-5{fill:url(#linear-gradient-3);}.cls-6{fill:url(#linear-gradient-4);}.cls-7{fill:#231f20;}</style><linearGradient id="linear-gradient" x1="117" y1="40" x2="117" gradientUnits="userSpaceOnUse"><stop offset="0" stop-color="#bf381d"/><stop offset="1" stop-color="#d9624a"/></linearGradient><clipPath id="clip-path"><rect class="cls-1" width="200" height="40" rx="4" ry="4"/></clipPath><clipPath id="clip-path-2"><polygon id="SVGID" class="cls-2" points="200 0 34 0 54 20 34 40 200 40 200 0"/></clipPath><linearGradient id="linear-gradient-3" x1="100" x2="100" y2="0" xlink:href="#linear-gradient"/><linearGradient id="linear-gradient-4" x1="27.5" x2="27.5" y2="40" gradientUnits="userSpaceOnUse"><stop offset="0" stop-color="#bf381d"/><stop offset="1" stop-color="#942c17"/></linearGradient></defs><title>sign-in-with-google</title><g id="Background"><g class="cls-3"><polygon id="SVGID-2" data-name="SVGID" class="cls-2" points="200 0 34 0 54 20 34 40 200 40 200 0"/><g class="cls-4"><rect class="cls-5" width="200" height="40" rx="4" ry="4"/></g><polygon id="SVGID-3" data-name="SVGID" class="cls-6" points="0 0 35 0 55 20 35 40 0 40 0 0"/></g></g><g id="Layer_1" data-name="Layer 1"><path d="M65.92,22.07A1.63,1.63,0,0,0,65.54,21a5,5,0,0,0-.95-.85q-.57-.4-1.24-.82a7.31,7.31,0,0,1-1.24-1,4.89,4.89,0,0,1-1-1.32,4.13,4.13,0,0,1-.38-1.86,4.31,4.31,0,0,1,.31-1.73,3.09,3.09,0,0,1,.85-1.16,3.44,3.44,0,0,1,1.28-.66,5.76,5.76,0,0,1,1.58-.21,8.6,8.6,0,0,1,1.9.2,5.15,5.15,0,0,1,1.46.54l-.78,2.22a3.55,3.55,0,0,0-1-.44,5.05,5.05,0,0,0-1.45-.2,2,2,0,0,0-1.2.32,1.11,1.11,0,0,0-.42.94,1.45,1.45,0,0,0,.38,1,5.38,5.38,0,0,0,.95.83q.57.4,1.24.83a7.4,7.4,0,0,1,1.24,1A5,5,0,0,1,68.06,20a4.09,4.09,0,0,1,.38,1.83,5,5,0,0,1-.31,1.84,3.36,3.36,0,0,1-.88,1.29,3.79,3.79,0,0,1-1.37.77,5.75,5.75,0,0,1-1.78.26,8.73,8.73,0,0,1-2.17-.24,5.55,5.55,0,0,1-1.43-.54l.82-2.26a5.92,5.92,0,0,0,1.1.48,4.62,4.62,0,0,0,1.5.24Q65.92,23.63,65.92,22.07Z"/><path d="M69.54,12.85a1.36,1.36,0,0,1,.38-1A1.44,1.44,0,0,1,71,11.47a1.61,1.61,0,0,1,1.12.38,1.28,1.28,0,0,1,.42,1,1.22,1.22,0,0,1-.42,1,1.66,1.66,0,0,1-1.12.36,1.48,1.48,0,0,1-1.08-.37A1.29,1.29,0,0,1,69.54,12.85Zm.26,2.82h2.38v10H69.8Z"/><path d="M81.1,25.67a4.46,4.46,0,0,1-1,3.21,3.7,3.7,0,0,1-2.78,1,7.74,7.74,0,0,1-1.94-.19,4.62,4.62,0,0,1-1.08-.41l.5-2q.44.18.95.34a4.07,4.07,0,0,0,1.21.16,1.62,1.62,0,0,0,1.41-.55,2.9,2.9,0,0,0,.39-1.67V25H78.7a1.71,1.71,0,0,1-.75.6,3.11,3.11,0,0,1-1.21.2,2.65,2.65,0,0,1-2.37-1.19,7,7,0,0,1-.79-3.77,6.37,6.37,0,0,1,1.09-4.1,3.81,3.81,0,0,1,3.11-1.32,10.06,10.06,0,0,1,1.94.17A6.3,6.3,0,0,1,81.1,16Zm-3.7-1.88a1.29,1.29,0,0,0,.85-.26,1.6,1.6,0,0,0,.47-.74v-5a2.48,2.48,0,0,0-.49-.16,2.92,2.92,0,0,0-.63-.06,1.27,1.27,0,0,0-1.15.72A5.38,5.38,0,0,0,76,20.77Q76,23.79,77.4,23.79Z"/><path d="M87.6,25.67V19.59A3.26,3.26,0,0,0,87.34,18a.94.94,0,0,0-.88-.44,1.36,1.36,0,0,0-.9.32,1.75,1.75,0,0,0-.54.8v6.94H82.64v-10h1.9l.28,1.16h.06a3.22,3.22,0,0,1,1-1,2.89,2.89,0,0,1,1.62-.41,3,3,0,0,1,1.07.18,1.81,1.81,0,0,1,.79.59,2.81,2.81,0,0,1,.48,1.1A7.73,7.73,0,0,1,90,19v6.66Z"/><path d="M95.34,12.85a1.36,1.36,0,0,1,.38-1,1.44,1.44,0,0,1,1.08-.39,1.61,1.61,0,0,1,1.12.38,1.28,1.28,0,0,1,.42,1,1.22,1.22,0,0,1-.42,1,1.66,1.66,0,0,1-1.12.36,1.48,1.48,0,0,1-1.08-.37A1.29,1.29,0,0,1,95.34,12.85Zm.26,2.82H98v10H95.6Z"/><path d="M104.7,25.67V19.59a3.26,3.26,0,0,0-.26-1.54.94.94,0,0,0-.88-.44,1.36,1.36,0,0,0-.9.32,1.76,1.76,0,0,0-.54.8v6.94H99.74v-10h1.9l.28,1.16H102a3.22,3.22,0,0,1,1-1,2.89,2.89,0,0,1,1.62-.41,3,3,0,0,1,1.07.18,1.81,1.81,0,0,1,.79.59,2.82,2.82,0,0,1,.48,1.1,7.79,7.79,0,0,1,.16,1.71v6.66Z"/><path d="M118.44,15.67l1.4,5.12.24,1.66h.08l.2-1.68.94-5.1h2.16L121,25.77h-1.88l-1.5-5.58-.16-1.28h-.12l-.14,1.32-1.44,5.54h-1.94l-2.56-10.1h2.58l1.08,5,.18,1.78h.08l.26-1.8,1.22-5Z"/><path d="M124,12.85a1.36,1.36,0,0,1,.38-1,1.44,1.44,0,0,1,1.08-.39,1.6,1.6,0,0,1,1.12.38,1.28,1.28,0,0,1,.42,1,1.22,1.22,0,0,1-.42,1,1.66,1.66,0,0,1-1.12.36,1.48,1.48,0,0,1-1.08-.37A1.29,1.29,0,0,1,124,12.85Zm.26,2.82h2.38v10h-2.38Z"/><path d="M127.58,15.67h1.1V13.79l2.38-.74v2.62H133v2.12h-1.94v4.36a3.11,3.11,0,0,0,.17,1.22.62.62,0,0,0,.61.36,2.23,2.23,0,0,0,.54-.06,3.44,3.44,0,0,0,.52-.18l.3,1.9a5.18,5.18,0,0,1-1,.37,4.84,4.84,0,0,1-1.22.15,2.14,2.14,0,0,1-1.71-.66,3.4,3.4,0,0,1-.57-2.22V17.79h-1.1Z"/><path d="M139,25.67v-6a3.6,3.6,0,0,0-.25-1.56.93.93,0,0,0-.91-.48,1.33,1.33,0,0,0-.88.34,1.68,1.68,0,0,0-.54.86v6.88H134v-14h2.38v4.9h.06a3.16,3.16,0,0,1,1-.84,2.89,2.89,0,0,1,1.43-.32,3,3,0,0,1,1.08.18,1.79,1.79,0,0,1,.78.6,2.92,2.92,0,0,1,.48,1.13,8.42,8.42,0,0,1,.16,1.79v6.56Z"/><path d="M150.82,18.43h4.32v6.2a4.4,4.4,0,0,1-1.73,1,6.58,6.58,0,0,1-2,.31,5.27,5.27,0,0,1-2.14-.42,4.06,4.06,0,0,1-1.63-1.31,6.54,6.54,0,0,1-1-2.26,12.68,12.68,0,0,1-.37-3.29,11.22,11.22,0,0,1,.44-3.38A6.55,6.55,0,0,1,147.87,13a4.31,4.31,0,0,1,1.7-1.26,5.45,5.45,0,0,1,2-.39,8.34,8.34,0,0,1,1.75.17,7.42,7.42,0,0,1,1.31.39l-.52,2.18a4.93,4.93,0,0,0-.93-.3,5.94,5.94,0,0,0-1.29-.12,2.84,2.84,0,0,0-1.27.28,2.42,2.42,0,0,0-1,.88,4.7,4.7,0,0,0-.6,1.55,10.68,10.68,0,0,0-.21,2.27,7.08,7.08,0,0,0,.77,3.74,2.33,2.33,0,0,0,2,1.2,2.46,2.46,0,0,0,.77-.12,1.72,1.72,0,0,0,.65-.38V20.23l-2.3-.31Z"/><path d="M156.06,20.67a6.28,6.28,0,0,1,1-4,4,4,0,0,1,5.88,0,6.58,6.58,0,0,1,1,3.94,6.27,6.27,0,0,1-1,4A3.54,3.54,0,0,1,160,25.93Q156.06,25.93,156.06,20.67Zm2.46,0a6.27,6.27,0,0,0,.34,2.32,1.17,1.17,0,0,0,1.14.82,1.2,1.2,0,0,0,1.13-.71,5.68,5.68,0,0,0,.37-2.43,6.24,6.24,0,0,0-.34-2.34,1.18,1.18,0,0,0-1.16-.8,1.2,1.2,0,0,0-1.09.71A5.43,5.43,0,0,0,158.52,20.67Z"/><path d="M164.8,20.67a6.28,6.28,0,0,1,1-4,4,4,0,0,1,5.88,0,6.58,6.58,0,0,1,1,3.94,6.27,6.27,0,0,1-1,4,3.54,3.54,0,0,1-2.92,1.29Q164.8,25.93,164.8,20.67Zm2.46,0A6.27,6.27,0,0,0,167.6,23a1.17,1.17,0,0,0,1.14.82,1.2,1.2,0,0,0,1.13-.71,5.68,5.68,0,0,0,.37-2.43,6.24,6.24,0,0,0-.34-2.34,1.18,1.18,0,0,0-1.16-.8,1.2,1.2,0,0,0-1.09.71A5.42,5.42,0,0,0,167.26,20.67Z"/><path d="M181.06,25.67a4.47,4.47,0,0,1-1,3.21,3.7,3.7,0,0,1-2.78,1,7.74,7.74,0,0,1-1.94-.19,4.65,4.65,0,0,1-1.08-.41l.5-2q.44.18,1,.34a4.07,4.07,0,0,0,1.21.16,1.62,1.62,0,0,0,1.41-.55,2.9,2.9,0,0,0,.39-1.67V25h-.06a1.72,1.72,0,0,1-.75.6,3.11,3.11,0,0,1-1.21.2,2.65,2.65,0,0,1-2.37-1.19,7,7,0,0,1-.79-3.77,6.37,6.37,0,0,1,1.09-4.1,3.8,3.8,0,0,1,3.11-1.32,10.05,10.05,0,0,1,1.94.17,6.32,6.32,0,0,1,1.38.41Zm-3.7-1.88a1.28,1.28,0,0,0,.85-.26,1.6,1.6,0,0,0,.47-.74v-5a2.46,2.46,0,0,0-.49-.16,2.92,2.92,0,0,0-.63-.06,1.27,1.27,0,0,0-1.15.72,5.38,5.38,0,0,0-.41,2.48Q176,23.79,177.36,23.79Z"/><path d="M185,22.43a2.54,2.54,0,0,0,.14,1,.47.47,0,0,0,.46.3,1.82,1.82,0,0,0,.37,0,2.4,2.4,0,0,0,.43-.14l.22,1.92a2.71,2.71,0,0,1-.82.3,5.05,5.05,0,0,1-1.18.14,2,2,0,0,1-1.5-.5,2.36,2.36,0,0,1-.5-1.7v-12H185Z"/><path d="M194.06,24.93a3.82,3.82,0,0,1-1.36.72,5.78,5.78,0,0,1-1.8.28,4.1,4.1,0,0,1-1.79-.36,3.16,3.16,0,0,1-1.23-1,4.71,4.71,0,0,1-.71-1.65,9.56,9.56,0,0,1-.23-2.21,6.17,6.17,0,0,1,1.07-4,3.65,3.65,0,0,1,3-1.29,4.07,4.07,0,0,1,1.24.19,2.71,2.71,0,0,1,1.07.64,3.26,3.26,0,0,1,.76,1.2,5.29,5.29,0,0,1,.29,1.89c0,.29,0,.61-.05.94s-.08.69-.15,1.08h-4.86a3.4,3.4,0,0,0,.52,1.9,1.78,1.78,0,0,0,1.54.66,3.31,3.31,0,0,0,1.17-.2,3.12,3.12,0,0,0,.81-.42Zm-3.12-7.5a1.26,1.26,0,0,0-1.14.61,3.62,3.62,0,0,0-.44,1.71h2.76a3.49,3.49,0,0,0-.24-1.73A1,1,0,0,0,190.94,17.43Z"/><path id="Google" class="cls-7" d="M28.05,4.67h-8.3a11,11,0,0,0-7.21,2.21A7.23,7.23,0,0,0,10,12.27a6.37,6.37,0,0,0,6.69,6.32c.4,0,.84,0,1.29-.08a3.59,3.59,0,0,0-.4,1.57,4.22,4.22,0,0,0,1.21,2.74c-1.81.12-5.2.32-7.7,1.85a5.8,5.8,0,0,0-3.1,4.91c0,3,2.82,5.76,8.67,5.76,6.93,0,10.6-3.82,10.6-7.61,0-2.77-1.61-4.15-3.38-5.63L22.37,21a2.21,2.21,0,0,1-1-1.73,2.83,2.83,0,0,1,1.13-2c1.69-1.33,3.38-2.74,3.38-5.71A6.79,6.79,0,0,0,23,6.11h2.5ZM24.51,29.3c0,2.5-2.06,4.35-5.92,4.35-4.31,0-7.09-2.05-7.09-4.91s2.58-3.82,3.46-4.15a16.11,16.11,0,0,1,4.23-.64,6.76,6.76,0,0,1,.93,0C23.18,26.16,24.51,27.24,24.51,29.3Zm-3.22-13a4.14,4.14,0,0,1-2.74,1.13c-3.46,0-5-4.47-5-7.17a4.65,4.65,0,0,1,.89-3A3.77,3.77,0,0,1,17.22,6c3.34,0,5.08,4.51,5.08,7.41A4.07,4.07,0,0,1,21.29,16.34Z"/><path d="M30,19h5V13.89h2V19h5v2H37v5.09H35V21H30Z"/></g></svg>