<svg xmlns="http://www.w3.org/2000/svg" xmlns:xlink="http://www.w3.org/1999/xlink" viewBox="0 0 200 40"><defs><style>.cls-1{fill:none}.cls-2{clip-path:url(#clip-path)}.cls-3{fill:url(#linear-gradient)}.cls-4{clip-path:url(#clip-path-2)}.cls-5{fill:url(#linear-gradient-2)}.cls-6{fill:#231f20}</style><clipPath id="clip-path"><polygon id="SVGID" points="200 0 39 0 59 20 39 40 200 40 200 0" class="cls-1"/></clipPath><linearGradient id="linear-gradient" x1="100" x2="100" y2="40" gradientUnits="userSpaceOnUse"><stop offset="0" stop-color="#3bf"/><stop offset="1" stop-color="#08c"/></linearGradient><clipPath id="clip-path-2"><polygon id="SVGID-2" points="0 0 40 0 60 20 40 40 0 40 0 0" class="cls-1" data-name="SVGID"/></clipPath><linearGradient id="linear-gradient-2" x1="100" x2="100" y2="40" gradientUnits="userSpaceOnUse"><stop offset="0" stop-color="#2995cc"/><stop offset="1" stop-color="#069"/></linearGradient></defs><title>sign-in-with-persona</title><g id="Background"><g class="cls-2"><rect width="200" height="40" class="cls-3" rx="4" ry="4"/></g><g class="cls-4"><rect width="200" height="40" class="cls-5" rx="4" ry="4"/></g><path d="M139.42,33.3l.21.81h.16l.15-.83,1-2.7h1.51l-2.4,5.3h-.8l-2.5-5.3h1.63Z"/><path d="M143,29.45a.7.7,0,0,1,.23-.54.92.92,0,0,1,.65-.21,1,1,0,0,1,.68.22.68.68,0,0,1,.25.53.63.63,0,0,1-.25.5,1,1,0,0,1-.68.21.93.93,0,0,1-.65-.21A.65.65,0,0,1,143,29.45Zm.21,1.13h1.4v5.25h-1.4Z"/><path d="M146.15,30.94a5.28,5.28,0,0,1,1.11-.33,6.93,6.93,0,0,1,1.36-.13,2.84,2.84,0,0,1,.92.13,1.4,1.4,0,0,1,.59.38,1.43,1.43,0,0,1,.31.59,2.83,2.83,0,0,1,.1.76q0,.51,0,1t0,1.06a5.41,5.41,0,0,0,0,.74,3.94,3.94,0,0,0,.16.69h-1.14l-.23-.78h-.12a2.41,2.41,0,0,1-.66.6,1.92,1.92,0,0,1-1,.25,2.1,2.1,0,0,1-.69-.11,1.55,1.55,0,0,1-.54-.31,1.44,1.44,0,0,1-.35-.49,1.47,1.47,0,0,1-.12-.61,1.59,1.59,0,0,1,.59-1.34,3,3,0,0,1,1.81-.46,3.59,3.59,0,0,1,.56,0l.39.07a2.68,2.68,0,0,0,0-.36.74.74,0,0,0-.19-.56,1,1,0,0,0-.71-.18,3.82,3.82,0,0,0-.93.12,4.2,4.2,0,0,0-.8.29ZM148,34.79a1.18,1.18,0,0,0,.75-.22,1.5,1.5,0,0,0,.41-.46v-.6l-.15,0-.23,0-.25,0h-.22a1.34,1.34,0,0,0-.8.2.59.59,0,0,0-.26.49.68.68,0,0,0,.21.54A.81.81,0,0,0,148,34.79Z"/><path d="M154.68,28.9c.3-.05.63-.1,1-.12s.73,0,1.1,0a7.63,7.63,0,0,1,1.13.08,3,3,0,0,1,1,.34,2.07,2.07,0,0,1,.75.71,2.22,2.22,0,0,1,.29,1.21,2.36,2.36,0,0,1-.25,1.13,2.14,2.14,0,0,1-.67.75,2.87,2.87,0,0,1-.94.42,4.41,4.41,0,0,1-1.09.13h-.68l-.18,0v2.36h-1.48Zm2.2,1.13h-.41l-.32,0v2.08l.13,0,.19,0h.32a4.14,4.14,0,0,0,.58,0,1.4,1.4,0,0,0,.52-.17,1,1,0,0,0,.36-.35,1.14,1.14,0,0,0,.14-.61.84.84,0,0,0-.47-.82,1.56,1.56,0,0,0-.49-.15A3.89,3.89,0,0,0,156.88,30Z"/><path d="M165.05,35.35a3,3,0,0,1-.92.45,4.15,4.15,0,0,1-1.25.19,2.46,2.46,0,0,1-2-.74,3,3,0,0,1-.63-2,2.81,2.81,0,0,1,.71-2.08,2.72,2.72,0,0,1,2-.71,3.32,3.32,0,0,1,.83.11,2,2,0,0,1,.73.35,1.76,1.76,0,0,1,.51.66,2.41,2.41,0,0,1,.19,1c0,.14,0,.29,0,.46a4.38,4.38,0,0,1-.08.52h-3.5a1.48,1.48,0,0,0,.39,1,1.61,1.61,0,0,0,1.13.33,2.59,2.59,0,0,0,1.42-.41ZM163,31.53a1.17,1.17,0,0,0-.92.33,1.45,1.45,0,0,0-.35.85h2.26a1.27,1.27,0,0,0-.2-.87A.92.92,0,0,0,163,31.53Z"/><path d="M169.6,31.86a1.89,1.89,0,0,0-.6-.1,1.19,1.19,0,0,0-.73.21,1,1,0,0,0-.37.53v3.33h-1.4V30.58h1.1l.15.73h.13a1.54,1.54,0,0,1,.54-.63,1.36,1.36,0,0,1,.76-.22,2.1,2.1,0,0,1,.62.11Z"/><path d="M170.55,34.47l.33.14.4.13.44.1a2.53,2.53,0,0,0,.46,0,1.12,1.12,0,0,0,.54-.11.43.43,0,0,0,.19-.41.38.38,0,0,0-.26-.36,5.2,5.2,0,0,0-.64-.22l-.58-.19a2.23,2.23,0,0,1-.56-.29,1.46,1.46,0,0,1-.42-.48,1.58,1.58,0,0,1-.16-.76,1.49,1.49,0,0,1,.49-1.21,2.12,2.12,0,0,1,1.41-.42,5.7,5.7,0,0,1,1.13.11,4.2,4.2,0,0,1,.84.25l-.29,1.06a6.49,6.49,0,0,0-.67-.21,3.3,3.3,0,0,0-.82-.1,1,1,0,0,0-.52.1.4.4,0,0,0-.17.37.37.37,0,0,0,.26.34,5.44,5.44,0,0,0,.65.23l.58.18a2.13,2.13,0,0,1,.55.29,1.49,1.49,0,0,1,.42.46,1.42,1.42,0,0,1,.16.71,1.61,1.61,0,0,1-.54,1.3,2.48,2.48,0,0,1-1.63.46,5.42,5.42,0,0,1-1.1-.11,2.55,2.55,0,0,1-.83-.3Z"/><path d="M175.09,33.21a2.88,2.88,0,0,1,.69-2,2.56,2.56,0,0,1,2-.74,3,3,0,0,1,1.17.21,2.24,2.24,0,0,1,.83.58,2.49,2.49,0,0,1,.5.88,3.56,3.56,0,0,1,.16,1.1,3.49,3.49,0,0,1-.18,1.16,2.42,2.42,0,0,1-.52.88,2.23,2.23,0,0,1-.84.55,3.12,3.12,0,0,1-1.12.19,3,3,0,0,1-1.18-.21,2.25,2.25,0,0,1-.83-.58,2.44,2.44,0,0,1-.49-.88A3.61,3.61,0,0,1,175.09,33.21Zm1.44,0a2.63,2.63,0,0,0,.07.62,1.53,1.53,0,0,0,.21.5,1.09,1.09,0,0,0,.38.34,1.12,1.12,0,0,0,.56.13q1.22,0,1.22-1.6a3,3,0,0,0-.07-.64,1.48,1.48,0,0,0-.21-.51,1,1,0,0,0-.38-.33,1.23,1.23,0,0,0-.57-.12,1.11,1.11,0,0,0-.89.38A1.88,1.88,0,0,0,176.53,33.21Z"/><path d="M185.09,35.83V33a1.76,1.76,0,0,0-.21-1,.84.84,0,0,0-.74-.3,1.21,1.21,0,0,0-.77.25,1.26,1.26,0,0,0-.43.63q0,.82,0,1.65t0,1.64h-1.4V30.58h1.1l.15.75H183a2.3,2.3,0,0,1,.69-.63,2.11,2.11,0,0,1,1.12-.27,2.41,2.41,0,0,1,.75.11,1.15,1.15,0,0,1,.54.36,1.73,1.73,0,0,1,.33.68,4.24,4.24,0,0,1,.12,1.08v3.17Z"/><path d="M187.88,30.94a5.25,5.25,0,0,1,1.1-.33,6.92,6.92,0,0,1,1.35-.13,2.85,2.85,0,0,1,.93.13,1.4,1.4,0,0,1,.59.38,1.45,1.45,0,0,1,.32.59,2.91,2.91,0,0,1,.09.76q0,.51,0,1c0,.33,0,.69,0,1.06a5.41,5.41,0,0,0,0,.74,3.85,3.85,0,0,0,.16.69h-1.14l-.23-.78h-.12a2.38,2.38,0,0,1-.66.6,1.91,1.91,0,0,1-1,.25,2.1,2.1,0,0,1-.7-.11,1.54,1.54,0,0,1-.54-.31,1.47,1.47,0,0,1-.35-.49,1.5,1.5,0,0,1-.12-.61,1.59,1.59,0,0,1,.6-1.34,3,3,0,0,1,1.8-.46,3.61,3.61,0,0,1,.56,0l.39.07a2.52,2.52,0,0,0,0-.36.74.74,0,0,0-.19-.56,1,1,0,0,0-.71-.18,3.82,3.82,0,0,0-.93.12,4.26,4.26,0,0,0-.81.29Zm1.83,3.85a1.19,1.19,0,0,0,.75-.22,1.55,1.55,0,0,0,.41-.46v-.6l-.16,0-.23,0-.25,0H190a1.33,1.33,0,0,0-.8.2.59.59,0,0,0-.26.49.68.68,0,0,0,.2.54A.81.81,0,0,0,189.71,34.79Z"/></g><g id="Layer_1" data-name="Layer 1"><path id="vCard" d="M35.38,29.06c0-1.29-.91-1.32-2-1.75l-5-2-.26-.11h0a5.64,5.64,0,0,1-2-1.37h0L26,23.71v0h0c-.13-.2-.27-.29-.38-.25h0c-.14.07-.11,0-.17-.16-.14-.37-.36-1.07-.39-1.17s-.19.3-.16-.23l.06-1,.22-.24c.33-.38.35-1.37.52-1.61a2.61,2.61,0,0,0,.82-1.42c.33-1.13.73-2.74.31-2.76a.52.52,0,0,0-.34.17,18.8,18.8,0,0,0,.27-2,10.26,10.26,0,0,0-.62-4.11A5.26,5.26,0,0,0,24.47,7.4a8.44,8.44,0,0,0-1.1-.6c-1-.42-3.95-.23-5,0a3.86,3.86,0,0,0-2.48,1.84,11.57,11.57,0,0,0-.7,4.35c0,.41.27,1.1.33,1.52,0,.22.07.22.1.38a.29.29,0,0,0-.12,0c-.42,0,0,1.64.31,2.76a2.61,2.61,0,0,0,.82,1.42c.16.24.19,1.23.52,1.61l.23.25.06.79.11.44c-.05-.12-.15-.21-.2,0L17,23.39a.08.08,0,0,0-.06,0c-.14-.12-.32,0-.49.26a5.17,5.17,0,0,1-2,1.45v.12l-.23.09-5,2c-1.08.43-2,.46-2,1.75l-.83,4.39H36.5Z" class="cls-6"/><path d="M71.44,22.07A1.63,1.63,0,0,0,71.06,21a5,5,0,0,0-.95-.85q-.57-.4-1.24-.82a7.31,7.31,0,0,1-1.24-1,4.89,4.89,0,0,1-1-1.32,4.13,4.13,0,0,1-.38-1.86,4.31,4.31,0,0,1,.31-1.73,3.09,3.09,0,0,1,.85-1.16,3.44,3.44,0,0,1,1.28-.66,5.76,5.76,0,0,1,1.58-.21,8.6,8.6,0,0,1,1.9.2,5.15,5.15,0,0,1,1.46.54l-.78,2.22a3.55,3.55,0,0,0-1-.44,5.05,5.05,0,0,0-1.45-.2,2,2,0,0,0-1.2.32,1.11,1.11,0,0,0-.42.94,1.45,1.45,0,0,0,.38,1,5.38,5.38,0,0,0,.95.83q.57.4,1.24.83a7.4,7.4,0,0,1,1.24,1A5,5,0,0,1,73.58,20,4.09,4.09,0,0,1,74,21.79a5,5,0,0,1-.31,1.84,3.36,3.36,0,0,1-.88,1.29,3.79,3.79,0,0,1-1.37.77,5.75,5.75,0,0,1-1.78.26,8.73,8.73,0,0,1-2.17-.24A5.55,5.55,0,0,1,66,25.17l.82-2.26a5.92,5.92,0,0,0,1.1.48,4.62,4.62,0,0,0,1.5.24Q71.44,23.63,71.44,22.07Z"/><path d="M75.22,12.85a1.36,1.36,0,0,1,.38-1,1.44,1.44,0,0,1,1.08-.39,1.61,1.61,0,0,1,1.12.38,1.28,1.28,0,0,1,.42,1,1.22,1.22,0,0,1-.42,1,1.66,1.66,0,0,1-1.12.36,1.48,1.48,0,0,1-1.08-.37A1.29,1.29,0,0,1,75.22,12.85Zm.26,2.82h2.38v10H75.48Z"/><path d="M86.94,25.67a4.46,4.46,0,0,1-1,3.21,3.7,3.7,0,0,1-2.78,1,7.74,7.74,0,0,1-1.94-.19,4.62,4.62,0,0,1-1.08-.41l.5-2q.44.18.95.34a4.07,4.07,0,0,0,1.21.16,1.62,1.62,0,0,0,1.41-.55,2.9,2.9,0,0,0,.39-1.67V25h-.06a1.71,1.71,0,0,1-.75.6,3.11,3.11,0,0,1-1.21.2,2.65,2.65,0,0,1-2.37-1.19,7,7,0,0,1-.79-3.77,6.37,6.37,0,0,1,1.09-4.1,3.81,3.81,0,0,1,3.11-1.32,10.06,10.06,0,0,1,1.94.17,6.3,6.3,0,0,1,1.38.41Zm-3.7-1.88a1.29,1.29,0,0,0,.85-.26,1.6,1.6,0,0,0,.47-.74v-5a2.48,2.48,0,0,0-.49-.16,2.92,2.92,0,0,0-.63-.06,1.27,1.27,0,0,0-1.15.72,5.38,5.38,0,0,0-.41,2.48Q81.88,23.79,83.24,23.79Z"/><path d="M93.6,25.67V19.59A3.26,3.26,0,0,0,93.34,18a.94.94,0,0,0-.88-.44,1.36,1.36,0,0,0-.9.32,1.75,1.75,0,0,0-.54.8v6.94H88.64v-10h1.9l.28,1.16h.06a3.22,3.22,0,0,1,1-1,2.89,2.89,0,0,1,1.62-.41,3,3,0,0,1,1.07.18,1.81,1.81,0,0,1,.79.59,2.81,2.81,0,0,1,.48,1.1A7.73,7.73,0,0,1,96,19v6.66Z"/><path d="M101.66,12.85a1.36,1.36,0,0,1,.38-1,1.44,1.44,0,0,1,1.08-.39,1.61,1.61,0,0,1,1.12.38,1.29,1.29,0,0,1,.42,1,1.23,1.23,0,0,1-.42,1,1.67,1.67,0,0,1-1.12.36,1.48,1.48,0,0,1-1.08-.37A1.29,1.29,0,0,1,101.66,12.85Zm.26,2.82h2.38v10h-2.38Z"/><path d="M111.18,25.67V19.59a3.27,3.27,0,0,0-.26-1.54.94.94,0,0,0-.88-.44,1.36,1.36,0,0,0-.9.32,1.75,1.75,0,0,0-.54.8v6.94h-2.38v-10h1.9l.28,1.16h.06a3.22,3.22,0,0,1,1-1,2.89,2.89,0,0,1,1.62-.41,3,3,0,0,1,1.07.18,1.82,1.82,0,0,1,.79.59,2.8,2.8,0,0,1,.48,1.1,7.73,7.73,0,0,1,.16,1.71v6.66Z"/><path d="M125.24,15.67l1.4,5.12.24,1.66H127l.2-1.68.94-5.1h2.16l-2.46,10.1h-1.88l-1.5-5.58-.16-1.28h-.12L124,20.23l-1.44,5.54h-1.94l-2.56-10.1h2.58l1.08,5,.18,1.78H122l.26-1.8,1.22-5Z"/><path d="M130.92,12.85a1.36,1.36,0,0,1,.38-1,1.44,1.44,0,0,1,1.08-.39,1.61,1.61,0,0,1,1.12.38,1.28,1.28,0,0,1,.42,1,1.22,1.22,0,0,1-.42,1,1.66,1.66,0,0,1-1.12.36,1.48,1.48,0,0,1-1.08-.37A1.29,1.29,0,0,1,130.92,12.85Zm.26,2.82h2.38v10h-2.38Z"/><path d="M134.7,15.67h1.1V13.79l2.38-.74v2.62h1.94v2.12h-1.94v4.36a3.11,3.11,0,0,0,.17,1.22.62.62,0,0,0,.61.36,2.22,2.22,0,0,0,.54-.06,3.45,3.45,0,0,0,.52-.18l.3,1.9a5.16,5.16,0,0,1-1,.37,4.83,4.83,0,0,1-1.22.15,2.13,2.13,0,0,1-1.71-.66A3.39,3.39,0,0,1,135.8,23V17.79h-1.1Z"/><path d="M146.26,25.67v-6a3.58,3.58,0,0,0-.25-1.56.93.93,0,0,0-.91-.48,1.33,1.33,0,0,0-.88.34,1.66,1.66,0,0,0-.54.86v6.88H141.3v-14h2.38v4.9h.06a3.16,3.16,0,0,1,1-.84,2.88,2.88,0,0,1,1.43-.32,3,3,0,0,1,1.08.18,1.79,1.79,0,0,1,.78.6,2.92,2.92,0,0,1,.48,1.13,8.36,8.36,0,0,1,.16,1.79v6.56Z"/><path d="M154.42,11.67h7V14h-4.48v3.44H161v2.32h-4.06v3.6h4.56v2.32h-7.08Z"/><path d="M167.6,25.67V19.85a5.24,5.24,0,0,0-.2-1.75.76.76,0,0,0-.78-.49,1.07,1.07,0,0,0-.79.31,2,2,0,0,0-.47.75v7H163v-10h1.84l.3,1.2h.06a3.53,3.53,0,0,1,1-1,2.54,2.54,0,0,1,1.51-.41,2.18,2.18,0,0,1,1.27.34,2.25,2.25,0,0,1,.77,1.2,3,3,0,0,1,1-1.13,2.59,2.59,0,0,1,1.46-.41,3.33,3.33,0,0,1,1.13.17,1.54,1.54,0,0,1,.76.59,3,3,0,0,1,.43,1.15,10.15,10.15,0,0,1,.14,1.85v6.48h-2.38V19.59a4.59,4.59,0,0,0-.18-1.5.76.76,0,0,0-.8-.48,1.14,1.14,0,0,0-.81.29,1.66,1.66,0,0,0-.45.79v7Z"/><path d="M176.26,16.27a5.43,5.43,0,0,1,1.5-.58,8.63,8.63,0,0,1,2-.22,2.81,2.81,0,0,1,2.37.88,4.06,4.06,0,0,1,.67,2.5q0,.94,0,1.85t-.07,1.78q0,.87,0,1.68a6.62,6.62,0,0,0,.27,1.53h-1.94l-.38-1.22h-.08a2.69,2.69,0,0,1-.9,1,2.61,2.61,0,0,1-1.46.38A2.32,2.32,0,0,1,176.4,25a3.12,3.12,0,0,1-.68-2.11A2.74,2.74,0,0,1,177,20.35a6.08,6.08,0,0,1,3.46-.64,3.46,3.46,0,0,0-.15-1.68,1.07,1.07,0,0,0-1.07-.52,5.8,5.8,0,0,0-1.24.14,4.62,4.62,0,0,0-1.14.4Zm2.86,7.5a1.37,1.37,0,0,0,.88-.27,1.78,1.78,0,0,0,.5-.59V21.25a3.88,3.88,0,0,0-.88,0,2.41,2.41,0,0,0-.74.18,1.19,1.19,0,0,0-.51.41,1.17,1.17,0,0,0-.19.69,1.51,1.51,0,0,0,.25.94A.83.83,0,0,0,179.12,23.77Z"/><path d="M184.44,12.85a1.36,1.36,0,0,1,.38-1,1.44,1.44,0,0,1,1.08-.39,1.6,1.6,0,0,1,1.12.38,1.28,1.28,0,0,1,.42,1,1.22,1.22,0,0,1-.42,1,1.66,1.66,0,0,1-1.12.36,1.48,1.48,0,0,1-1.08-.37A1.29,1.29,0,0,1,184.44,12.85Zm.26,2.82h2.38v10H184.7Z"/><path d="M191.42,22.43a2.57,2.57,0,0,0,.14,1,.48.48,0,0,0,.46.3,1.82,1.82,0,0,0,.37,0,2.4,2.4,0,0,0,.43-.14l.22,1.92a2.71,2.71,0,0,1-.82.3,5,5,0,0,1-1.18.14,2,2,0,0,1-1.5-.5,2.36,2.36,0,0,1-.5-1.7v-12h2.38Z"/></g></svg>