<svg xmlns="http://www.w3.org/2000/svg" width="52" height="52" version="1.1"><g><ellipse cx="26" cy="6" fill="#009" rx="3.6" ry="6" transform="rotate(0, 26, 6)" style="opacity:.25"><animate attributeName="opacity" attributeType="CSS" begin="0s" dur="1s" from="1" repeatCount="indefinite" to=".25"/></ellipse><ellipse cx="33.654" cy="7.522" fill="#009" rx="3.6" ry="6" transform="rotate(22.5, 33.6537, 7.5224)" style="opacity:.25"><animate attributeName="opacity" attributeType="CSS" begin="0.0625s" dur="1s" from="1" repeatCount="indefinite" to=".25"/></ellipse><ellipse cx="40.142" cy="11.858" fill="#009" rx="3.6" ry="6" transform="rotate(45, 40.1421, 11.8579)" style="opacity:.25"><animate attributeName="opacity" attributeType="CSS" begin="0.125s" dur="1s" from="1" repeatCount="indefinite" to=".25"/></ellipse><ellipse cx="44.478" cy="18.346" fill="#009" rx="3.6" ry="6" transform="rotate(67.5, 44.4776, 18.3463)" style="opacity:.25"><animate attributeName="opacity" attributeType="CSS" begin="0.1875s" dur="1s" from="1" repeatCount="indefinite" to=".25"/></ellipse><ellipse cx="46" cy="26" fill="#009" rx="3.6" ry="6" transform="rotate(90, 46, 26)" style="opacity:.25"><animate attributeName="opacity" attributeType="CSS" begin="0.25s" dur="1s" from="1" repeatCount="indefinite" to=".25"/></ellipse><ellipse cx="44.478" cy="33.654" fill="#009" rx="3.6" ry="6" transform="rotate(112.5, 44.4776, 33.6537)" style="opacity:.25"><animate attributeName="opacity" attributeType="CSS" begin="0.3125s" dur="1s" from="1" repeatCount="indefinite" to=".25"/></ellipse><ellipse cx="40.142" cy="40.142" fill="#009" rx="3.6" ry="6" transform="rotate(135, 40.1421, 40.1421)" style="opacity:.25"><animate attributeName="opacity" attributeType="CSS" begin="0.375s" dur="1s" from="1" repeatCount="indefinite" to=".25"/></ellipse><ellipse cx="33.654" cy="44.478" fill="#009" rx="3.6" ry="6" transform="rotate(157.5, 33.6537, 44.4776)" style="opacity:.25"><animate attributeName="opacity" attributeType="CSS" begin="0.4375s" dur="1s" from="1" repeatCount="indefinite" to=".25"/></ellipse><ellipse cx="26" cy="46" fill="#009" rx="3.6" ry="6" transform="rotate(180, 26, 46)" style="opacity:.25"><animate attributeName="opacity" attributeType="CSS" begin="0.5s" dur="1s" from="1" repeatCount="indefinite" to=".25"/></ellipse><ellipse cx="18.346" cy="44.478" fill="#009" rx="3.6" ry="6" transform="rotate(202.5, 18.3463, 44.4776)" style="opacity:.25"><animate attributeName="opacity" attributeType="CSS" begin="0.5625s" dur="1s" from="1" repeatCount="indefinite" to=".25"/></ellipse><ellipse cx="11.858" cy="40.142" fill="#009" rx="3.6" ry="6" transform="rotate(225, 11.8579, 40.1421)" style="opacity:.25"><animate attributeName="opacity" attributeType="CSS" begin="0.625s" dur="1s" from="1" repeatCount="indefinite" to=".25"/></ellipse><ellipse cx="7.522" cy="33.654" fill="#009" rx="3.6" ry="6" transform="rotate(247.5, 7.5224, 33.6537)" style="opacity:.25"><animate attributeName="opacity" attributeType="CSS" begin="0.6875s" dur="1s" from="1" repeatCount="indefinite" to=".25"/></ellipse><ellipse cx="6" cy="26" fill="#009" rx="3.6" ry="6" transform="rotate(270, 6, 26)" style="opacity:.25"><animate attributeName="opacity" attributeType="CSS" begin="0.75s" dur="1s" from="1" repeatCount="indefinite" to=".25"/></ellipse><ellipse cx="7.522" cy="18.346" fill="#009" rx="3.6" ry="6" transform="rotate(292.5, 7.5224, 18.3463)" style="opacity:.25"><animate attributeName="opacity" attributeType="CSS" begin="0.8125s" dur="1s" from="1" repeatCount="indefinite" to=".25"/></ellipse><ellipse cx="11.858" cy="11.858" fill="#009" rx="3.6" ry="6" transform="rotate(315, 11.8579, 11.8579)" style="opacity:.25"><animate attributeName="opacity" attributeType="CSS" begin="0.875s" dur="1s" from="1" repeatCount="indefinite" to=".25"/></ellipse><ellipse cx="18.346" cy="7.522" fill="#009" rx="3.6" ry="6" transform="rotate(337.5, 18.3463, 7.5224)" style="opacity:.25"><animate attributeName="opacity" attributeType="CSS" begin="0.9375s" dur="1s" from="1" repeatCount="indefinite" to=".25"/></ellipse></g></svg>