<svg xmlns="http://www.w3.org/2000/svg" xmlns:xlink="http://www.w3.org/1999/xlink" id="Capa_1" width="40" height="40" x="0" y="0" enable-background="new 0 0 40 40" version="1.1" viewBox="0 0 40 40" xml:space="preserve"><g><path d="M2.5,37.5H40V40H0V0h2.5v7.5H5V10H2.5v5H5v2.5H2.5v5H5V25H2.5v5H5v2.5H2.5V37.5z M7.5,26.25c0-2.07,1.678-3.75,3.75-3.75 c0.389,0,0.757,0.076,1.111,0.186l3.269-4.359C15.232,17.732,15,17.018,15,16.251c0-2.069,1.68-3.75,3.75-3.75 s3.75,1.681,3.75,3.75c0,0.392-0.076,0.757-0.188,1.11l4.358,3.27c0.597-0.396,1.31-0.63,2.078-0.63 c0.155,0,0.303,0.026,0.454,0.046l4.352-8.699c-0.649-0.674-1.056-1.587-1.056-2.598c0-2.07,1.681-3.75,3.75-3.75 s3.75,1.68,3.75,3.75s-1.681,3.75-3.75,3.75c-0.156,0-0.304-0.027-0.454-0.046l-4.35,8.698c0.65,0.675,1.054,1.588,1.054,2.599 c0,2.069-1.681,3.75-3.75,3.75s-3.75-1.681-3.75-3.75c0-0.39,0.076-0.757,0.187-1.11l-4.359-3.27 c-0.594,0.396-1.309,0.63-2.076,0.63c-0.389,0-0.757-0.076-1.109-0.187l-3.271,4.357C14.768,24.768,15,25.48,15,26.25 c0,2.07-1.678,3.75-3.75,3.75S7.5,28.32,7.5,26.25z M35,8.75C35,9.441,35.559,10,36.25,10s1.25-0.559,1.25-1.25 S36.941,7.5,36.25,7.5S35,8.059,35,8.75z M27.5,23.75c0,0.691,0.559,1.25,1.25,1.25S30,24.441,30,23.75s-0.559-1.25-1.25-1.25 S27.5,23.059,27.5,23.75z M17.5,16.25c0,0.691,0.559,1.25,1.25,1.25S20,16.941,20,16.25S19.441,15,18.75,15S17.5,15.559,17.5,16.25 z M10,26.25c0,0.691,0.559,1.25,1.25,1.25s1.25-0.559,1.25-1.25S11.941,25,11.25,25S10,25.559,10,26.25z"/></g></svg>