<?xml version="1.0" encoding="utf-8"?>
<!-- Generator: Adobe Illustrator 15.1.0, SVG Export Plug-In . SVG Version: 6.00 Build 0)  -->
<!DOCTYPE svg PUBLIC "-//W3C//DTD SVG 1.1//EN" "http://www.w3.org/Graphics/SVG/1.1/DTD/svg11.dtd">
<svg version="1.1" id="Capa_1" xmlns="http://www.w3.org/2000/svg" xmlns:xlink="http://www.w3.org/1999/xlink" x="0px" y="0px"
	 width="40px" height="40px" viewBox="27.969 27.969 40 40" enable-background="new 27.969 27.969 40 40" xml:space="preserve">
<g>
	<path d="M54.16,47.969l13.564-13.564c0.325-0.326,0.325-0.853,0-1.179l-5.012-5.013c-0.156-0.156-0.369-0.244-0.589-0.244
		c-0.221,0-0.434,0.088-0.59,0.244L47.969,41.779L34.405,28.214c-0.312-0.312-0.867-0.312-1.179,0l-5.012,5.013
		c-0.325,0.326-0.325,0.854,0,1.179l13.564,13.564L28.214,61.534c-0.325,0.326-0.325,0.854,0,1.179l5.012,5.013
		c0.156,0.156,0.368,0.244,0.589,0.244c0.221,0,0.433-0.088,0.59-0.244L47.969,54.16l13.564,13.565
		c0.156,0.156,0.369,0.244,0.59,0.244c0.22,0,0.433-0.088,0.589-0.244l5.012-5.013c0.325-0.325,0.325-0.854,0-1.179L54.16,47.969z"
		/>
</g>
</svg>
