<svg xmlns="http://www.w3.org/2000/svg" xmlns:xlink="http://www.w3.org/1999/xlink" id="Capa_1" width="40" height="40" x="0" y="0" enable-background="new 0 0 40 40" version="1.1" viewBox="0 0 40 40" xml:space="preserve"><g><path d="M20.001,17.25l10-10h-7.5v-6h-5v6h-7.5L20.001,17.25z M32.091,18.159l-2.802,2.802l7.158,2.789L20,29.884L3.552,23.75 l6.25-2.789L7,18.159L0,21.25v10l20,7.5l20-7.5v-10L32.091,18.159z"/></g><g><path d="M11.932,18.437c-0.24,0-0.648-0.048-0.648,0.324c0,0.192,0.144,0.264,0.312,0.336l2.878,1.307 c0.744,0.336,1.128,0.803,1.128,1.631c0,1.163-0.792,1.715-1.896,1.715h-1.774c-0.6,0-1.008-0.023-1.439-0.359 c-0.216-0.168-0.528-0.385-0.528-0.672c0-0.324,0.276-0.576,0.6-0.576c0.18,0,0.312,0.061,0.444,0.204 c0.204,0.228,0.564,0.252,0.924,0.252h1.559c0.408,0,0.96,0.036,0.96-0.636c0-0.275-0.336-0.455-0.6-0.576l-2.711-1.235 c-0.635-0.288-1.007-0.66-1.007-1.403c0-0.911,0.72-1.463,1.583-1.463h1.967c0.636,0,0.899,0.036,1.331,0.396 c0.216,0.18,0.456,0.324,0.456,0.648s-0.276,0.576-0.588,0.576c-0.216,0-0.348-0.084-0.492-0.24 c-0.191-0.204-0.396-0.228-0.707-0.228H11.932z"/><path d="M21.289,18.725v-0.587c0-0.408,0.072-0.852,0.588-0.852c0.408,0,0.563,0.324,0.563,0.695v0.816 c0,0.192-0.048,0.288-0.132,0.468l-1.715,3.766c-0.107,0.24-0.312,0.72-0.6,0.72h-0.743c-0.288,0-0.492-0.479-0.601-0.72 l-1.715-3.766c-0.084-0.18-0.132-0.276-0.132-0.468v-0.816c0-0.372,0.156-0.695,0.563-0.695c0.516,0,0.588,0.444,0.588,0.852v0.587 l1.667,3.826L21.289,18.725z"/><path d="M23.644,19.433c0-0.54,0.156-1.02,0.396-1.211l0.84-0.66c0.24-0.192,0.42-0.276,0.72-0.276h1.115 c0.312,0,0.684,0.228,1.128,0.576l0.287,0.228v-0.132c0-0.36,0.192-0.671,0.588-0.671c0.504,0,0.563,0.419,0.563,0.803v5.625 c0,1.044-0.084,1.259-0.563,1.667l-0.384,0.324c-0.504,0.42-0.791,0.492-1.439,0.492h-1.906c-0.336,0-0.792-0.072-0.792-0.576 c0-0.492,0.408-0.576,0.792-0.576h2.11c0.24,0,0.396-0.107,0.576-0.264l0.287-0.264c0.097-0.096,0.168-0.264,0.168-0.479v-1.583 l-0.239,0.239c-0.264,0.265-0.624,0.563-0.948,0.563h-1.354c-0.24,0-0.516-0.035-0.864-0.348l-0.719-0.647 c-0.336-0.312-0.36-0.611-0.36-1.079V19.433z M24.795,21.016c0,0.24,0.012,0.492,0.145,0.6l0.479,0.384 c0.084,0.071,0.191,0.108,0.336,0.108h0.839c0.145,0,0.312-0.121,0.528-0.301l0.888-0.73c0.084-0.072,0.119-0.229,0.119-0.385 v-0.839c0-0.156-0.035-0.312-0.119-0.384l-0.888-0.731c-0.216-0.18-0.384-0.3-0.528-0.3h-0.839c-0.145,0-0.252,0.036-0.336,0.108 l-0.479,0.384c-0.133,0.108-0.145,0.36-0.145,0.6V21.016z"/></g></svg>