<?xml version="1.0" encoding="utf-8"?>
<!-- Generator: Adobe Illustrator 15.1.0, SVG Export Plug-In . SVG Version: 6.00 Build 0)  -->
<!DOCTYPE svg PUBLIC "-//W3C//DTD SVG 1.1//EN" "http://www.w3.org/Graphics/SVG/1.1/DTD/svg11.dtd">
<svg version="1.1" id="Capa_1" xmlns="http://www.w3.org/2000/svg" xmlns:xlink="http://www.w3.org/1999/xlink" x="0px" y="0px"
	 width="40px" height="40px" viewBox="-62.891 639.11 40 40" enable-background="new -62.891 639.11 40 40" xml:space="preserve">
<g>
	<path d="M-24.354,651.182l-1.768,1.769l-10.608-10.606l1.768-1.77c1.953-1.953,5.12-1.953,7.073,0l3.535,3.536
		C-22.403,646.063-22.403,649.229-24.354,651.182z M-49.104,672.394c-0.488,0.488-0.488,1.278,0,1.767
		c0.488,0.491,1.279,0.491,1.768,0l19.448-19.442l-1.77-1.769L-49.104,672.394z M-57.944,663.556c-0.489,0.488-0.489,1.278,0,1.767
		c0.488,0.488,1.279,0.488,1.768,0l19.447-19.443l-1.767-1.769L-57.944,663.556z M-34.964,647.645L-54.41,667.09
		c-0.977,0.975-0.974,2.56,0,3.536c0.977,0.977,2.559,0.98,3.538-0.003l19.446-19.441L-34.964,647.645z M-50.877,675.924
		c-0.598-0.6-0.886-1.357-0.993-2.14c-0.254,0.039-0.51,0.076-0.771,0.076c-1.336,0-2.59-0.522-3.535-1.467
		c-0.945-0.948-1.465-2.2-1.465-3.536c0-0.243,0.037-0.48,0.071-0.717c-0.808-0.11-1.555-0.465-2.141-1.051
		c-0.056-0.056-0.076-0.131-0.127-0.192l-3.052,12.212l12.18-3.049C-50.765,676.012-50.825,675.975-50.877,675.924z"/>
</g>
</svg>
