<?xml version="1.0" encoding="utf-8"?>
<!-- Generator: Adobe Illustrator 15.1.0, SVG Export Plug-In . SVG Version: 6.00 Build 0)  -->
<!DOCTYPE svg PUBLIC "-//W3C//DTD SVG 1.1//EN" "http://www.w3.org/Graphics/SVG/1.1/DTD/svg11.dtd">
<svg version="1.1" id="Capa_1" xmlns="http://www.w3.org/2000/svg" xmlns:xlink="http://www.w3.org/1999/xlink" x="0px" y="0px"
	 width="40px" height="40px" viewBox="-257.029 444.971 40 40" enable-background="new -257.029 444.971 40 40"
	 xml:space="preserve">
<g>
	<g>
		<path d="M-231.79,479.597h-20.549v-29.251h20.55c0.456,0,0.825-0.37,0.825-0.825v-3.039c0-0.456-0.37-0.825-0.825-0.825h-24.414
			c-0.455,0-0.825,0.369-0.825,0.825v36.979c0,0.456,0.37,0.825,0.825,0.825h24.413c0.456,0,0.825-0.369,0.825-0.825v-3.038
			C-230.965,479.967-231.334,479.597-231.79,479.597z"/>
		<path d="M-217.272,464.388l-11.108-11.107c-0.31-0.31-0.857-0.31-1.167,0l-2.636,2.636c-0.322,0.322-0.322,0.845,0,1.167
			l5.018,5.018h-21.72c-0.456,0-0.825,0.37-0.825,0.825v4.09c0,0.456,0.37,0.825,0.825,0.825h21.721l-5.017,5.019
			c-0.323,0.322-0.323,0.844,0,1.167l2.635,2.636c0.155,0.155,0.365,0.242,0.583,0.242c0.219,0,0.429-0.087,0.583-0.242
			l11.108-11.107c0.155-0.154,0.242-0.365,0.242-0.583C-217.029,464.753-217.117,464.543-217.272,464.388z"/>
	</g>
</g>
</svg>
