<svg xmlns="http://www.w3.org/2000/svg" viewBox="0 0 40 40"><defs><style>.a{fill:#010101;}</style></defs><title>project</title><path class="a" d="M13.72,5A1.17,1.17,0,0,0,14.9,3.85V1.17a1.18,1.18,0,0,0-2.35,0V3.85A1.17,1.17,0,0,0,13.72,5Z"/><path class="a" d="M20.76,5a1.17,1.17,0,0,0,1.17-1.17V1.17a1.18,1.18,0,0,0-2.35,0V3.85A1.17,1.17,0,0,0,20.76,5Z"/><path class="a" d="M26.28,2.51h-2V3.85a3.52,3.52,0,0,1-7,0,3.52,3.52,0,0,1-7,0,3.52,3.52,0,0,1-7,0V2.51h-2A1.17,1.17,0,0,0,0,3.68V38.83A1.17,1.17,0,0,0,1.17,40H26.28a1.17,1.17,0,0,0,1.17-1.17V3.68A1.18,1.18,0,0,0,26.28,2.51Zm-5,26.19H6.19a1.17,1.17,0,0,1,0-2.34H21.26a1.17,1.17,0,0,1,0,2.34Zm0-5H6.19a1.17,1.17,0,1,1,0-2.34H21.26a1.17,1.17,0,0,1,0,2.34Zm0-5H6.19a1.17,1.17,0,1,1,0-2.34H21.26a1.17,1.17,0,0,1,0,2.34Zm0-5H6.19a1.17,1.17,0,0,1,0-2.34H21.26a1.17,1.17,0,0,1,0,2.34Z"/><path class="a" d="M6.69,5A1.17,1.17,0,0,0,7.86,3.85V1.17a1.17,1.17,0,0,0-2.34,0V3.85A1.17,1.17,0,0,0,6.69,5Z"/><path class="a" d="M36.32,2.51H35.06a3.68,3.68,0,0,0-3.68,3.68v2.6H40V6.19A3.68,3.68,0,0,0,36.32,2.51Z"/><path class="a" d="M31.38,33.81a1.15,1.15,0,0,0,.18.62l3.14,5a1.17,1.17,0,0,0,2,0l3.14-5a1.15,1.15,0,0,0,.18-.62V11.13H31.38Z"/></svg>