<svg xmlns="http://www.w3.org/2000/svg" xmlns:xlink="http://www.w3.org/1999/xlink" id="Capa_1" width="40" height="40" x="0" y="0" enable-background="new -61.277 640.723 40 40" version="1.1" viewBox="-61.277 640.723 40 40" xml:space="preserve"><g><g><g><path d="M-48.745,648.112h14.938c0.445,0,0.809-0.363,0.809-0.809v-6.58h-16.556v6.58 C-49.555,647.749-49.192,648.112-48.745,648.112z"/><path d="M-21.901,650.785l-8.43-8.465v4.983c0,1.917-1.559,3.477-3.476,3.477h-14.938c-1.917,0-3.476-1.56-3.476-3.477v-6.58 h-5.385c-2.027,0-3.67,1.644-3.67,3.669v32.662c0,2.025,1.643,3.669,3.67,3.669h32.66c2.026,0,3.669-1.644,3.669-3.669v-24.758 C-21.277,651.729-21.502,651.185-21.901,650.785z M-27.5,672.306c0,1.183-0.958,2.142-2.143,2.142h-23.271 c-1.184,0-2.142-0.96-2.142-2.142v-11.167c0-1.182,0.958-2.142,2.142-2.142h23.271c1.185,0,2.143,0.96,2.143,2.142V672.306z"/><path d="M-32.083,662.435h-18.389c-0.738,0-1.334,0.596-1.334,1.333c0,0.738,0.597,1.334,1.334,1.334h18.389 c0.736,0,1.333-0.596,1.333-1.334C-30.75,663.031-31.346,662.435-32.083,662.435z"/><path d="M-34.749,667.769h-13.056c-0.736,0-1.333,0.596-1.333,1.333c0,0.736,0.597,1.334,1.333,1.334h13.056 c0.736,0,1.333-0.598,1.333-1.334C-33.416,668.365-34.012,667.769-34.749,667.769z"/></g></g></g></svg>