<svg xmlns="http://www.w3.org/2000/svg" xmlns:xlink="http://www.w3.org/1999/xlink" id="Capa_1" width="40" height="40" x="0" y="0" enable-background="new .5 792.5 40 40" version="1.1" viewBox="0.5 792.5 40 40" xml:space="preserve"><path d="M37.714,829.566c1.536,0,2.785-1.247,2.785-2.786v-17.952l0.001,0.001v-5.859c0-1.28-1.038-2.319-2.319-2.319H23.945	c-1.421,0-2.575-1.153-2.575-2.576v-0.323c0-1.28-1.038-2.317-2.319-2.317H8.035c-1.279,0-2.316,1.037-2.316,2.317v0.323	c0,1.423-1.153,2.576-2.575,2.576H2.819c-1.281,0-2.319,1.039-2.319,2.319v23.811c0,1.539,1.249,2.786,2.785,2.786 M28.656,821.85	l-0.943,0.942c-1.785,1.786-4.16,2.77-6.686,2.77c-2.022,0-3.942-0.642-5.545-1.808l-2.3,2.301	c-0.254,0.255-0.639,0.332-0.971,0.194c-0.333-0.139-0.55-0.462-0.55-0.824v-7.044c0-0.493,0.398-0.891,0.891-0.891h7.044	c0.36,0,0.686,0.217,0.824,0.55c0.139,0.333,0.063,0.716-0.193,0.971l-2.069,2.069c0.864,0.501,1.845,0.772,2.871,0.772	c1.535,0,2.979-0.598,4.063-1.685l0.941-0.941c0.725-0.724,1.897-0.724,2.624,0C29.38,819.951,29.38,821.125,28.656,821.85z M29.339,811.968c0,0.491-0.398,0.891-0.891,0.891h-7.044c-0.36,0-0.686-0.217-0.824-0.55c-0.137-0.333-0.061-0.717,0.193-0.971	l2.069-2.068c-2.197-1.267-5.057-0.968-6.933,0.911l-0.942,0.941c-0.363,0.362-0.836,0.543-1.311,0.543	c-0.474,0-0.948-0.181-1.312-0.543c-0.724-0.725-0.724-1.899,0-2.623l0.943-0.942c3.327-3.327,8.532-3.64,12.227-0.961l2.303-2.303	c0.254-0.255,0.637-0.33,0.97-0.192c0.334,0.137,0.55,0.461,0.55,0.823V811.968L29.339,811.968z"/></svg>