<?xml version="1.0" encoding="utf-8"?>
<!-- Generator: Adobe Illustrator 15.1.0, SVG Export Plug-In . SVG Version: 6.00 Build 0)  -->
<!DOCTYPE svg PUBLIC "-//W3C//DTD SVG 1.1//EN" "http://www.w3.org/Graphics/SVG/1.1/DTD/svg11.dtd">
<svg version="1.1" id="Capa_1" xmlns="http://www.w3.org/2000/svg" xmlns:xlink="http://www.w3.org/1999/xlink" x="0px" y="0px"
	 width="40px" height="40px" viewBox="81.633 783.633 40 40" enable-background="new 81.633 783.633 40 40" xml:space="preserve">
<g>
	<g>
		<path d="M114.714,788.343h-5.341v-3.471c0-0.698-0.563-1.239-1.262-1.239c-0.068,0-0.113,0.022-0.135,0.045
			c-0.022-0.022-0.068-0.045-0.09-0.045H95.334h-0.09h-0.09c-0.698,0-1.239,0.541-1.239,1.239v3.471h-5.363
			c-1.533,0-2.727,1.194-2.727,2.727v1.983v2.479h2.366v25.397c0,1.532,1.172,2.704,2.705,2.704h21.476
			c1.532,0,2.727-1.172,2.727-2.704v-25.397h2.344v-2.479v-1.983C117.441,789.537,116.247,788.343,114.714,788.343z M96.393,786.111
			h10.479v2.231H96.393V786.111z M112.596,820.929c0,0.158-0.068,0.226-0.225,0.226H90.895c-0.158,0-0.226-0.067-0.226-0.226
			v-25.397h21.927V820.929z M114.94,793.053H88.326v-1.983c0-0.157,0.068-0.248,0.226-0.248h26.163c0.158,0,0.226,0.091,0.226,0.248
			V793.053L114.94,793.053z"/>
		<rect x="106.174" y="798.438" width="2.501" height="20.507"/>
		<rect x="100.405" y="798.438" width="2.501" height="20.507"/>
		<rect x="94.636" y="798.438" width="2.501" height="20.507"/>
	</g>
</g>
</svg>
