<?xml version="1.0" encoding="utf-8"?>
<!-- Generator: Adobe Illustrator 15.1.0, SVG Export Plug-In . SVG Version: 6.00 Build 0)  -->
<!DOCTYPE svg PUBLIC "-//W3C//DTD SVG 1.1//EN" "http://www.w3.org/Graphics/SVG/1.1/DTD/svg11.dtd">
<svg version="1.1" id="Capa_1" xmlns="http://www.w3.org/2000/svg" xmlns:xlink="http://www.w3.org/1999/xlink" x="0px" y="0px"
	 width="40px" height="40px" viewBox="0.5 792.5 40 40" enable-background="new 0.5 792.5 40 40" xml:space="preserve">
<g>
	<g>
		<path fill="#030104" d="M20.5,795.5l-10.4,9.759h6.6V815.5h7.6v-10.241h6.6L20.5,795.5z M39.179,818.584l-6.367-4.284h-3.926
			l6.801,5.218h-7.089c-0.203,0-0.387,0.103-0.479,0.266l-1.635,4.47H14.515l-1.634-4.47c-0.091-0.163-0.275-0.266-0.479-0.266
			H5.313l6.801-5.218H8.188l-6.367,4.284c-0.948,0.566-1.514,1.871-1.26,2.898l1.123,6.148c0.254,1.027,1.381,1.869,2.503,1.869
			h32.627c1.122,0,2.248-0.842,2.503-1.869l1.122-6.148C40.694,820.455,40.127,819.15,39.179,818.584z"/>
	</g>
</g>
</svg>
