<?xml version="1.0" encoding="utf-8"?>
<!-- Generator: Adobe Illustrator 15.1.0, SVG Export Plug-In . SVG Version: 6.00 Build 0)  -->
<!DOCTYPE svg PUBLIC "-//W3C//DTD SVG 1.1//EN" "http://www.w3.org/Graphics/SVG/1.1/DTD/svg11.dtd">
<svg version="1.1" id="Capa_1" xmlns="http://www.w3.org/2000/svg" xmlns:xlink="http://www.w3.org/1999/xlink" x="0px" y="0px"
	 width="49.654px" height="49.654px" viewBox="0 0 49.654 49.654" enable-background="new 0 0 49.654 49.654" xml:space="preserve">
<g>
	<g>
		<path d="M24.827,0C11.138,0,0.001,11.138,0.001,24.827c0,13.689,11.138,24.827,24.826,24.827s24.826-11.138,24.826-24.827
			C49.653,11.138,38.517,0,24.827,0z M39.142,38.51c0-0.573,0-0.979,0-0.979c0-3.386-3.912-4.621-6.006-5.517
			c-0.759-0.323-2.188-1.012-3.653-1.729c-0.495-0.242-0.941-0.887-0.997-1.438l-0.162-1.604c1.122-1.045,2.133-2.5,2.304-4.122
			h0.253c0.398,0,0.773-0.298,0.832-0.663l0.397-2.453c0.053-0.523-0.442-0.842-0.843-0.842c0.011-0.052,0.02-0.104,0.024-0.148
			c0.051-0.296,0.082-0.58,0.103-0.857c0.024-0.223,0.045-0.454,0.056-0.693c0.042-1.157-0.154-2.171-0.479-2.737
			c-0.33-0.793-0.83-1.563-1.526-2.224c-1.939-1.836-4.188-2.551-6.106-1.074c-1.306-0.227-2.857,0.37-3.979,1.684
			c-0.612,0.717-0.993,1.537-1.156,2.344c-0.146,0.503-0.243,1.112-0.267,1.771c-0.026,0.732,0.046,1.403,0.181,1.946
			c-0.382,0.024-0.764,0.339-0.764,0.833l0.396,2.453c0.06,0.365,0.435,0.663,0.832,0.663h0.228
			c0.359,1.754,1.292,3.194,2.322,4.198l-0.155,1.551c-0.057,0.55-0.502,1.193-0.998,1.438c-1.418,0.691-2.815,1.357-3.651,1.703
			c-1.97,0.812-6.006,2.131-6.006,5.517v0.766c-3.288-3.541-5.316-8.266-5.316-13.467c0-10.932,8.895-19.826,19.826-19.826
			c10.934,0,19.826,8.895,19.826,19.826C44.653,30.133,42.548,34.946,39.142,38.51z"/>
	</g>
</g>
</svg>
